<?xml version="1.0" encoding="iso-8859-1"?>
<!-- Generator: Adobe Illustrator 19.0.0, SVG Export Plug-In . SVG Version: 6.00 Build 0)  -->
<svg version="1.1" id="Capa_1" xmlns="http://www.w3.org/2000/svg" xmlns:xlink="http://www.w3.org/1999/xlink" x="0px" y="0px"
	 viewBox="0 0 512 512" style="enable-background:new 0 0 512 512;" xml:space="preserve">
<path style="fill:#B3D8F4;" d="M512,103.581v106.677c0,21.333-17.454,38.787-38.787,38.787H38.787
	C17.454,249.045,0,231.591,0,210.258V103.581c0-21.323,17.454-38.777,38.787-38.777h434.426C494.546,64.804,512,82.258,512,103.581z
	"/>
<path style="fill:#D1E7F8;" d="M512,103.581v106.677c0,21.333-17.454,38.787-38.787,38.787H70.518
	c-21.333,0-38.787-17.454-38.787-38.787V103.581c0-21.323,17.454-38.777,38.787-38.777h402.695
	C494.546,64.804,512,82.258,512,103.581z"/>
<path style="fill:#78B9EB;" d="M512,196.684v13.574c0,1.304-0.062,2.597-0.186,3.869c-0.569,5.607-2.338,10.863-5.049,15.519
	c-6.725,11.577-19.274,19.399-33.552,19.399H38.787c-14.277,0-26.827-7.822-33.552-19.399c-2.711-4.656-4.48-9.911-5.049-15.519
	C0.062,212.855,0,211.562,0,210.258v-13.574H512z"/>
<path style="fill:#6DC82A;" d="M451.021,162.739c0,4.014-2.214,7.511-5.483,9.332c-1.531,0.848-3.3,1.335-5.183,1.335
	c-5.887,0-10.667-4.769-10.667-10.667c0-5.887,4.78-10.667,10.667-10.667c1.883,0,3.652,0.486,5.183,1.345
	C448.807,155.238,451.021,158.735,451.021,162.739z"/>
<path style="fill:#FF0C38;" d="M492.125,162.739c0,4.014-2.214,7.511-5.494,9.332c-1.531,0.848-3.3,1.335-5.173,1.335
	c-5.897,0-10.667-4.769-10.667-10.667c0-5.887,4.769-10.667,10.667-10.667c1.873,0,3.642,0.486,5.173,1.345
	C489.911,155.238,492.125,158.735,492.125,162.739z"/>
<path style="fill:#91DC5A;" d="M451.021,162.739c0,4.014-2.214,7.511-5.483,9.332c-3.28-1.821-5.504-5.307-5.504-9.332
	c0-4.014,2.224-7.511,5.504-9.322C448.807,155.238,451.021,158.735,451.021,162.739z"/>
<path style="fill:#FF3F62;" d="M492.125,162.739c0,4.014-2.214,7.511-5.494,9.332c-3.28-1.821-5.494-5.307-5.494-9.332
	c0-4.014,2.214-7.511,5.494-9.322C489.911,155.238,492.125,158.735,492.125,162.739z"/>
<g>
	<path style="fill:#78B9EB;" d="M482.561,372.147l-27.186-16.894l27.186-16.894c3.641-2.262,4.758-7.047,2.495-10.686
		c-2.262-3.641-7.049-4.757-10.685-2.495l-25.937,16.117v-30.537c0-4.285-3.473-7.759-7.759-7.759c-4.286,0-7.759,3.474-7.759,7.759
		v30.538l-25.938-16.118c-3.638-2.264-8.425-1.145-10.685,2.495c-2.263,3.64-1.144,8.425,2.495,10.686l27.186,16.894l-27.186,16.894
		c-3.641,2.262-4.758,7.047-2.495,10.686c1.469,2.365,4.004,3.665,6.598,3.665c1.399,0,2.814-0.378,4.088-1.17l25.938-16.118v30.538
		c0,4.285,3.473,7.759,7.759,7.759c4.286,0,7.759-3.474,7.759-7.759v-30.537l25.937,16.117c1.274,0.792,2.69,1.17,4.088,1.17
		c2.594,0,5.128-1.3,6.598-3.665C487.319,379.193,486.201,374.409,482.561,372.147z"/>
	<path style="fill:#78B9EB;" d="M194.373,304.482c-2.262-3.641-7.049-4.756-10.685-2.495l-25.938,16.118v-30.538
		c0-4.285-3.473-7.759-7.759-7.759s-7.759,3.474-7.759,7.759v30.537l-25.937-16.117c-3.638-2.263-8.425-1.144-10.685,2.495
		c-2.263,3.64-1.144,8.425,2.495,10.686l27.186,16.894l-27.186,16.894c-3.641,2.262-4.758,7.047-2.495,10.686
		c1.469,2.365,4.004,3.665,6.598,3.665c1.399,0,2.814-0.378,4.088-1.17l25.937-16.117v30.537c0,4.285,3.473,7.759,7.759,7.759
		s7.759-3.474,7.759-7.759v-30.538l25.938,16.118c1.274,0.793,2.69,1.17,4.088,1.17c2.594,0,5.128-1.3,6.598-3.665
		c2.263-3.64,1.144-8.425-2.495-10.686l-27.186-16.894l27.186-16.894C195.518,312.906,196.635,308.121,194.373,304.482z"/>
</g>
<path style="fill:#3D9AE2;" d="M289.268,394.133c-2.263-3.64-7.047-4.757-10.686-2.495l-11.054,6.869v-13.013
	c0-4.285-3.473-7.759-7.759-7.759c-4.286,0-7.759,3.474-7.759,7.759v13.013l-11.053-6.868c-3.641-2.264-8.426-1.144-10.686,2.495
	c-2.263,3.64-1.144,8.425,2.494,10.686l12.302,7.645l-12.302,7.645c-3.64,2.262-4.757,7.047-2.494,10.686
	c1.47,2.365,4.004,3.665,6.598,3.665c1.399,0,2.814-0.378,4.089-1.17l11.053-6.868v13.013c0,4.285,3.473,7.759,7.759,7.759
	c4.286,0,7.759-3.474,7.759-7.759v-13.014l11.054,6.869c1.275,0.792,2.691,1.17,4.089,1.17c2.594,0,5.128-1.3,6.598-3.665
	c2.263-3.64,1.144-8.425-2.494-10.686l-12.302-7.645l12.302-7.645C290.414,402.557,291.531,397.773,289.268,394.133z"/>
<g>
	<path style="fill:#1E81CE;" d="M60.017,341.155c0,5.204-2.462,9.839-6.29,12.788c-2.721,2.09-6.125,3.342-9.829,3.342
		c-8.908,0-16.129-7.221-16.129-16.129c0-8.908,7.221-16.129,16.129-16.129c3.704,0,7.108,1.252,9.829,3.342
		C57.554,331.316,60.017,335.951,60.017,341.155z"/>
	<path style="fill:#1E81CE;" d="M339.14,305.71c0,5.204-2.473,9.839-6.301,12.788c-2.721,2.09-6.125,3.342-9.829,3.342
		c-8.908,0-16.129-7.221-16.129-16.129s7.221-16.129,16.129-16.129c3.704,0,7.108,1.252,9.829,3.342
		C336.667,295.871,339.14,300.506,339.14,305.71z"/>
</g>
<g>
	<path style="fill:#3D9AE2;" d="M60.017,341.155c0,5.204-2.462,9.839-6.29,12.788c-3.828-2.949-6.301-7.584-6.301-12.788
		s2.473-9.839,6.301-12.788C57.554,331.316,60.017,335.951,60.017,341.155z"/>
	<path style="fill:#3D9AE2;" d="M339.14,305.71c0,5.204-2.473,9.839-6.301,12.788c-3.828-2.949-6.301-7.584-6.301-12.788
		s2.473-9.839,6.301-12.788C336.667,295.871,339.14,300.506,339.14,305.71z"/>
</g>
<path style="fill:#165C92;" d="M287.628,108.361c0,4.283-3.476,7.759-7.759,7.759h-46.381c-4.283,0-7.759-3.476-7.759-7.759
	c0-4.283,3.476-7.759,7.759-7.759h46.381C284.151,100.601,287.628,104.078,287.628,108.361z"/>
<path style="fill:#1A6FB0;" d="M287.628,108.361c0,4.283-3.476,7.759-7.759,7.759H263.49c-4.283,0-7.759-3.476-7.759-7.759
	c0-4.283,3.476-7.759,7.759-7.759h16.378C284.151,100.601,287.628,104.078,287.628,108.361z"/>
<path style="fill:#5AAAE7;" d="M70.518,249.045H38.787c-14.277,0-26.827-7.822-33.552-19.399c-2.711-4.656-4.48-9.911-5.049-15.519
	C0.062,212.855,0,211.562,0,210.258v-13.574h31.731v13.574C31.731,231.591,49.185,249.045,70.518,249.045z"/>
<g>
	<path style="fill:#3D9AE2;" d="M174.019,221.887c0,4.294-3.476,7.759-7.759,7.759H5.235c-2.711-4.656-4.48-9.911-5.049-15.519
		h166.073C170.542,214.127,174.019,217.604,174.019,221.887z"/>
	<path style="fill:#3D9AE2;" d="M511.814,214.127c-0.569,5.607-2.338,10.863-5.049,15.519H197.297c-4.283,0-7.759-3.466-7.759-7.759
		c0-4.283,3.476-7.759,7.759-7.759H511.814z"/>
</g>
<g>
</g>
<g>
</g>
<g>
</g>
<g>
</g>
<g>
</g>
<g>
</g>
<g>
</g>
<g>
</g>
<g>
</g>
<g>
</g>
<g>
</g>
<g>
</g>
<g>
</g>
<g>
</g>
<g>
</g>
</svg>
