<svg id="Layer_3" enable-background="new 0 0 64 64" height="512" viewBox="0 0 64 64" width="512" xmlns="http://www.w3.org/2000/svg"><g><path d="m53 62h-42c-1.105 0-2-.895-2-2v-56c0-1.105.895-2 2-2h42c1.105 0 2 .895 2 2v56c0 1.105-.895 2-2 2z" fill="#a8b0bc"/><circle cx="32" cy="27" fill="#758190" r="18"/><path d="m32 9c-9.941 0-18 8.059-18 18 0 5.215 2.231 9.898 5.776 13.186 11.446-5.024 19.743-15.891 21.104-28.831-2.622-1.492-5.648-2.355-8.88-2.355z" fill="#8892a0"/><path d="m19 2h26v4h-26z" fill="#c1c8d1"/><path d="m19 2h-8c-1.105 0-2 .895-2 2v2h10z" fill="#a8b0bc"/><path d="m19 6h-10v4h8c1.105 0 2-.895 2-2z" fill="#e7e4dd"/><path d="m55 10h-8c-1.105 0-2-.895-2-2v-6h8c1.105 0 2 .895 2 2z" fill="#758190"/><path d="m46 58h-28c-2.761 0-5-2.239-5-5 0-2.761 2.239-5 5-5h28c2.761 0 5 2.239 5 5 0 2.761-2.239 5-5 5z" fill="#e7e4dd"/><circle cx="32" cy="27" fill="#c7e2fc" r="14"/><path d="m40 32c-1.105 0-2-.895-2-2v-6c0-1.105.895-2 2-2 1.105 0 2 .895 2 2v6c0 1.105-.895 2-2 2z" fill="#8892a0"/><circle cx="46" cy="53" fill="#96cc7f" r="2"/><circle cx="18" cy="53" fill="#e47c6e" r="2"/><g><path d="m50 8c-1.103 0-2-.897-2-2 0-1.104.897-2 2-2s2 .897 2 2-.898 2-2 2z" fill="#e7e4dd"/></g><path d="m34 55h-4c-1.105 0-2-.895-2-2 0-1.105.895-2 2-2h4c1.105 0 2 .895 2 2 0 1.105-.895 2-2 2z" fill="#a8b0bc"/><path d="m32 13c-7.732 0-14 6.268-14 14 0 4.59 2.219 8.652 5.632 11.205 8.224-4.884 14.306-12.985 16.522-22.57-2.297-1.651-5.108-2.635-8.154-2.635z" fill="#ebf7fe"/></g></svg>