<svg height="512" viewBox="0 0 128 128" width="512" xmlns="http://www.w3.org/2000/svg"><g><path d="m50.093 91.5 41.424-41.426a22.519 22.519 0 0 0 28.826-28.826l-14.426 14.426-13.042-.549-.549-13.042 14.426-14.426a22.519 22.519 0 0 0 -28.826 28.826l-41.426 41.424a22.555 22.555 0 1 0 13.593 13.593zm-17.227 17.225h-7.966l-5.625-5.625v-7.966l5.625-5.629h7.962l5.629 5.629v7.966z" fill="#65727f"/><g fill="#525d66"><path d="m74.487 57.743a1.75 1.75 0 0 1 -1.238-2.987l3.817-3.818a1.75 1.75 0 0 1 2.475 2.475l-3.817 3.817a1.743 1.743 0 0 1 -1.237.513z"/><path d="m56.205 76.024a1.75 1.75 0 0 1 -1.237-2.987l11.594-11.6a1.75 1.75 0 0 1 2.475 2.475l-11.6 11.6a1.742 1.742 0 0 1 -1.232.512z"/></g></g></svg>