<svg id="Layer_1" height="512" viewBox="0 0 512 512" width="512" xmlns="http://www.w3.org/2000/svg" data-name="Layer 1"><path d="m83.453 307.793a46.047 46.047 0 0 1 -14.817-34.043v-35.5a46.569 46.569 0 0 1 46.516-46.516h-20a46.569 46.569 0 0 0 -46.516 46.516v35.5a46.516 46.516 0 0 0 49.83 46.4l8.421-.6a46.057 46.057 0 0 1 -23.434-11.757z" fill="#d4e1f4"/><path d="m379.524 316.264a73.032 73.032 0 0 1 -67.589-72.59v-18.556a33.425 33.425 0 0 1 33.387-33.387h-20a33.425 33.425 0 0 0 -33.387 33.387v18.556a73.032 73.032 0 0 0 67.589 72.59l54.387 3.884a47.1 47.1 0 0 0 11.57-.6z" fill="#d4e1f4"/><path d="m496 233.441h-20.472a58.582 58.582 0 0 0 -58.3-53.71h-322.076a58.583 58.583 0 0 0 -58.3 53.71h-20.852a6 6 0 0 0 0 12h20.636v28.309a58.514 58.514 0 0 0 58.556 58.515q2.061 0 4.129-.148l54.387-3.885a84.773 84.773 0 0 0 78.735-84.558v-12.556h47.492v12.556a84.774 84.774 0 0 0 78.734 84.558l54.388 3.885q2.067.148 4.128.148a58.515 58.515 0 0 0 58.557-58.515v-28.309h20.258a6 6 0 0 0 0-12zm-201.384-41.71a45.328 45.328 0 0 0 -14.273 27.387h-48.309a45.322 45.322 0 0 0 -14.272-27.387zm-74.173 51.943a73.032 73.032 0 0 1 -67.589 72.59l-54.388 3.884a46.516 46.516 0 0 1 -49.83-46.4v-35.5a46.569 46.569 0 0 1 46.516-46.516h91.9a33.426 33.426 0 0 1 33.387 33.387zm243.3 30.076a46.518 46.518 0 0 1 -49.831 46.4l-54.387-3.884a73.032 73.032 0 0 1 -67.589-72.59v-18.558a33.425 33.425 0 0 1 33.387-33.387h91.9a46.569 46.569 0 0 1 46.516 46.516z" fill="#1ae5be"/><g fill="#0635c9"><path d="m75.9 250.244 25.41-30.1a6 6 0 1 0 -9.169-7.742l-25.411 30.098a6 6 0 0 0 9.169 7.742z"/><path d="m133.363 213.584a6 6 0 0 0 -8.455.714l-50.818 60.19a6 6 0 0 0 9.169 7.742l50.818-60.19a6 6 0 0 0 -.714-8.456z"/><path d="m318.994 248.93 25.409-30.1a6 6 0 1 0 -9.169-7.74l-25.409 30.1a6 6 0 1 0 9.169 7.741z"/><path d="m376.458 212.271a6 6 0 0 0 -8.456.713l-50.818 60.192a6 6 0 0 0 9.169 7.742l50.818-60.191a6 6 0 0 0 -.713-8.456z"/></g></svg>