<svg height="512" viewBox="0 0 512 512" width="512" xmlns="http://www.w3.org/2000/svg"><g id="Flat"><path d="m30.96153 332.641a15.63328 15.63328 0 0 1 -6.96153-13.00768 15.63329 15.63329 0 0 1 15.63329-15.63332h120.36671l-92.71529 33.11261a40.76512 40.76512 0 0 1 -36.32318-4.47161z" fill="#a1764a"/><path d="m39.63329 304h.00006a262.6168 262.6168 0 0 1 107.76865 23.13088l43.24038 19.45817a333.91739 333.91739 0 0 0 137.02789 29.41095h.00014a333.91737 333.91737 0 0 0 138.176-29.9302l9.23757-4.19889a22.03355 22.03355 0 0 0 12.91602-20.05861 22.03355 22.03355 0 0 0 -17.41688-21.54446l-94.58312-20.26784v-32l-120-48-120 48v32z" fill="#bc8d5d"/><path d="m255.99988 128h.00024a119.99988 119.99988 0 0 1 119.99988 119.99988v.00012a0 0 0 0 1 0 0h-240a0 0 0 0 1 0 0v-.00012a119.99988 119.99988 0 0 1 119.99988-119.99988z" fill="#bc8d5d"/><path d="m136 248h240v32h-240z" fill="#4d4d4d"/><path d="m216 280h-56a11.31074 11.31074 0 0 1 0-16l16-16h24z" fill="#424242"/><path d="m352 280h-59.42993l9.13993-32h34.29l16 16a11.31074 11.31074 0 0 1 0 16z" fill="#424242"/><g fill="#4d4d4d"><path d="m192 256a11.31373 11.31373 0 0 1 0-16l-24 24a11.31373 11.31373 0 0 0 0 16 54.62731 54.62731 0 0 0 38.62734 16h25.37266z"/><path d="m320 256a11.31373 11.31373 0 0 0 0-16l24 24a11.31373 11.31373 0 0 1 0 16 54.62731 54.62731 0 0 1 -38.62734 16h-25.37266z"/><path d="m216 296a79.99993 79.99993 0 0 0 -32 64v8l24-8 16 24v-10.7452a109.25475 109.25475 0 0 1 32-77.2548z"/><path d="m256 296v.00008a79.99991 79.99991 0 0 0 79.99992 79.99992h8.00008l-16-16 16-24h-16a39.99993 39.99993 0 0 1 -40-40z"/></g><path d="m256 272-24 24-32-32a22.62147 22.62147 0 0 0 -32 0l24-24a22.621 22.621 0 0 1 32 0z" fill="#808080"/><path d="m344 264a22.62147 22.62147 0 0 0 -32 0l-32 32-24-24 32-32a22.621 22.621 0 0 1 32 0z" fill="#808080"/><path d="m256 272-24 24-8-8v-48z" fill="#4d4d4d"/><path d="m288 240v48l-8 8-24-24z" fill="#4d4d4d"/><path d="m232 248h48v48h-48z" fill="#808080"/></g></svg>