<svg height="512" viewBox="0 0 44 60" width="512" xmlns="http://www.w3.org/2000/svg"><g id="Page-1" fill="none" fill-rule="evenodd"><g id="048---Bra-and-Pants" fill-rule="nonzero"><g id="Icons" transform="translate(1 12)"><path id="Shape" d="m19 14c-2.7673856 2.4546308-6.3031823 3.8689495-10 4-5.75 0-9-3.2-9-9-.00315167-3.43146836 1.45081876-6.70290183 4-9 2.87012241-.000604 5.69878008.6851312 8.25 2 2.5226647 1.38030191 4.435447 3.65708384 5.36 6.38.7130747 1.8025832 1.1805947 3.6928438 1.39 5.62z" fill="#ffeb3a"/><path id="Shape" d="m42 9c0 5.8-3.29 9-9 9-3.6968177-.1310505-7.2326144-1.5453692-10-4 .2094053-1.9271562.6769253-3.8174168 1.39-5.62.9193314-2.72585418 2.8335408-5.00433471 5.36-6.38 2.5512199-1.3148688 5.3798776-2.000604 8.25-2 2.5491812 2.29709817 4.0031517 5.56853164 4 9z" fill="#ffeb3a"/><path id="Shape" d="m38 0c-.9239793.00029877-1.8466121.07049909-2.76.21 2.4028483 2.29238528 3.7616947 5.46905025 3.76 8.79 0 5.25-2.71 8.37-7.49 8.91.4946445.0572546.9920602.0872999 1.49.09 5.75 0 9-3.2 9-9 .0031517-3.43146836-1.4508188-6.70290183-4-9z" fill="#fdd834"/><path id="Shape" d="m24.39 8.38c-.7130747 1.8025832-1.1805947 3.6928438-1.39 5.62-.5389493-.5436611-1.2417015-.8950372-2-1-.7582985.1049628-1.4610507.4563389-2 1-.2094053-1.9271562-.6769253-3.8174168-1.39-5.62 1.0698354.4561856 2.2279546.66799502 3.39.62 1.1620454.04799502 2.3201646-.1638144 3.39-.62z" fill="#ffdc00"/><path id="Shape" d="m41 35c-.6926741-.0427578-1.3873259-.0427578-2.08 0-3.1978114.1330757-6.2916867 1.1736167-8.92 3-2.5037433 2.0419061-4.2617248 4.8546764-5 8-1.2526802.5984842-2.6130543.9385777-4 1-1.3869457-.0614223-2.7473198-.4015158-4-1-.7382752-3.1453236-2.4962567-5.9580939-5-8-2.62831334-1.8263833-5.72218859-2.8669243-8.92-3-.69267411-.0427578-1.38732589-.0427578-2.08 0 0-5 3-10 3-10h34s3 5 3 10z" fill="#ffdc00"/><path id="Shape" d="m38 25h-3s3 5 3 10c-.6926741-.0427578-1.3873259-.0427578-2.08 0-3.1978114.1330757-6.2916867 1.1736167-8.92 3-2.5037433 2.0419061-4.2617248 4.8546764-5 8-.7988191.3738074-1.6375346.6556158-2.5.84.4940218.0993089.9961459.1528688 1.5.16 1.3869457-.0614223 2.7473198-.4015158 4-1 .7382752-3.1453236 2.4962567-5.9580939 5-8 2.6283133-1.8263833 5.7221886-2.8669243 8.92-3 .6926741-.0427578 1.3873259-.0427578 2.08 0 0-5-3-10-3-10z" fill="#fec108"/><path id="Shape" d="m17 46c-2-1-3-2-7-4-3.64-1.82-6.46-3.64-6.92-7 3.19781141.1330757 6.29168666 1.1736167 8.92 3 2.5037433 2.0419061 4.2617248 4.8546764 5 8z" fill="#ff9801"/><path id="Shape" d="m38.92 35c-.46 3.34-3.28 5.16-6.92 7-4 2-5 3-7 4 .7382752-3.1453236 2.4962567-5.9580939 5-8 2.6283133-1.8263833 5.7221886-2.8669243 8.92-3z" fill="#ff9801"/><path id="Shape" d="m35.82 35.45c-.64 3.06-3.35 4.81-6.82 6.55-1.41.71-2.45 1.29-3.29 1.79-.2961227.7162245-.5335704 1.4553221-.71 2.21 2-1 3-2 7-4 3.64-1.82 6.46-3.64 6.92-7-1.0432815.0708712-2.0796278.2213086-3.1.45z" fill="#f57c00"/></g><g id="Icons_copy" fill="#000"><path id="Shape" d="m42 1c0-.55228475-.4477153-1-1-1s-1 .44771525-1 1c.0619127 3.40758612-.5041934 6.79744299-1.67 10-2.7850334.1112002-5.5134982.820601-8 2.08-2.6387252 1.3964319-4.6686334 3.7183619-5.7 6.52-.8470591.2839225-1.7368312.419249-2.63.4-.8886642.024541-1.7749256-.1040007-2.62-.38-1.0313666-2.8016381-3.0612748-5.1235681-5.7-6.52-2.4848179-1.2638453-5.21427151-1.9735033-8-2.08-1.18020747-3.20594206-1.75001546-6.60443972-1.68-10.02 0-.55228475-.44771525-1-1-1s-1 .44771525-1 1c-.06875611 3.66372548.54153293 7.30850724 1.8 10.75-2.43906578 2.4601534-3.80523661 5.7857008-3.8 9.25 0 6.36 3.66 10 10 10 3.9429158-.1295813 7.7139292-1.6450684 10.65-4.28.3641043-.3746451.8360359-.626342 1.35-.72.4926299.0987933.9429747.3466575 1.29.71 2.9502627 2.6516693 6.7449778 4.1716813 10.71 4.29 6.38 0 10-3.64 10-10 .0052366-3.4642992-1.3609342-6.7898466-3.8-9.25 1.2584671-3.44149276 1.8687561-7.08627452 1.8-10.75zm-32 28c-5.26 0-8-2.77-8-8 .01491792-3.0106698 1.23172032-5.8906755 3.38-8 2.59168243.0632021 5.1353607.7127973 7.44 1.9 4.64 2.21 5.87 8.83 6.12 10.69-2.5182914 2.0984976-5.6638724 3.2983222-8.94 3.41zm10.72-4.71c-.1503095-.8163754-.3439161-1.6241821-.58-2.42 1.2071477.173265 2.4328523.173265 3.64 0-.2360839.7958179-.4296905 1.6036246-.58 2.42-.7815944-.3860558-1.6984056-.3860558-2.48 0zm13.28 4.71c-3.2609066-.1271719-6.3889683-1.3256764-8.9-3.41.25-1.86 1.48-8.48 6.12-10.69 2.2925471-1.1813715 4.8218957-1.8307989 7.4-1.9 2.1567863 2.1035299 3.3751665 4.9872701 3.38 8 0 5.23-2.78 8-8 8z"/><path id="Shape" d="m39 36h-34c-.35306729.0000616-.67993568.1863005-.86.49-.14.21-3.14 5.29-3.14 10.51.00089162.2771651.11677684.5415282.32.73.20896146.1847661.48130539.2815198.76.27h1.18c.88 3.43 4.07 5.3 7.29 6.91 1.6006121.7938004 3.1563003 1.6751345 4.66 2.64.7540851.4965235 1.5353005.9505632 2.34 1.36 1.3925734.6655401 2.9074847 1.0366082 4.45 1.09 1.5439388-.0596515 3.0589178-.4375451 4.45-1.11.8046995-.4094368 1.5859149-.8634765 2.34-1.36 1.5036997-.9648655 3.0593879-1.8461996 4.66-2.64 3.22-1.61 6.41-3.47 7.29-6.91h1.18c.2790139.0136596.5521408-.0833723.76-.27.1982262-.1837018.3136577-.4398153.32-.71 0-5.22-3-10.3-3.14-10.51-.1800643-.3036995-.5069327-.4899384-.86-.49zm-27.55 17.11c-3.13-1.57-5.19-3-6-5 2.51885611.274659 4.9270903 1.1829073 7 2.64 1.667546 1.3176682 2.9719 3.0384517 3.79 5-1.5443532-.971749-3.1436985-1.8532254-4.79-2.64zm21.1 0c-1.6319566.8042732-3.2177557 1.6989978-4.75 2.68.8178128-1.9644523 2.1262403-3.6860674 3.8-5 2.0729097-1.4570927 4.4811439-2.365341 7-2.64-.86 2-2.92 3.39-6.05 4.96zm-2.15-3.91c-2.5731514 2.0649642-4.416667 4.9003332-5.26 8.09-.9943874.426861-2.058699.6675174-3.14.71-1.081301-.0424826-2.1456126-.283139-3.14-.71-.843333-3.1896668-2.6868486-6.0250358-5.26-8.09-3.1221001-2.1273417-6.82228614-3.244379-10.6-3.2.12881395-1.3615465.41402685-2.7037248.85-4h12.15c.5522847 0 1-.4477153 1-1s-.4477153-1-1-1h-11.36c.37-.87.72-1.57.95-2h32.82c.23.43.58 1.13 1 2h-11.41c-.5522847 0-1 .4477153-1 1s.4477153 1 1 1h12.11c.4495795 1.2946493.7482225 2.6368647.89 4-3.7777139-.044379-7.4778999 1.0726583-10.6 3.2z"/><path id="Shape" d="m24 40c-.6922201-.0149681-1.3779753.1358981-2 .44-.6220247-.3041019-1.3077799-.4549681-2-.44-.5522847 0-1 .4477153-1 1s.4477153 1 1 1c.3409645.0045924.6788352.0654091 1 .18 0 .5522847.4477153 1 1 1s1-.4477153 1-1c.320973-.115309.6589648-.1761475 1-.18.5522847 0 1-.4477153 1-1s-.4477153-1-1-1z"/></g></g></g></svg>