<svg height="512" viewBox="0 0 512 512" width="512" xmlns="http://www.w3.org/2000/svg"><g id="filled_outline" data-name="filled outline"><path d="m472 56v1.84a31.341 31.341 0 0 1 -.8 7.04 30.411 30.411 0 0 1 -1.49 4.84l-29.71 74.28h-80l-29.71-74.28a30.411 30.411 0 0 1 -1.49-4.84 31.341 31.341 0 0 1 -.8-7.04v-1.84a32 32 0 0 1 32-32h80a32 32 0 0 1 32 32z" fill="#ffc3d4"/><path d="m471.2 64.88a30.411 30.411 0 0 1 -1.49 4.84l-29.71 74.28h-80l-29.71-74.28a30.411 30.411 0 0 1 -1.49-4.84 32.012 32.012 0 0 1 31.2-24.88h80a32.012 32.012 0 0 1 31.2 24.88z" fill="#f9adb1"/><path d="m400 152a8 8 0 0 1 -8-8v-56a8 8 0 0 1 16 0v56a8 8 0 0 1 -8 8z" fill="#de9a9e"/><path d="m384 152a8 8 0 0 1 -7.688-5.8l-16-56a8 8 0 1 1 15.384-4.4l16 56a8.007 8.007 0 0 1 -7.696 10.2z" fill="#de9a9e"/><path d="m416 152a8.007 8.007 0 0 1 -7.7-10.2l16-56a8 8 0 1 1 15.384 4.4l-16 56a8 8 0 0 1 -7.684 5.8z" fill="#de9a9e"/><path d="m432 256h-64l-8-56v-56h80v56z" fill="#ebebeb"/><path d="m408 192a8 8 0 0 1 -8-8v-8a8 8 0 0 1 16 0v8a8 8 0 0 1 -8 8z" fill="#cdcdcd"/><path d="m408 264a8 8 0 0 1 -8-8v-40a8 8 0 0 1 16 0v40a8 8 0 0 1 -8 8z" fill="#cdcdcd"/><path d="m424 488h-48l-8-232h64z" fill="#8f563b"/><path d="m76 488h-40a12 12 0 0 1 -12-12v-68l8-32h48l8 32v68a12 12 0 0 1 -12 12z" fill="#da922a"/><path d="m56 336a8 8 0 0 1 -8-8v-136a8 8 0 0 1 16 0v136a8 8 0 0 1 -8 8z" fill="#b9b9b9"/><g fill="#878787"><path d="m72 288h-32a8 8 0 0 1 0-16h32a8 8 0 0 1 0 16z"/><path d="m80 240h-48a8 8 0 0 1 0-16h48a8 8 0 0 1 0 16z"/><path d="m80 264h-48a8 8 0 0 1 0-16h48a8 8 0 0 1 0 16z"/><path d="m72 216h-32a8 8 0 0 1 0-16h32a8 8 0 0 1 0 16z"/></g><circle cx="280" cy="368" fill="#de9a9e" r="104"/><path d="m352 368a72.042 72.042 0 0 1 -49.28 68.34 70.754 70.754 0 0 1 -10.62 2.64h-.01a72 72 0 1 1 -20.25-142.52 73.291 73.291 0 0 1 8.16-.46 71.775 71.775 0 0 1 49.34 19.57 71.841 71.841 0 0 1 22.66 52.43z" fill="#c0f5f9"/><path d="m176 432h208a0 0 0 0 1 0 0v20a36 36 0 0 1 -36 36h-136a36 36 0 0 1 -36-36v-20a0 0 0 0 1 0 0z" fill="#f9adb1"/><path d="m302.71 299.66-46.71 132.34h-9.01a72.164 72.164 0 0 1 -18.25-13.44l43.1-122.1.16-.46h8a71.66 71.66 0 0 1 22.71 3.66z" fill="#b3e4e8"/><path d="m341.01 329.75-37.48 104.94a7.668 7.668 0 0 1 -.81 1.65 7.983 7.983 0 0 1 -9.41 3.19 7.35 7.35 0 0 1 -1.21-.55h-.01a7.991 7.991 0 0 1 -3.62-9.67l40-112a7.865 7.865 0 0 1 .87-1.74 72.39 72.39 0 0 1 11.67 14.18z" fill="#b3e4e8"/><path d="m24 408h64l-8-32h-48z" fill="#f3af3e"/><path d="m36 328h40a4 4 0 0 1 4 4v44a0 0 0 0 1 0 0h-48a0 0 0 0 1 0 0v-44a4 4 0 0 1 4-4z" fill="#277baa"/><path d="m240 432h80a0 0 0 0 1 0 0 32 32 0 0 1 -32 32h-16a32 32 0 0 1 -32-32 0 0 0 0 1 0 0z" fill="#eea5a9"/><path d="m184 360v120a8 8 0 0 1 -8 8h-48a8 8 0 0 1 -8-8v-120z" fill="#277baa"/><path d="m128 328h48v32h-48z" fill="#f3af3e"/><path d="m128 328h32v32h-32z" fill="#ffb841"/><path d="m176 328h-48v-96h16a32 32 0 0 1 32 32z" fill="#dc4d41"/><path d="m128 232h16a32 32 0 0 1 32 32 0 0 0 0 1 0 0h-16a32 32 0 0 1 -32-32 0 0 0 0 1 0 0z" fill="#f55648"/><path d="m120 360h64v32h-64z" fill="#c38325"/><path d="m120 360h40v32h-40z" fill="#d18d28"/><path d="m184 392v88a8 8 0 0 1 -8 8h-16v-96z" fill="#24719c"/><path d="m88 375.017v-43.017a12.013 12.013 0 0 0 -12-12h-12v-32h8a8 8 0 0 0 0-16h-8v-8h16a8 8 0 0 0 0-16h-16v-8h16a8 8 0 0 0 0-16h-16v-8h8a8 8 0 0 0 0-16h-8v-8a8 8 0 0 0 -16 0v8h-8a8 8 0 0 0 0 16h8v8h-16a8 8 0 0 0 0 16h16v8h-16a8 8 0 0 0 0 16h16v8h-8a8 8 0 0 0 0 16h8v32h-12a12.013 12.013 0 0 0 -12 12v43.017l-7.761 31.043a7.977 7.977 0 0 0 -.239 1.94v68a20.023 20.023 0 0 0 20 20h40a20.023 20.023 0 0 0 20-20v-68a7.977 7.977 0 0 0 -.239-1.94zm-49.754 8.983h35.508l4 16h-43.508zm1.754-48h32v32h-32zm36 144h-40a4 4 0 0 1 -4-4v-60h48v60a4 4 0 0 1 -4 4z"/><path d="m440 16h-80a40.045 40.045 0 0 0 -40 40v1.837a39.818 39.818 0 0 0 2.861 14.856l29.139 72.848v54.459a8.072 8.072 0 0 0 .08 1.131l7.94 55.579 1.181 34.231a112.033 112.033 0 0 0 -177.201 19.319v-46.26a40.045 40.045 0 0 0 -40-40h-16a8 8 0 0 0 -8 8v120a8 8 0 0 0 -8 8v120a16.019 16.019 0 0 0 16 16h48a15.972 15.972 0 0 0 12.881-6.549 43.853 43.853 0 0 0 23.119 6.549h136a43.717 43.717 0 0 0 20.544-5.107 8 8 0 0 0 7.456 5.107h48a8 8 0 0 0 8-7.724l7.98-231.566 7.94-55.579a8.072 8.072 0 0 0 .08-1.131v-54.459l29.139-72.848a39.825 39.825 0 0 0 2.861-14.856v-1.837a40.045 40.045 0 0 0 -40-40zm-8 136v47.432l-6.938 48.568h-9.062v-32a8 8 0 0 0 -16 0v32h-25.062l-6.938-48.568v-47.432zm-217.4 145.718a96 96 0 0 1 143.382 126.282h-20.811a79.984 79.984 0 1 0 -114.371 0h-30.8v-64a8 8 0 0 0 -6.684-7.883 95.653 95.653 0 0 1 29.284-54.399zm96.4 126.282h-3.648l30.076-84.209a63.965 63.965 0 0 1 -26.428 84.209zm-20.639 0h-23.054l40.164-113.793a64.3 64.3 0 0 1 18.7 13.54zm-40.022 0h-1.339a64.529 64.529 0 0 1 -11-7.663l39.641-112.277c.784-.029 1.568-.06 2.359-.06a63.974 63.974 0 0 1 12.273 1.194zm-24.381-21.606a64.091 64.091 0 0 1 33.542-95.006zm84.671 37.606a24.042 24.042 0 0 1 -22.629 16h-16a24.031 24.031 0 0 1 -22.488-15.646c.431-.084 61.117-.354 61.117-.354zm-182.629-72h48v16h-48zm8-104.022a39.788 39.788 0 0 0 24 8.022h8v48h-32zm30.624-7.978h-6.624a24.039 24.039 0 0 1 -22.624-16h6.624a24.039 24.039 0 0 1 22.624 16zm-30.624 80h32v16h-32zm40 144h-48v-80h48l.007 80zm36 0a27.882 27.882 0 0 1 -20-8.416v-31.584h40.805a40.067 40.067 0 0 0 39.195 32h16a40.067 40.067 0 0 0 39.2-32h48.8v12a28.032 28.032 0 0 1 -28 28zm204.271 0h-32.8l-.037-.548a8.118 8.118 0 0 0 -.174-1.158 43.764 43.764 0 0 0 8.74-26.294v-20a8 8 0 0 0 -8-8h-6.989a111.951 111.951 0 0 0 .989-110.166l-1.719-49.834h47.439zm47.729-422.163a23.859 23.859 0 0 1 -1.717 8.912l-27.699 69.251h-7.978l13.086-45.8a8 8 0 1 0 -15.384-4.4l-14.343 50.2h-1.965v-48a8 8 0 0 0 -16 0v48h-1.965l-14.343-50.2a8 8 0 1 0 -15.384 4.4l13.086 45.8h-7.978l-27.7-69.251a23.859 23.859 0 0 1 -1.716-8.912v-1.837a24.027 24.027 0 0 1 24-24h80a24.027 24.027 0 0 1 24 24z"/><path d="m408 192a8 8 0 0 0 8-8v-8a8 8 0 0 0 -16 0v8a8 8 0 0 0 8 8z"/></g></svg>