<?xml version="1.0" encoding="iso-8859-1"?>
<!-- Generator: Adobe Illustrator 19.0.0, SVG Export Plug-In . SVG Version: 6.00 Build 0)  -->
<svg version="1.1" id="Capa_1" xmlns="http://www.w3.org/2000/svg" xmlns:xlink="http://www.w3.org/1999/xlink" x="0px" y="0px"
	 viewBox="0 0 409.6 409.6" style="enable-background:new 0 0 409.6 409.6;" xml:space="preserve">
<path style="fill:#44C4A1;" d="M368.865,147.98c-64.512,84.244-136.603,156.334-220.885,220.885
	c-35.747-35.748-71.495-71.495-107.242-107.242c64.548-84.284,136.645-156.371,220.886-220.885
	C297.37,76.485,333.118,112.233,368.865,147.98z"/>
<g>
	<path style="fill:#EBF0F3;" d="M122.895,380.902c-25.969,25.969-68.223,25.969-94.192,0C2.73,354.927,2.73,312.673,28.698,286.704
		l18.56-18.561c-2.173-2.173-4.347-4.347-6.521-6.521c0.007-0.006,0.012-0.014,0.012-0.014l-18.574,18.574
		c-29.566,29.566-29.56,77.674,0.007,107.242c29.567,29.567,77.669,29.567,107.236,0l18.561-18.561
		c-2.175-2.174-4.347-4.346-6.522-6.522L122.895,380.902z"/>
	<path style="fill:#EBF0F3;" d="M280.183,22.176l-18.579,18.578c0,0,0.013-0.009,0.019-0.016c2.173,2.174,4.347,4.346,6.521,6.52
		l18.56-18.561c25.969-25.968,68.223-25.968,94.192,0c25.974,25.975,25.974,68.229,0.007,94.198l-18.56,18.561
		c2.175,2.175,4.347,4.347,6.522,6.523l18.561-18.561c29.567-29.568,29.56-77.676-0.006-107.243
		C357.851-7.392,309.749-7.392,280.183,22.176z"/>
</g>
<g>
	<path style="fill:#3EA69B;" d="M165.111,165.112c19.16-19.526,29.111-28.919,49.758-46.834
		c17.097-15.039,34.564-29.63,52.547-43.518c-19.191,12.681-37.777,26.152-55.481,40.586c-21.11,17.451-31.29,26.615-50.817,45.772
		c-19.154,19.531-28.315,29.713-45.77,50.825c-14.442,17.699-27.915,36.283-40.588,55.474
		c13.867-17.993,28.465-35.456,43.508-52.554C136.193,194.222,145.584,184.268,165.111,165.112z"/>
	<path style="fill:#3EA69B;" d="M193.988,193.988c19.158-19.525,28.844-29.182,48.427-48.163
		c16.21-15.927,32.342-31.849,48.558-47.51c-17.422,14.454-34.674,29.257-51.491,44.576c-20.046,18.518-29.963,27.945-49.487,47.102
		c-19.156,19.529-28.581,29.447-47.1,49.499c-15.33,16.814-30.134,34.07-44.584,51.484c15.644-16.22,31.571-32.354,47.502-48.566
		C164.803,222.833,174.458,213.142,193.988,193.988z"/>
	<path style="fill:#3EA69B;" d="M222.86,222.861c19.158-19.525,28.58-29.446,47.098-49.493
		c15.323-16.813,30.122-34.068,44.568-51.498c-15.651,16.225-31.572,32.358-47.5,48.567c-18.983,19.581-28.634,29.274-48.16,48.43
		c-19.154,19.531-28.845,29.184-48.429,48.171c-16.217,15.927-32.35,31.854-48.573,47.494
		c17.417-14.445,34.675-29.248,51.492-44.574C193.41,251.439,203.33,242.015,222.86,222.861z"/>
	<path style="fill:#3EA69B;" d="M294.566,197.977c-17.917,20.643-27.304,30.6-46.83,49.759
		c-19.156,19.529-29.112,28.916-49.755,46.841c-17.098,15.041-34.56,29.64-52.554,43.507c19.189-12.674,37.774-26.146,55.474-40.588
		c21.111-17.455,31.298-26.613,50.828-45.768c19.159-19.525,28.315-29.713,45.771-50.819c14.436-17.7,27.909-36.285,40.584-55.483
		C324.202,163.417,309.611,180.885,294.566,197.977z"/>
</g>
<g>
</g>
<g>
</g>
<g>
</g>
<g>
</g>
<g>
</g>
<g>
</g>
<g>
</g>
<g>
</g>
<g>
</g>
<g>
</g>
<g>
</g>
<g>
</g>
<g>
</g>
<g>
</g>
<g>
</g>
</svg>
