<svg height="512" viewBox="0 0 64 64" width="512" xmlns="http://www.w3.org/2000/svg"><g id="Filled_outline" data-name="Filled outline"><path d="m50 10-2-3h-16-16l-2 3-2 44 2 3h15l1-3 2-33 2 33 1 3h15l2-3z" fill="#50b4f8"/><path d="m16 3h32v4h-32z" fill="#394d5c"/><path d="m14 57h15v4h-15z" fill="#394d5c"/><path d="m35 57h15v4h-15z" fill="#394d5c" transform="matrix(-1 0 0 -1 85 118)"/><g fill="#2d75bb"><path d="m50 21h.5l-.5-11-2-3h-4v8a6 6 0 0 0 6 6z"/><path d="m13.5 21h.5a6 6 0 0 0 6-6v-8h-4l-2 3z"/><path d="m51.749 48.478-.213-4.685a30.116 30.116 0 0 1 -18.751-9.838l.346 5.708c4.385 5.426 13.676 7.865 18.618 8.815z"/><path d="m12.251 48.478c4.941-.95 14.233-3.389 18.618-8.815l.346-5.708a30.116 30.116 0 0 1 -18.751 9.838z"/></g><path d="m13 57.3v3.7a1 1 0 0 0 1 1h15a1 1 0 0 0 1-1v-3.837l.949-2.847a1.018 1.018 0 0 0 .051-.255l1-16.531 1 16.531a1.018 1.018 0 0 0 .049.255l.951 2.847v3.837a1 1 0 0 0 1 1h15a1 1 0 0 0 1-1v-3.7l1.832-2.748a1 1 0 0 0 .167-.6l-2-44a1 1 0 0 0 -.167-.51l-1.832-2.742v-3.7a1 1 0 0 0 -1-1h-32a1 1 0 0 0 -1 1v3.7l-1.832 2.745a1 1 0 0 0 -.167.51l-2 44a1 1 0 0 0 .167.6zm.425-12.643a30.916 30.916 0 0 0 16.629-8.08l-.162 2.679c-3.9 4.589-11.582 6.911-16.584 7.982zm15.585 9.152-.731 2.191h-13.744l-1.521-2.282.2-4.414c4.625-.95 11.829-2.989 16.495-7.025zm-1.01 6.191h-13v-2h13zm3-39.061-.764 12.606a29.025 29.025 0 0 1 -16.72 9.08l.939-20.648a7 7 0 0 0 6.545-6.977v-7h7v8a1 1 0 0 1 -1 1h-2v2h2a3 3 0 0 0 3-3v-8h4v11a3 3 0 0 0 3 3h2v-2h-2a1 1 0 0 1 -1-1v-11h7v7a7 7 0 0 0 6.543 6.977l.939 20.648a29.025 29.025 0 0 1 -16.72-9.08l-.762-12.606a1 1 0 0 0 -2 0zm19.986 32.779-1.521 2.282h-13.744l-.731-2.191-.7-11.53c4.666 4.036 11.87 6.075 16.5 7.025zm-16.878-14.46-.162-2.678a30.916 30.916 0 0 0 16.629 8.08l.117 2.581c-5.002-1.071-12.686-3.393-16.584-7.983zm14.892 20.742h-13v-2h13zm.451-40.055a4.99 4.99 0 0 1 -4.451-4.945v-7h2.465l1.549 2.323zm-32.451-15.945h30v2h-30zm-.465 4h2.465v7a4.99 4.99 0 0 1 -4.451 4.945l.437-9.622z"/></g></svg>