<svg height="512" viewBox="0 0 512 512" width="512" xmlns="http://www.w3.org/2000/svg"><g id="Fill_out_line" data-name="Fill out line"><rect fill="#37a6cb" height="464" rx="16" width="256" x="24" y="24"/><path d="m48 464v-416h80a24 24 0 0 0 24 24 24 24 0 0 0 24-24h80v416z" fill="#92d4ef"/><path d="m88 144h128v128h-128z" fill="#f6e4a2"/><path d="m184 144h32v128h-32z" fill="#f6c633"/><path d="m300 228h152v240h-152z" fill="#aacb2a" transform="matrix(0 -1 1 0 28 724)"/><path d="m292 308h32v40h-32z" fill="#f6c633" transform="matrix(0 -1 1 0 -20 636)"/><path d="m416 392-16-24h48l16 24z" fill="#ccdce8"/><path d="m80 312h144v48h-144z" fill="#6bc8e9"/><path d="m272 472a8.00917 8.00917 0 0 1 -8 8h-224a8.00917 8.00917 0 0 1 -8-8v-432a8.00917 8.00917 0 0 1 8-8h224a8.00917 8.00917 0 0 1 8 8v208h16v-208a24.0275 24.0275 0 0 0 -24-24h-224a24.0275 24.0275 0 0 0 -24 24v432a24.0275 24.0275 0 0 0 24 24h224a24.0275 24.0275 0 0 0 24-24v-24h-16z"/><path d="m264 248v-200a8.00008 8.00008 0 0 0 -8-8h-80a8.00008 8.00008 0 0 0 -8 8 16 16 0 0 1 -32 0 8.00008 8.00008 0 0 0 -8-8h-80a8.00008 8.00008 0 0 0 -8 8v416a8.00008 8.00008 0 0 0 8 8h208a8.00008 8.00008 0 0 0 8-8v-16h-16v8h-192v-400h65.01221a32.00507 32.00507 0 0 0 61.97558 0h65.01221v192z"/><circle cx="152" cy="48" r="8"/><path d="m168 96a32.04074 32.04074 0 0 0 -16.01453 4.29688 31.97531 31.97531 0 0 0 -47.98547 27.70312v8h-16a8.00008 8.00008 0 0 0 -8 8v128a8.00008 8.00008 0 0 0 8 8h128a8.00008 8.00008 0 0 0 8-8v-128a8.00008 8.00008 0 0 0 -8-8h-16v-8a32.03635 32.03635 0 0 0 -32-32zm16 32v8h-16v-8a31.7963 31.7963 0 0 0 -4.00757-15.48315 15.97665 15.97665 0 0 1 20.00757 15.48315zm-64 0a16 16 0 0 1 32 0v8h-32zm-24 24h8v16h16v-16h32v16h16v-16h8v112h-80zm112 112h-16v-112h16z"/><path d="m496 264h-240a8.00008 8.00008 0 0 0 -8 8v152a8.00008 8.00008 0 0 0 8 8h240a8.00008 8.00008 0 0 0 8-8v-152a8.00008 8.00008 0 0 0 -8-8zm-8 152h-224v-136h224z"/><path d="m288 352h40a8.00008 8.00008 0 0 0 8-8v-32a8.00008 8.00008 0 0 0 -8-8h-40a8.00008 8.00008 0 0 0 -8 8v32a8.00008 8.00008 0 0 0 8 8zm8-32h24v16h-24z"/><path d="m280 360h24v16h-24z"/><path d="m320 360h24v16h-24z"/><path d="m352 360h24v16h-24z"/><path d="m384 296h48v16h-48z"/><path d="m280 384h32v16h-32z"/><path d="m320 384h32v16h-32z"/><circle cx="456" cy="304" r="8"/><path d="m392.94678 364.22559a7.99889 7.99889 0 0 0 .397 8.21191l16 24a7.99943 7.99943 0 0 0 6.65622 3.5625h48a8.00016 8.00016 0 0 0 6.65625-12.4375l-16-24a7.99943 7.99943 0 0 0 -6.65625-3.5625h-48a7.99966 7.99966 0 0 0 -7.05322 4.22559zm50.77197 11.77441 5.333 8h-28.7705l-5.333-8z"/><path d="m72 312v48a8.00008 8.00008 0 0 0 8 8h144a8.00008 8.00008 0 0 0 8-8v-48a8.00008 8.00008 0 0 0 -8-8h-144a8.00008 8.00008 0 0 0 -8 8zm16 8h128v32h-128z"/><path d="m104 328h16v16h-16z"/><path d="m128 328h16v16h-16z"/><path d="m160 328h16v16h-16z"/><path d="m184 328h16v16h-16z"/></g></svg>