<svg height="512" viewBox="0 0 512 512" width="512" xmlns="http://www.w3.org/2000/svg"><g id="Filled_outline" data-name="Filled outline"><path d="m380.85 340.53a270.661 270.661 0 0 1 -17.17 94.86l-19.68 52.61h-176l-19.68-52.61q-2.655-7.08-4.89-14.28a270.724 270.724 0 0 1 27.88-222.49l28.69-46.62h112l28.69 46.62a271.306 271.306 0 0 1 39.61 124.62q.555 8.64.55 17.29z" fill="#2d7dbf"/><path d="m380.85 340.53a270.661 270.661 0 0 1 -17.17 94.86l-19.68 52.61h-176l-19.68-52.61q-2.655-7.08-4.89-14.28c80.5-36.76 157.48-97.3 213.82-191.12a270.317 270.317 0 0 1 23.05 93.25q.555 8.64.55 17.29z" fill="#2b78b8"/><path d="m152 48-48 48 24 24 40-40h64v-32z" fill="#283f61"/><path d="m192 112h128v40h-128z" fill="#34507b"/><path d="m256 24a40 40 0 0 1 40 40v48a0 0 0 0 1 0 0h-80a0 0 0 0 1 0 0v-48a40 40 0 0 1 40-40z" fill="#2e466c"/><path d="m336 296v46.31a190.5 190.5 0 0 1 -32 105.69h-96a190.3 190.3 0 0 1 -23.12-48.2c-.24-.76-.48-1.52-.71-2.28a190.5 190.5 0 0 1 -8.17-55.21v-46.31a80 80 0 1 1 160 0z" fill="#e0e0de"/><path d="m336 296v46.31a190.5 190.5 0 0 1 -32 105.69h-96a190.3 190.3 0 0 1 -23.12-48.2 473.2 473.2 0 0 0 146.43-130.84 79.7 79.7 0 0 1 4.69 27.04z" fill="#dbdbd9"/><ellipse cx="256" cy="284" fill="#4db7e5" rx="48" ry="36"/><path d="m208 344h96v16h-96z" fill="#bfbfbd"/><path d="m224 376h64v16h-64z" fill="#bfbfbd"/><path d="m388.284 322.725a279.739 279.739 0 0 0 -40.781-128.3l-22.348-36.316a7.981 7.981 0 0 0 2.845-6.109v-40a8 8 0 0 0 -8-8h-16v-40a47.983 47.983 0 0 0 -89.542-24h-62.458a8 8 0 0 0 -5.657 2.343l-48 48a8 8 0 0 0 0 11.314l24 24a8 8 0 0 0 11.314 0l37.657-37.657h36.686v16h-16a8 8 0 0 0 -8 8v40a8 8 0 0 0 8 8h115.53l26.346 42.813a263.7 263.7 0 0 1 38.44 120.933 261.048 261.048 0 0 1 -16.124 108.839l-17.74 47.415h-164.9l-17.74-47.415a261.048 261.048 0 0 1 -16.124-108.839 263.7 263.7 0 0 1 38.44-120.933l16.363-26.59-13.627-8.385-16.364 26.591a278.732 278.732 0 0 0 -23.674 243.763l19.681 52.608a8 8 0 0 0 7.493 5.2h176a8 8 0 0 0 7.493-5.2l19.684-52.612a276.957 276.957 0 0 0 17.107-115.463zm-220.284-250.725a8 8 0 0 0 -5.657 2.343l-34.343 34.344-12.686-12.687 40-40h53.365a48.168 48.168 0 0 0 -.679 8v8zm56-8a32 32 0 0 1 64 0v40h-64zm-24 56h112v24h-112z"/><path d="m168 342.312a197.907 197.907 0 0 0 33.344 110.126 8 8 0 0 0 6.656 3.562h96a8 8 0 0 0 6.656-3.562 197.907 197.907 0 0 0 33.344-110.126v-46.312a88 88 0 0 0 -176 0zm16-46.312a72 72 0 0 1 144 0v46.312a181.932 181.932 0 0 1 -28.34 97.688h-87.32a181.932 181.932 0 0 1 -28.34-97.688z"/><path d="m256 328c30.878 0 56-19.738 56-44s-25.122-44-56-44-56 19.738-56 44 25.122 44 56 44zm0-72c21.682 0 40 12.822 40 28s-18.318 28-40 28-40-12.822-40-28 18.318-28 40-28z"/><path d="m208 344h96v16h-96z"/><path d="m224 376h64v16h-64z"/></g></svg>