<?xml version="1.0" encoding="iso-8859-1"?>
<!-- Generator: Adobe Illustrator 19.0.0, SVG Export Plug-In . SVG Version: 6.00 Build 0)  -->
<svg version="1.1" id="Capa_1" xmlns="http://www.w3.org/2000/svg" xmlns:xlink="http://www.w3.org/1999/xlink" x="0px" y="0px"
	 viewBox="0 0 512.284 512.284" style="enable-background:new 0 0 512.284 512.284;" xml:space="preserve">
<g>
	<path style="fill:#4CAF50;" d="M192.139,298.758c1.216-22.408,4.436-44.662,9.621-66.496c8.334-34.291,12.27-69.504,11.712-104.789
		c-3.371-63.765-7.829-130.048-74.859-127.381c-41.408,0.149-117.141,60.864-117.141,160c-2.499,39.814,4.278,79.666,19.797,116.416
		c4.883,11.689,9.092,23.648,12.608,35.819c8.555,28.88,11.822,59.068,9.643,89.109c-0.942,12.444-0.735,24.949,0.619,37.355
		c5.099,37.248,30.72,73.301,70.4,73.301c1.643,0,3.285,0,4.971-0.192c22.274-1.3,43.137-11.326,58.069-27.904
		c11.49-13.01,17.223-30.118,15.893-47.424c-1.912-17.243-4.933-34.345-9.045-51.2C197.161,357.04,193.04,327.993,192.139,298.758z"
		/>
	<path style="fill:#4CAF50;" d="M373.665,0.092c-67.52-2.901-71.488,63.616-74.859,127.381
		c-0.574,35.32,3.355,70.569,11.691,104.896c5.186,21.798,8.413,44.016,9.643,66.389c-0.9,29.206-5.014,58.223-12.267,86.528
		c-4.123,16.882-7.151,34.013-9.067,51.285c-1.394,17.334,4.302,34.493,15.787,47.552c14.926,16.607,35.8,26.657,58.091,27.968
		c1.685,0.128,3.328,0.192,4.971,0.192c39.744,0,65.365-36.16,70.4-73.387c1.393-12.424,1.636-24.95,0.725-37.419
		c-2.18-30.041,1.087-60.23,9.643-89.109c3.516-12.17,7.725-24.129,12.608-35.819c15.519-36.765,22.288-76.632,19.776-116.459
		C490.806,60.956,415.073,0.241,373.665,0.092z"/>
</g>
<g>
	<path style="fill:#455A64;" d="M149.473,115.142V96.092c0-5.891-4.776-10.667-10.667-10.667s-10.667,4.776-10.667,10.667v18.837
		c-9.418,16.505-20.887,31.751-34.133,45.376c-32.341,37.013-72.533,82.987-72.533,138.453
		c-2.138,30.254,16.318,58.17,44.992,68.053c8.064,3.546,15.528,8.325,22.123,14.165c4.237,4.093,10.99,3.975,15.083-0.262
		c3.993-4.134,3.993-10.687,0-14.821c-8.145-7.47-17.446-13.572-27.541-18.069c-21.54-6.106-35.589-26.793-33.323-49.067
		c0-47.317,37.269-90.048,67.221-124.373c10.517-12.16,20.245-23.147,27.52-33.493c9.87,18.193,21.29,35.502,34.133,51.733
		c22.4,30.101,41.792,56.107,41.792,95.467c0.926,32.385-17.63,62.176-47.104,75.627c-5.418,2.313-7.935,8.58-5.622,13.998
		c2.313,5.418,8.58,7.935,13.998,5.622c0.168-0.072,0.335-0.148,0.499-0.228c36.917-17.085,60.274-54.346,59.563-95.019
		c0-46.4-23.467-77.803-46.101-108.16C172.673,160.268,159.468,138.461,149.473,115.142z"/>
	<path style="fill:#455A64;" d="M418.273,160.305c-13.249-13.638-24.718-28.899-34.133-45.419V96.092
		c0-5.891-4.776-10.667-10.667-10.667c-5.891,0-10.667,4.776-10.667,10.667v19.2c-10,23.296-23.205,45.082-39.232,64.725
		c-22.635,30.229-46.101,61.632-46.101,108.075c-0.72,40.68,22.638,77.952,59.563,95.04c5.292,2.589,11.68,0.397,14.269-4.895
		c2.589-5.292,0.397-11.68-4.895-14.269c-0.164-0.08-0.331-0.157-0.499-0.228c-29.482-13.453-48.039-43.255-47.104-75.648
		c0-39.317,19.392-65.323,41.877-95.403c12.843-16.232,24.263-33.54,34.133-51.733c7.381,10.347,17.067,21.333,27.52,33.429
		c29.867,34.261,67.136,76.992,67.136,124.373c2.264,22.28-11.795,42.969-33.344,49.067c-10.097,4.504-19.398,10.613-27.541,18.091
		c-4.093,4.237-3.976,10.99,0.261,15.083c4.134,3.993,10.688,3.993,14.821,0c6.595-5.841,14.058-10.62,22.123-14.165
		c28.691-9.878,47.159-37.807,45.013-68.075C490.806,243.292,450.614,197.318,418.273,160.305z"/>
</g>
<g>
</g>
<g>
</g>
<g>
</g>
<g>
</g>
<g>
</g>
<g>
</g>
<g>
</g>
<g>
</g>
<g>
</g>
<g>
</g>
<g>
</g>
<g>
</g>
<g>
</g>
<g>
</g>
<g>
</g>
</svg>
