<?xml version="1.0" encoding="iso-8859-1"?>
<!-- Generator: Adobe Illustrator 19.0.0, SVG Export Plug-In . SVG Version: 6.00 Build 0)  -->
<svg version="1.1" id="Capa_1" xmlns="http://www.w3.org/2000/svg" xmlns:xlink="http://www.w3.org/1999/xlink" x="0px" y="0px"
	 viewBox="0 0 481.28 481.28" style="enable-background:new 0 0 481.28 481.28;" xml:space="preserve">
<g>
	<g>
		<path d="M480.768,186.391c0,0,0-0.512-0.512-0.512c0-0.512-0.512-1.024-1.024-1.536v-0.512c-0.512-0.512-1.024-1.024-1.536-1.536
			c0,0,0,0-0.512,0c-0.512-0.512-1.024-0.512-1.536-1.024c0,0-0.512,0-0.512-0.512c-0.512,0-0.512-0.512-1.024-0.512l-153.6-51.2
			c-2.56-1.024-5.632-0.512-7.68,0.512l-51.2,25.6c-5.12,2.56-7.168,8.704-4.608,13.824s8.704,7.168,13.824,4.608l47.616-23.552
			l89.6,29.184H73.216l89.6-29.696l47.616,23.552c5.12,2.56,11.264,0.512,13.824-4.608s0.512-11.264-4.608-13.824l-51.2-25.6
			c-2.56-1.024-5.12-1.536-7.68-0.512l-153.6,51.2c-0.512,0-0.512,0.512-1.024,0.512c0,0-0.512,0-0.512,0.512
			c-0.512,0.512-1.024,0.512-1.536,1.024c0,0,0,0-0.512,0c-0.512,0.512-1.024,1.024-1.536,1.536v0.512
			c-0.512,0.512-0.512,1.024-1.024,1.536c0,0,0,0.512-0.512,0.512c0,0.512-0.512,1.024-0.512,1.536v0.512c0,0.512,0,1.024,0,1.536
			v0.512c0,0.512,0,1.536,0.512,2.048L46.08,328.727c5.12,14.848,18.432,24.576,33.792,24.576h91.136
			c15.36,0,29.184-9.728,33.792-24.576l17.408-52.224h36.352l17.92,52.224c5.12,14.848,18.432,24.576,33.792,24.576h91.136
			c15.36,0,29.184-9.728,33.792-24.576l45.568-136.192c0-0.512,0.512-1.536,0.512-2.048c0,0,0-0.512,0-0.512
			c0-0.512,0-1.024,0-1.536c0-0.512,0-0.512,0-0.512C481.28,187.415,481.28,186.903,480.768,186.391z M167.424,244.247l-76.8,76.8
			c-1.024,1.024-2.048,1.536-3.584,1.536c-1.536,0-2.56-0.512-3.584-1.536c-2.048-2.048-2.048-5.12,0-7.168l76.8-76.8
			c2.048-2.048,5.12-2.048,7.168,0C169.472,239.127,169.472,242.199,167.424,244.247z M83.456,262.679l25.6-25.6
			c2.048-2.048,5.12-2.048,7.168,0c2.048,2.048,2.048,5.12,0,7.168l-25.6,25.6c-1.024,1.024-2.048,1.536-3.584,1.536
			c-1.536,0-2.56-0.512-3.584-1.536C81.408,267.799,81.408,264.727,83.456,262.679z M330.24,284.183
			c-1.536,0-2.56-0.512-3.584-1.536c-2.048-2.048-2.048-5.12,0-7.168l38.4-38.4c2.048-2.048,5.12-2.048,7.168,0
			c2.048,2.048,2.048,5.12,0,7.168l-38.4,38.4C332.8,283.671,331.776,284.183,330.24,284.183z M423.424,244.247l-76.8,76.8
			c-1.024,1.024-2.048,1.536-3.584,1.536c-1.536,0-2.56-0.512-3.584-1.536c-2.048-2.048-2.048-5.12,0-7.168l76.8-76.8
			c2.048-2.048,5.12-2.048,7.168,0C425.472,239.127,425.472,242.199,423.424,244.247z M440.32,220.183H40.96
			c-3.072,0-5.12-2.048-5.12-5.12c0-3.072,2.048-5.12,5.12-5.12h399.36c3.072,0,5.12,2.048,5.12,5.12
			C445.44,218.135,443.392,220.183,440.32,220.183z"/>
	</g>
</g>
<g>
</g>
<g>
</g>
<g>
</g>
<g>
</g>
<g>
</g>
<g>
</g>
<g>
</g>
<g>
</g>
<g>
</g>
<g>
</g>
<g>
</g>
<g>
</g>
<g>
</g>
<g>
</g>
<g>
</g>
</svg>
