<svg id="Capa_1" enable-background="new 0 0 511.972 511.972" height="512" viewBox="0 0 511.972 511.972" width="512" xmlns="http://www.w3.org/2000/svg"><g><g><path d="m435.897 139.621c-119.94-9.454-239.881-9.454-359.821 0-17.907 1.411-32.214 15.414-34.151 33.272-10.527 97.08-10.527 194.161 0 291.241 1.937 17.858 16.243 31.861 34.151 33.272 119.94 9.454 239.881 9.454 359.821 0 17.907-1.411 32.214-15.414 34.151-33.272 10.527-97.08 10.527-194.161 0-291.241-1.937-17.858-16.244-31.86-34.151-33.272z" fill="#f7f9f9"/><path d="m83.889 497.999c-2.61-.188-5.211-.385-7.812-.592-17.905-1.408-32.215-15.417-34.149-33.276-10.526-97.076-10.526-194.162 0-291.239 1.934-17.858 16.243-31.858 34.149-33.276 2.601-.207 5.202-.404 7.812-.592-9.07 6.263-15.342 16.3-16.6 27.905-10.957 101.058-10.957 202.106 0 303.163 1.258 11.607 7.53 21.645 16.6 27.907z" fill="#dae4ea"/><path d="m470.042 172.892c2.02 17.879-17.499 45.218-47.888 72.786-2.63 2.39-5.35 4.79-8.15 7.18-11.34 9.7-23.909 19.329-37.248 28.479-7.61 5.22-15.459 10.27-23.479 15.099-31.658 19.079-65.877 34.578-97.295 41.848-30.858-7.14-64.397-22.209-95.585-40.818-21.459-12.809-41.798-27.289-59.377-42.018-.93-.78-1.85-1.55-2.75-2.33-2.9-2.47-5.72-4.95-8.45-7.43-30.389-27.569-49.908-54.917-47.898-72.796 5.673-32.199 19.569-48.048 52.647-77.026 1.12-.99 2.25-1.96 3.39-2.94 11.35-9.7 23.919-19.329 37.258-28.479 7.61-5.21 15.459-10.27 23.479-15.099 4.67-2.81 9.39-5.55 14.149-8.18 27.54-15.289 56.359-27.458 83.137-33.668 26.799 6.21 55.617 18.389 83.156 33.668 4.18 2.32 8.33 4.71 12.439 7.16 21.459 12.799 41.798 27.279 59.367 42.008.93.78 1.85 1.55 2.75 2.33 1.25 1.07 2.49 2.14 3.71 3.21 33.089 28.978 45.848 38.167 52.638 77.016z" fill="#dae4ea"/><g><path d="m436.918 231.419c-4.56 4.719-9.5 9.48-14.759 14.259-2.63 2.39-5.35 4.79-8.15 7.18-11.339 9.699-23.909 19.329-37.248 28.479-7.609 5.219-15.459 10.27-23.479 15.099-27.019 16.279-55.897 29.958-83.316 38.128-4.71 1.41-9.369 2.65-13.979 3.72-8.5-1.97-17.189-4.53-25.988-7.609-23.149-8.1-46.978-19.709-69.567-33.188-.01-.01-.02-.01-.03-.02-9.48-5.66-18.739-11.649-27.649-17.839-11.24-7.81-21.919-15.959-31.729-24.179-.74-.62-1.48-1.24-2.2-1.86-.19-.15-.37-.31-.55-.47-2.9-2.47-5.72-4.949-8.45-7.429-5.27-4.78-10.209-9.56-14.769-14.28 0-.16.01-.32.01-.48.09-4.81.26-9.62.48-14.419.22-5.05.51-10.1.88-15.149h359.122c.36 5.05.66 10.099.88 15.149.22 4.8.39 9.609.48 14.419.001.159.011.329.011.489z" fill="#5aa687"/><path d="m432.068 236.319c-3.15 3.1-6.46 6.23-9.909 9.359-2.63 2.39-5.35 4.79-8.15 7.18-5.72 4.889-11.759 9.77-18.049 14.579-93.315 5.21-186.62 5.21-279.936 0-5.18-3.96-10.199-7.97-14.999-11.99-.74-.62-1.48-1.24-2.2-1.86-.19-.15-.37-.31-.55-.47-2.9-2.47-5.72-4.949-8.45-7.429-3.45-3.13-6.77-6.27-9.919-9.38-5.33-41.398-6.39-82.796-3.18-124.193 1.13-14.709 2.8-29.418 5.02-44.128 1.4-9.32 9.16-16.389 18.569-16.98 20.229-1.25 40.448-2.26 60.677-3.019 63.337-2.4 126.674-2.4 190.01 0 20.219.76 40.438 1.769 60.657 3.019 9.409.59 17.159 7.66 18.569 16.98 2.19 14.509 3.85 29.018 4.97 43.528 3.27 41.598 2.23 83.206-3.13 124.804z" fill="#5aa687"/><path d="m137.626 244.271c0-18.784-15.227-34.011-34.011-34.011-1.344 0-2.667.087-3.97.238-3.047-34.434-3.047-69.036 0-103.469 1.303.152 2.626.238 3.97.238 18.784 0 34.011-15.227 34.011-34.011 0-.615-.018-1.226-.051-1.834 39.462-1.874 79.146-2.834 118.411-2.834 37.92 0 76.234.884 114.359 2.633-.04.674-.066 1.351-.066 2.035 0 18.784 15.227 34.011 34.011 34.011 2.748 0 5.416-.334 7.976-.95 3.132 34.906 3.132 69.987 0 104.893-2.559-.615-5.228-.95-7.976-.95-18.784 0-34.011 15.227-34.011 34.011 0 .684.026 1.361.066 2.035-38.125 1.749-76.439 2.633-114.359 2.633-39.265 0-78.949-.959-118.411-2.834.033-.608.051-1.219.051-1.834z" fill="#78c2a4"/><g fill="#5aa687"><ellipse cx="255.987" cy="158.763" rx="71.22" ry="64.29"/><g><circle cx="146.772" cy="158.763" r="17.58"/><circle cx="365.203" cy="158.763" r="17.58"/></g></g></g></g><g><path d="m205.892 382.026c-4.566 0-6.456-1.721-9.888-4.844-4.058-3.693-9.615-8.751-19.985-8.751s-15.927 5.058-19.984 8.751c-3.432 3.124-5.321 4.844-9.887 4.844-4.563 0-6.451-1.72-9.881-4.843-4.057-3.694-9.612-8.752-19.98-8.752-4.143 0-7.5 3.358-7.5 7.5s3.357 7.5 7.5 7.5c4.563 0 6.451 1.72 9.881 4.843 4.057 3.694 9.612 8.752 19.98 8.752 10.37 0 15.927-5.058 19.984-8.751 3.432-3.124 5.321-4.844 9.887-4.844s6.456 1.721 9.888 4.844c4.058 3.693 9.615 8.751 19.985 8.751 4.143 0 7.5-3.358 7.5-7.5s-3.357-7.5-7.5-7.5z"/><path d="m205.892 412.151c-4.566 0-6.456-1.721-9.888-4.844-4.058-3.693-9.615-8.751-19.985-8.751s-15.927 5.058-19.984 8.751c-3.432 3.124-5.321 4.844-9.887 4.844-4.563 0-6.451-1.72-9.881-4.843-4.057-3.694-9.612-8.752-19.98-8.752-4.143 0-7.5 3.358-7.5 7.5s3.357 7.5 7.5 7.5c4.563 0 6.451 1.72 9.881 4.843 4.057 3.694 9.612 8.752 19.98 8.752 10.37 0 15.927-5.058 19.984-8.751 3.432-3.124 5.321-4.844 9.887-4.844s6.456 1.721 9.888 4.844c4.058 3.693 9.615 8.751 19.985 8.751 4.143 0 7.5-3.358 7.5-7.5s-3.357-7.5-7.5-7.5z"/><path d="m205.892 442.277c-4.566 0-6.456-1.721-9.888-4.844-4.058-3.693-9.615-8.751-19.985-8.751s-15.927 5.058-19.984 8.751c-3.432 3.124-5.321 4.844-9.887 4.844-4.563 0-6.451-1.72-9.881-4.843-4.057-3.694-9.612-8.752-19.98-8.752-4.143 0-7.5 3.358-7.5 7.5s3.357 7.5 7.5 7.5c4.563 0 6.451 1.72 9.881 4.843 4.057 3.694 9.612 8.752 19.98 8.752 10.37 0 15.927-5.058 19.984-8.751 3.432-3.124 5.321-4.844 9.887-4.844s6.456 1.721 9.888 4.844c4.058 3.693 9.615 8.751 19.985 8.751 4.143 0 7.5-3.358 7.5-7.5s-3.357-7.5-7.5-7.5z"/><path d="m416.645 100.232c-1.767-1.272-4-1.715-6.119-1.208-2.076.495-4.173.746-6.231.746-14.617 0-26.51-11.893-26.51-26.51 0-.539.016-1.069.047-1.592.12-2.003-.568-3.971-1.91-5.463-1.343-1.492-3.228-2.384-5.232-2.476-38.134-1.75-76.726-2.638-114.704-2.638-21.787 0-44.073.3-66.24.893-4.141.111-7.408 3.557-7.297 7.698.11 4.142 3.57 7.397 7.697 7.297 22.034-.589 44.186-.888 65.84-.888 35.462 0 71.461.778 107.117 2.315 2.542 20.47 20.046 36.365 41.192 36.365.381 0 .763-.005 1.144-.016 2.224 29.238 2.224 58.776 0 88.021-.381-.01-.763-.016-1.144-.016-21.146 0-38.65 15.894-41.192 36.364-35.848 1.538-71.847 2.316-107.117 2.316-36.647 0-74.021-.845-111.203-2.515-2.507-19.423-18.491-34.682-38.241-36.063-2.234-29.3-2.234-58.901 0-88.194 19.752-1.382 35.738-16.646 38.243-36.073 5.046-.225 10.234-.44 15.699-.65 4.139-.159 7.365-3.644 7.206-7.783-.159-4.138-3.607-7.34-7.782-7.207-8.012.308-15.434.626-22.69.973-1.989.095-3.858.977-5.196 2.452-1.339 1.475-2.035 3.422-1.937 5.411.024.486.041.973.041 1.468 0 14.618-11.893 26.51-26.51 26.51-.97 0-2.015-.064-3.107-.19-2.017-.233-4.031.357-5.6 1.636-1.569 1.278-2.555 3.137-2.733 5.153-3.079 34.763-3.079 70.021 0 104.793.179 2.016 1.164 3.874 2.732 5.152s3.581 1.87 5.598 1.637c1.098-.126 2.145-.191 3.11-.191 14.617 0 26.51 11.893 26.51 26.51 0 .492-.017.976-.04 1.452-.101 1.99.595 3.938 1.934 5.415 1.338 1.477 3.209 2.359 5.2 2.455 39.672 1.89 79.631 2.848 118.767 2.848 37.761 0 76.353-.888 114.702-2.638 2.004-.091 3.889-.982 5.231-2.473s2.031-3.458 1.914-5.46c-.031-.533-.048-1.066-.048-1.599 0-14.618 11.893-26.51 26.51-26.51 2.092 0 4.18.249 6.205.739 2.121.514 4.36.079 6.135-1.193 1.774-1.271 2.906-3.252 3.101-5.426 3.16-35.25 3.16-70.99 0-106.23-.197-2.168-1.324-4.145-3.092-5.417z"/><path d="m334.707 158.763c0-39.585-35.313-71.79-78.72-71.79s-78.72 32.205-78.72 71.79 35.313 71.79 78.72 71.79 78.72-32.205 78.72-71.79zm-142.439 0c0-31.314 28.585-56.79 63.72-56.79s63.72 25.476 63.72 56.79-28.585 56.79-63.72 56.79-63.72-25.476-63.72-56.79z"/><path d="m146.772 133.684c-13.829 0-25.08 11.25-25.08 25.08s11.251 25.08 25.08 25.08 25.08-11.251 25.08-25.08-11.251-25.08-25.08-25.08zm0 35.159c-5.559 0-10.08-4.522-10.08-10.08s4.521-10.08 10.08-10.08 10.08 4.521 10.08 10.08-4.521 10.08-10.08 10.08z"/><path d="m390.283 158.763c0-13.829-11.25-25.08-25.079-25.08s-25.08 11.25-25.08 25.08 11.251 25.08 25.08 25.08 25.079-11.251 25.079-25.08zm-35.16 0c0-5.558 4.521-10.08 10.08-10.08 5.558 0 10.079 4.521 10.079 10.08s-4.521 10.08-10.079 10.08-10.08-4.522-10.08-10.08z"/><path d="m263.011 198.593v-2.395c12.044-2.763 19.378-11.884 20.636-20.884 1.545-11.051-5.434-20.515-17.778-24.109-7.089-2.063-14.931-4.558-19.353-7.414-.969-.626-1.347-1.631-1.12-2.987.327-1.96 2-4.383 5.716-5.305 8.901-2.209 14.737 1.524 15.375 1.958 3.423 2.333 8.088 1.448 10.421-1.975 2.332-3.423 1.448-8.089-1.976-10.421-1.621-1.104-5.805-3.57-11.921-4.691v-1.436c0-4.142-3.357-7.5-7.5-7.5s-7.5 3.358-7.5 7.5v1.897c-.173.041-.338.066-.512.109-8.871 2.201-15.504 9.029-16.899 17.397-1.21 7.256 1.771 14.173 7.777 18.054 4.872 3.147 11.622 5.817 23.298 9.216 2.937.855 7.766 2.983 7.116 7.629-.593 4.237-5.463 8.764-13.322 8.807-7.71.039-10.321-.297-16.286-3.511-3.649-1.966-8.195-.603-10.16 3.045-1.965 3.646-.602 8.195 3.045 10.16 6.25 3.367 10.723 4.636 15.943 5.083v1.772c0 4.142 3.357 7.5 7.5 7.5s7.5-3.357 7.5-7.499z"/><path d="m477.511 172.082c-.03-.273-.078-.544-.137-.814-5.545-31.366-14.998-44.946-34.956-63.309-1.119-13.616-2.709-27.419-4.774-41.094-1.924-12.72-12.654-22.537-25.521-23.344-19.678-1.216-39.496-2.206-58.948-2.952-3.486-2.053-6.975-4.062-10.393-5.959-29.759-16.51-59.187-28.412-85.102-34.417-1.115-.258-2.272-.258-3.388 0-25.94 6.015-55.361 17.917-85.069 34.411-3.428 1.895-6.921 3.906-10.406 5.965-19.434.746-39.257 1.734-58.972 2.953-12.873.808-23.604 10.628-25.515 23.346-2.088 13.838-3.7 27.894-4.836 41.828-21.288 21.015-30.522 37.741-34.952 62.896-.026.153-.049.308-.066.463v.004c-.001.009-.005.014-.006.023-10.539 97.166-10.539 195.701 0 292.868 2.329 21.453 19.579 38.249 41.017 39.938 59.904 4.721 120.308 7.085 180.656 7.085 44.771 0 89.511-1.301 133.991-3.905 4.135-.242 7.291-3.791 7.049-7.926-.241-4.135-3.772-7.289-7.926-7.049-103.757 6.074-208.927 5.011-312.593-3.16-14.194-1.118-25.628-12.215-27.258-26.417-.001-.015 0-.03-.002-.045-2.147-24.53 24.971-68.929 69.087-113.111 2.927-2.931 2.923-7.68-.008-10.606-2.932-2.927-7.68-2.924-10.607.008-23.961 23.998-48.516 54.123-62.331 81.855-5.466-71.111-5.274-142.741.596-213.813 7.9 12.227 18.608 24.096 28.496 33.843 3.229 3.188 42.461 39.181 81.922 62.26 34.33 20.078 67.95 34.792 97.737 41.685.556.128 1.123.193 1.69.193s1.135-.064 1.69-.193c30.339-7.02 64.622-21.988 99.475-42.73 21.656-12.889 50.061-34.32 61.727-44.298 2.775-2.369 15.316-13.804 18.457-16.904 9.889-9.753 20.597-21.625 28.497-33.851 5.864 71.072 6.06 142.703.599 213.812-13.814-27.733-38.37-57.859-62.332-81.858-2.928-2.933-7.676-2.934-10.607-.008-2.931 2.927-2.935 7.675-.008 10.606 44.117 44.182 71.235 88.581 69.087 113.111-.003.035-.001.07-.004.105-1.657 14.174-13.081 25.241-27.263 26.358-5.918.467-11.231.865-16.242 1.214-4.132.289-7.248 3.872-6.959 8.004.275 3.955 3.569 6.978 7.474 6.978.176 0 .353-.006.53-.019 5.057-.353 10.414-.754 16.377-1.225 21.442-1.688 38.696-18.484 41.027-39.939 10.528-97.166 10.528-195.7 0-292.866zm-221.523-156.875c19.666 4.734 41.506 13.049 63.993 24.323-42.574-1.078-85.405-1.078-127.977 0 22.464-11.268 44.301-19.582 63.984-24.323zm-206.629 158.735c2.974-16.723 8.045-28.576 18.645-41.542-1.175 27.351-.516 54.868 1.979 82.227-14.043-16.689-21.548-31.253-20.624-40.685zm206.628 156.636c-18.531-4.451-38.742-11.991-59.659-22.173 19.846.469 39.744.728 59.648.728 19.914 0 39.821-.259 59.675-.729-20.904 10.179-41.106 17.717-59.664 22.174zm93.425-40.566c-1.424.858-2.846 1.691-4.268 2.528-59.169 2.113-119.135 2.113-178.314.001-.861-.506-1.721-1-2.583-1.515-7.852-4.688-15.637-9.659-23.236-14.828 38.209 1.742 76.594 2.628 114.982 2.628 38.387 0 76.77-.886 114.977-2.627-7.004 4.76-14.241 9.406-21.558 13.813zm43.814-29.942c-91.082 4.999-183.396 4.999-274.476 0-4.429-3.419-29.193-24.836-31.719-27.287-4.957-39.866-5.916-80.253-2.827-120.093 1.114-14.502 2.782-29.166 4.959-43.588.868-5.779 5.756-10.24 11.615-10.607 20.2-1.249 40.529-2.261 60.421-3.009.025 0 .052-.001.077-.002 62.854-2.382 126.593-2.381 189.444 0 19.937.75 40.284 1.763 60.47 3.011 5.86.367 10.748 4.832 11.622 10.613 2.16 14.311 3.812 28.772 4.909 42.996 3.148 40.052 2.206 80.641-2.777 120.689-2.469 2.392-26.225 23.033-31.718 27.277zm48.767-45.442c2.548-27.921 3.179-56.013 1.899-83.932 10.156 11.595 15.128 22.855 18.724 43.243.931 9.423-6.574 23.989-20.623 40.689z"/></g></g></svg>