<svg id="Capa_1" enable-background="new 0 0 512 512" height="512" viewBox="0 0 512 512" width="512" xmlns="http://www.w3.org/2000/svg"><g><path d="m461.645 164.351c-3.839 0-7.678-1.464-10.606-4.394l-21.213-21.213c-5.858-5.858-5.858-15.355 0-21.213 5.857-5.858 15.355-5.858 21.213 0l21.213 21.213c5.858 5.858 5.858 15.355 0 21.213-2.93 2.929-6.768 4.394-10.607 4.394z" fill="#4f2e26"/><path d="m497 128.995c-3.839 0-7.678-1.464-10.606-4.394l-21.213-21.213c-5.858-5.858-5.858-15.355 0-21.213 5.857-5.858 15.355-5.858 21.213 0l21.213 21.213c5.858 5.858 5.858 15.355 0 21.213-2.929 2.93-6.768 4.394-10.607 4.394z" fill="#4f2e26"/><g fill="#734536"><path d="m383.863 86.569c-3.839 0-7.678-1.464-10.606-4.394l-21.213-21.213c-5.858-5.858-5.858-15.355 0-21.213 5.857-5.858 15.355-5.858 21.213 0l21.213 21.213c5.858 5.858 5.858 15.355 0 21.213-2.929 2.93-6.768 4.394-10.607 4.394z"/><path d="m419.218 51.214c-3.839 0-7.678-1.464-10.606-4.394l-21.213-21.213c-5.858-5.858-5.858-15.355 0-21.213 5.857-5.858 15.355-5.858 21.213 0l21.213 21.213c5.858 5.858 5.858 15.355 0 21.213-2.929 2.929-6.768 4.394-10.607 4.394z"/><path d="m251.045 204.387 115.14-115.14c5.858-5.858 15.355-5.858 21.213 0l35.355 35.355c5.858 5.858 5.858 15.355 0 21.213l-115.14 115.14c-5.858 5.858-15.355 5.858-21.213 0l-35.355-35.355c-5.858-5.858-5.858-15.355 0-21.213z"/></g><path d="m286.4 260.955c5.858 5.858 15.355 5.858 21.213 0l115.14-115.14c5.858-5.858 5.858-15.355 0-21.213l-17.677-17.677-136.353 136.353z" fill="#4f2e26"/><path d="m422.754 160.815c-3.839 0-7.678-1.464-10.606-4.394l-56.568-56.568c-5.858-5.858-5.858-15.355 0-21.213l70.71-70.711c5.857-5.858 15.355-5.858 21.213 0l56.568 56.568c5.858 5.858 5.858 15.355 0 21.213l-70.711 70.711c-2.929 2.93-6.768 4.394-10.606 4.394z" fill="#9d5e4a"/><path d="m412.147 156.422c2.929 2.929 6.768 4.394 10.606 4.394s7.678-1.464 10.606-4.394l70.711-70.711c5.858-5.858 5.858-15.355 0-21.213l-28.284-28.284-91.924 91.924z" fill="#734536"/><path d="m181.505 512c-19.796 0-41.525-5.197-63.496-15.694-18.944-9.049-36.457-21.545-52.051-37.141l-13.123-13.123c-15.595-15.595-28.091-33.107-37.141-52.052-23.309-48.79-20.489-96.399 7.361-124.249 19.826-19.826 49.54-27.21 83.67-20.798 4.271.802 8.713-.278 12.184-2.966 3.433-2.659 5.481-6.461 5.766-10.707 1.165-17.338 7.592-32.314 18.588-43.31 16.976-16.977 42.418-22.749 71.642-16.255 26.79 5.953 54.083 21.771 76.85 44.539 22.769 22.768 38.586 50.061 44.539 76.85 6.494 29.223.722 54.667-16.255 71.642-10.996 10.996-25.972 17.424-43.311 18.588-4.245.285-8.047 2.333-10.706 5.766-2.688 3.471-3.77 7.912-2.966 12.184 6.414 34.129-.973 63.844-20.798 83.67-15.309 15.31-36.59 23.056-60.753 23.056z" fill="#ff9d21"/><path d="m65.957 459.166c15.595 15.595 33.107 28.091 52.051 37.141 21.971 10.497 43.7 15.694 63.496 15.694 24.164 0 45.445-7.746 60.754-23.055 19.825-19.826 27.211-49.541 20.798-83.67-.803-4.272.278-8.713 2.966-12.184 2.659-3.433 6.461-5.481 10.706-5.766 17.338-1.165 32.315-7.592 43.311-18.588 16.977-16.976 22.749-42.419 16.255-71.642-5.953-26.79-21.771-54.083-44.539-76.85l-232.359 232.358z" fill="#ff7038"/><path d="m146.842 430.158c-3.839 0-7.678-1.464-10.606-4.394l-50-50c-5.858-5.858-5.858-15.355 0-21.213 5.857-5.858 15.355-5.858 21.213 0l50 50c5.858 5.858 5.858 15.355 0 21.213-2.929 2.93-6.768 4.394-10.607 4.394z" fill="#9d5e4a"/><path d="m210.482 356.518c-14.691 0-28.503-5.721-38.891-16.109s-16.109-24.199-16.109-38.891c0-14.691 5.721-28.502 16.109-38.891 10.388-10.388 24.199-16.109 38.891-16.109 14.691 0 28.502 5.721 38.891 16.109s16.109 24.2 16.109 38.891-5.721 28.503-16.109 38.891c-10.388 10.388-24.2 16.109-38.891 16.109z" fill="#9d5e4a"/><path d="m210.482 356.518c14.691 0 28.502-5.721 38.891-16.109 10.388-10.388 16.109-24.2 16.109-38.891s-5.721-28.502-16.109-38.891l-77.781 77.781c10.387 10.389 24.199 16.11 38.89 16.11z" fill="#734536"/><path d="m136.236 425.764c2.929 2.929 6.768 4.394 10.606 4.394s7.678-1.464 10.606-4.394c5.858-5.858 5.858-15.355 0-21.213l-25-25-21.213 21.213z" fill="#734536"/></g></svg>