<svg height="512" viewBox="0 0 41 58" width="512" xmlns="http://www.w3.org/2000/svg"><g id="Page-1" fill="none" fill-rule="evenodd"><g id="096---Coffee-Beans" fill-rule="nonzero"><path id="Shape" d="m40.7 15.51-4.7-7.51v-8h-31l-1.28 2.55c-.15677968.31110936-.14034678.68138927.0433761.97738725s.508252.47504575.8566239.47261275h.38v4l-4.7 7.51c-.09024426.1538943-.16079671.3185167-.21.49-.05909276.184251-.08944876.3765056-.09.57v39.43c.0032948 1.1032019.89679813 1.9967052 2 2h37c1.1032019-.0032948 1.9967052-.8967981 2-2v-39.43c-.0038896-.3737344-.1074532-.7396591-.3-1.06z" fill="#a59078"/><path id="Shape" d="m9 55h-5c-.55228475 0-1-.4477153-1-1v-5c0-.5522847.44771525-1 1-1s1 .4477153 1 1v4h4c.55228475 0 1 .4477153 1 1s-.44771525 1-1 1z" fill="#cbb292"/><path id="Shape" d="m41 16.57v39.43c-.0032948 1.1032019-.8967981 1.9967052-2 2h-8v-41.43c.0038896-.3737344.1074532-.7396591.3-1.06l4.7-7.51 4.7 7.51c.1925468.3203409.2961104.6862656.3 1.06z" fill="#7f6e5d"/><path id="Shape" d="m36 8-4.7 7.51c-.1925468.3203409-.2961104.6862656-.3 1.06v-.57h-30.91c.04920329-.1714833.11975574-.3361057.21-.49l4.7-7.51z" fill="#cbb292"/><path id="Shape" d="m36 0v8h-31v-4h28.38c.3801569.00264567.7289345-.2104962.9-.55z" fill="#7f6e5d"/><path id="Shape" d="m36 0-1.72 3.45c-.1710655.3395038-.5198431.55264567-.9.55h-28.76c-.3483719.002433-.67290102-.17661477-.8566239-.47261275s-.20015578-.66627789-.0433761-.97738725l1.28-2.55z" fill="#cbb292"/><path id="Shape" d="m36 51c-.5522847 0-1-.4477153-1-1v-32c0-.5522847.4477153-1 1-1s1 .4477153 1 1v32c0 .5522847-.4477153 1-1 1z" fill="#5f5346"/><path id="Shape" d="m23.95 29.95h-.01c-2.49 2.37-4.37.57-6.85 3.05-2.54 2.53-.64 4.42-3.18 6.95-2.48 2.48-4.36.68-6.85 3.05-.18162946-.291422-.34204406-.5955414-.48-.91-1.41-3.28-.22-7.88 3.23-11.3 4.19-4.19 10.14-5.03 13.29-1.9.0855126.0849445.1656669.1751181.24.27.2288864.2425741.4332147.5071959.61.79z" fill="#cf976a"/><path id="Shape" d="m21.19 42.15c-4.19 4.19-10.14 5.04-13.29 1.9-.08-.08-.16-.17-.24-.26-.22195883-.2459101-.42267712-.5101892-.6-.79 2.49-2.37 4.37-.57 6.85-3.05 2.54-2.53.64-4.42 3.18-6.95 2.48-2.48 4.36-.68 6.85-3.05h.01c.1822327.2894312.3394683.5938661.47.91 1.41 3.28.21 7.87-3.23 11.29z" fill="#cb8252"/><path id="Shape" d="m24.42 30.86c-1.0359874.9128962-2.3427466 1.460892-3.72 1.56-2.2677134.1245463-4.0800611 1.9325892-4.21 4.2-.2502272 3.1472728-2.7523073 5.6451121-5.9 5.89-1.06130483.048983-2.06947686.4785211-2.84 1.21-.0274939.0263883-.05765593.0498476-.09.07-.22195883-.2459101-.42267712-.5101892-.6-.79-.18162946-.291422-.34204406-.5955414-.48-.91 1.03598741-.9128962 2.34274659-1.460892 3.72-1.56 2.2677134-.1245463 4.0800611-1.9325892 4.21-4.2.2502272-3.1472728 2.7523073-5.6451121 5.9-5.89 1.0613048-.048983 2.0694769-.4785211 2.84-1.21.0274939-.0263883.0576559-.0498476.09-.07.2288864.2425741.4332147.5071959.61.79.1822327.2894312.3394683.5938661.47.91z" fill="#a56a43"/><path id="Shape" d="m12.822 46.931c-2.0914247.0592864-4.11908539-.7236039-5.628-2.173-.093-.094-.187-.2-.28-.3-.2584499-.2842264-.49260405-.5896303-.7-.913-.21104028-.3368125-.39688052-.6887725-.556-1.053-1.623-3.774-.238-8.76 3.442-12.409 4.565-4.564 11.16-5.418 14.7-1.9.1027224.1017207.1995469.2092293.29.322.2612206.2790277.4955883.5820316.7.905.2136929.3395024.3983483.696436.552 1.067 1.61 3.756.225 8.733-3.447 12.384-2.3775253 2.4884059-5.6335021 3.9489841-9.073 4.07zm5.343-18.941c-2.9080304.1340109-5.6502608 1.3925397-7.648 3.51-3.057 3.031-4.3 7.224-3.018 10.2.11768389.2695442.25470798.5302242.41.78.14526667.2266306.30881096.4410107.489.641.076.085.142.16.209.228 2.752 2.745 8.081 1.893 11.876-1.9 3.053-3.035 4.293-7.223 3.018-10.187l-.008-.02c-.1090386-.2635973-.2401725-.5175019-.392-.759-.1394748-.2232306-.3009465-.4319379-.482-.623-.0233523-.0248249-.0453827-.0508609-.066-.078-.0499239-.0626287-.1033422-.1223904-.16-.179-1.136875-1.0815099-2.6596562-1.6624574-4.228-1.613z" fill="#7f6e5d"/></g></g></svg>