<svg id="Capa_1" enable-background="new 0 0 510 510" height="512" viewBox="0 0 510 510" width="512" xmlns="http://www.w3.org/2000/svg" xmlns:xlink="http://www.w3.org/1999/xlink"><linearGradient id="lg1"><stop offset="0" stop-color="#ffd945"/><stop offset=".3043" stop-color="#ffcd3e"/><stop offset=".8558" stop-color="#ffad2b"/><stop offset="1" stop-color="#ffa325"/></linearGradient><linearGradient id="SVGID_1_" gradientTransform="matrix(.707 .707 -.707 .707 229.398 -997.676)" gradientUnits="userSpaceOnUse" x1="823.144" x2="937.028" xlink:href="#lg1" y1="1013.137" y2="1013.137"/><linearGradient id="lg2"><stop offset="0" stop-color="#f82814" stop-opacity="0"/><stop offset="1" stop-color="#c0272d"/></linearGradient><linearGradient id="SVGID_2_" gradientTransform="matrix(.707 .707 -.707 .707 229.398 -997.676)" gradientUnits="userSpaceOnUse" x1="913.179" x2="883.214" xlink:href="#lg2" y1="1000.37" y2="753.438"/><linearGradient id="SVGID_3_" gradientTransform="matrix(.707 .707 -.707 .707 229.398 -997.676)" gradientUnits="userSpaceOnUse" x1="884.99" x2="646.948" xlink:href="#lg2" y1="942.182" y2="687.493"/><linearGradient id="SVGID_4_" gradientTransform="matrix(.707 .707 -.707 .707 229.398 -997.676)" gradientUnits="userSpaceOnUse" x1="918.112" x2="551.894" xlink:href="#lg2" y1="1043.919" y2="661.054"/><linearGradient id="SVGID_5_" gradientTransform="matrix(.707 .707 -.707 .707 229.398 -997.676)" gradientUnits="userSpaceOnUse" x1="902.646" x2="804.983" xlink:href="#lg2" y1="1101.708" y2="981.109"/><linearGradient id="SVGID_6_" gradientTransform="matrix(-.707 -.707 -.707 .707 2113.166 886.092)" gradientUnits="userSpaceOnUse" x1="1760.694" x2="1522.652" xlink:href="#lg2" y1="942.182" y2="687.493"/><linearGradient id="SVGID_7_" gradientTransform="matrix(-.707 -.707 -.707 .707 2113.166 886.092)" gradientUnits="userSpaceOnUse" x1="1793.816" x2="1427.597" xlink:href="#lg2" y1="1043.919" y2="661.054"/><linearGradient id="SVGID_8_" gradientTransform="matrix(-.707 -.707 -.707 .707 2113.166 886.092)" gradientUnits="userSpaceOnUse" x1="1778.35" x2="1680.687" xlink:href="#lg2" y1="1101.708" y2="981.109"/><linearGradient id="SVGID_9_" gradientTransform="matrix(.707 .707 -.707 .707 229.398 -997.676)" gradientUnits="userSpaceOnUse" x1="894.172" x2="894.172" xlink:href="#lg1" y1="868.624" y2="913.186"/><radialGradient id="SVGID_10_" cx="805.565" cy="669.039" gradientTransform="matrix(.707 .707 -.707 .707 229.398 -997.676)" gradientUnits="userSpaceOnUse" r="271.47"><stop offset="0" stop-color="#faa68e"/><stop offset=".3527" stop-color="#faa38f"/><stop offset=".651" stop-color="#fc9893"/><stop offset=".9287" stop-color="#fe879a"/><stop offset="1" stop-color="#ff819c"/></radialGradient><linearGradient id="SVGID_11_" gradientTransform="matrix(.707 .707 -.707 .707 229.398 -997.676)" gradientUnits="userSpaceOnUse" x1="893.437" x2="614.875" xlink:href="#lg2" y1="732.379" y2="1127.471"/><linearGradient id="SVGID_12_" gradientTransform="matrix(.707 .707 -.707 .707 229.398 -997.676)" gradientUnits="userSpaceOnUse" x1="890.56" x2="589.802" xlink:href="#lg2" y1="663.702" y2="928.946"/><g><g><path d="m183.719 433.919c-101.17 44.351-174.476 68.711-182.276 60.911s16.56-81.106 60.911-182.276c44.351-101.169 99.58-184.21 99.58-184.21 10.187-10.187 61.243 12.883 127.177 78.817s89.004 116.99 78.817 127.177c0 .001-83.04 55.229-184.209 99.581z" fill="url(#SVGID_1_)"/><path d="m367.931 334.34s-83.043 55.231-184.213 99.585c-17.531 7.691-34.239 14.777-49.903 21.196l.008-281.248c16.66-28.322 28.11-45.531 28.11-45.531 10.186-10.186 61.242 12.886 127.177 78.821s89.007 116.991 78.821 127.177z" fill="url(#SVGID_2_)"/><g><path d="m367.931 334.34s-83.043 55.231-184.213 99.585c-29.899 13.105-57.366 24.469-81.418 33.768-57.358 22.169-95.364 32.63-100.857 27.137-4.065-4.065.596-25.897 12.258-60.159 10.735-31.547 27.388-73.626 48.647-122.116 13.459-30.692 27.914-59.728 41.529-85.271 26.729 4.787 54.478 11.175 82.713 19.211 71.829 20.427 135.354 48.231 183.53 78.263.432 4.465-.322 7.714-2.189 9.582z" fill="url(#SVGID_3_)"/><path d="m278.736 387.154c-27.804 15.091-60.34 31.571-95.018 46.771-29.899 13.105-57.366 24.469-81.418 33.768-57.358 22.169-95.364 32.63-100.857 27.137-4.065-4.065.596-25.897 12.258-60.159 10.735-31.547 27.388-73.626 48.647-122.116.761-1.75 1.538-3.484 2.307-5.226 16.017 3.571 32.285 7.691 48.733 12.368 63.118 17.947 119.84 41.599 165.348 67.457z" fill="url(#SVGID_4_)"/><path d="m167.96 440.768c-23.825 10.249-45.9 19.281-65.66 26.925-57.358 22.169-95.364 32.63-100.857 27.137-4.065-4.065.596-25.897 12.258-60.159 4.465-13.129 9.958-28.086 16.386-44.574 3.351.918 6.717 1.852 10.092 2.809 46.755 13.294 90.003 29.719 127.781 47.862z" fill="url(#SVGID_5_)"/></g><g><path d="m161.934 128.344s-55.231 83.043-99.585 184.213c-13.105 29.899-24.469 57.366-33.768 81.418-22.169 57.357-32.63 95.363-27.137 100.856 4.065 4.065 25.897-.596 60.159-12.258 31.547-10.735 73.626-27.388 122.116-48.647 30.692-13.459 59.728-27.914 85.271-41.529-4.787-26.729-11.175-54.478-19.211-82.713-20.427-71.829-48.231-135.354-78.264-183.53-4.464-.432-7.713.322-9.581 2.19z" fill="url(#SVGID_6_)"/><path d="m109.12 217.539c-15.091 27.804-31.571 60.34-46.771 95.018-13.105 29.899-24.469 57.366-33.768 81.418-22.169 57.357-32.63 95.363-27.137 100.856 4.065 4.065 25.897-.596 60.159-12.258 31.547-10.735 73.626-27.388 122.116-48.647 1.75-.761 3.484-1.538 5.226-2.307-3.571-16.017-7.691-32.285-12.368-48.733-17.947-63.118-41.599-119.84-67.457-165.347z" fill="url(#SVGID_7_)"/><path d="m55.506 328.314c-10.249 23.825-19.281 45.9-26.925 65.66-22.169 57.358-32.63 95.364-27.137 100.857 4.065 4.065 25.897-.596 60.159-12.258 13.129-4.465 28.086-9.958 44.574-16.386-.918-3.351-1.852-6.717-2.809-10.092-13.294-46.755-29.718-90.003-47.862-127.781z" fill="url(#SVGID_8_)"/></g></g><path d="m359.788 310.821c-29.983-16.618-64.525-43.061-97.9-76.436s-59.818-67.917-76.436-97.9c-8.927-16.106-31.831-17.488-46.462-2.857-9.771 9.771-12.882 24.004-7.63 35.183 15.498 32.986 44.96 73.425 83.818 112.283s79.298 68.32 112.284 83.818c11.179 5.252 25.413 2.141 35.183-7.63 14.63-14.63 13.249-37.535-2.857-46.461z" fill="url(#SVGID_9_)"/><g><g><path d="m423.116 280.169c-2.011-3.427-.123-7.757 3.718-8.773 8.707-2.305 16.921-6.87 23.709-13.659 19.345-19.345 20.638-50.26 3.022-71.192-.006-.008-.013-.015-.019-.023-.977-1.161-.641-2.913.69-3.643 4.436-2.43 8.601-5.515 12.345-9.259 16.43-16.43 20.295-40.942 11.053-61.176-.041-.091-.089-.188-.142-.292-7.487-14.61-3.92-32.463 9.111-42.447 1.689-1.294 3.327-2.682 4.908-4.164 8.716-8.174 14.67-18.127 17.866-28.733 4.022-13.348-12.374-23.209-22.336-13.457-.181.177-.362.353-.545.528-10.315 9.882-23.062 15.891-36.333 18.006-19.218 3.062-38.796-2.732-53.716-15.226l-.255-.214c-21.652-18.132-53.568-16.723-73.538 3.247-3.744 3.744-6.829 7.909-9.259 12.345-.729 1.331-2.481 1.667-3.643.69-.008-.006-.015-.013-.023-.019-20.933-17.615-51.847-16.323-71.193 3.022-6.789 6.789-11.354 15.002-13.659 23.709-1.017 3.841-5.347 5.729-8.773 3.718-19.953-11.711-45.839-8.793-62.729 8.096-19.071 19.071-20.332 49.616-2.828 70.135 25.406 29.781 57.604 64.543 93.7 100.639s70.857 68.294 100.639 93.7c20.519 17.504 51.064 16.243 70.135-2.828 16.888-16.891 19.806-42.777 8.095-62.73z" fill="url(#SVGID_10_)"/><path d="m238.536 45.729c-19.345 19.345-20.638 50.26-3.022 71.192 19.16 22.769 42.739 48.426 69.075 74.762s51.994 49.915 74.762 69.075c20.933 17.615 51.847 16.323 71.192-3.022 19.345-19.345 20.638-50.26 3.022-71.193-19.16-22.769-42.739-48.426-69.075-74.762-26.337-26.337-51.993-49.915-74.762-69.075-20.932-17.615-51.847-16.322-71.192 3.023z" fill="url(#SVGID_11_)"/><path d="m322.653 29.691c-19.985 19.985-21.359 51.905-3.216 73.575 10.297 12.3 22.175 25.286 35.229 38.34s26.04 24.932 38.34 35.229c21.671 18.143 53.591 16.769 73.575-3.216 19.985-19.985 21.359-51.905 3.216-73.575-10.298-12.3-22.175-25.286-35.229-38.339s-26.04-24.932-38.339-35.229c-21.671-18.143-53.591-16.769-73.576 3.215z" fill="url(#SVGID_12_)"/></g></g></g></svg>