<svg id="Capa_1" enable-background="new 0 0 512 512" height="512" viewBox="0 0 512 512" width="512" xmlns="http://www.w3.org/2000/svg"><path id="XMLID_2055_" d="m230 10h48v396h-48z" fill="#fff"/><path id="XMLID_2091_" d="m289.07 50h-66.14c-56.479 16.374-99.406 64.626-108.015 124h282.168c-8.608-59.374-51.535-107.626-108.013-124z" fill="#dff6fc"/><path id="XMLID_2056_" d="m408 214h-304c-11.046 0-20-8.954-20-20 0-11.046 8.954-20 20-20h304c11.046 0 20 8.954 20 20 0 11.046-8.954 20-20 20z" fill="#b0e7f8"/><path id="XMLID_852_" d="m394.417 214-27.618 252.352c-2.221 20.286-19.356 35.648-39.763 35.648h-142.072c-20.407 0-37.542-15.362-39.763-35.648l-27.618-252.352z" fill="#dff6fc"/><path id="XMLID_1185_" d="m126.591 279.559c23.824-23.824 62.449-23.824 86.273 0 23.824 23.824 62.449 23.824 86.273 0 23.824-23.824 62.449-23.824 86.273 0l1.708 1.138-20.319 185.654c-2.221 20.287-19.356 35.649-39.763 35.649h-142.072c-20.407 0-37.542-15.362-39.763-35.648l-20.317-185.635z" fill="#ffedd1"/><g fill="#b3b0b5"><circle id="XMLID_1093_" cx="208" cy="478" r="24"/><circle id="XMLID_1092_" cx="256" cy="478" r="24"/><circle id="XMLID_1086_" cx="304" cy="478" r="24"/><circle id="XMLID_1084_" cx="184" cy="430" r="24"/><circle id="XMLID_1083_" cx="232" cy="430" r="24"/><circle id="XMLID_1074_" cx="280" cy="430" r="24"/><circle id="XMLID_1061_" cx="328" cy="430" r="24"/><circle id="XMLID_1055_" cx="206" cy="387.261" r="24"/></g><path id="XMLID_2426_" d="m230 10h48v396h-48z" fill="#fff"/><path id="XMLID_595_" d="m379.5 340.31c-2.63 0-5.21 1.07-7.07 2.931-1.86 1.859-2.93 4.439-2.93 7.079 0 2.631 1.07 5.2 2.93 7.061 1.86 1.87 4.44 2.93 7.07 2.93s5.21-1.06 7.07-2.93c1.86-1.86 2.93-4.43 2.93-7.061 0-2.64-1.07-5.21-2.93-7.079-1.86-1.861-4.44-2.931-7.07-2.931z"/><path id="XMLID_599_" d="m408 164h-2.526c-11.793-58.774-55.566-106.773-113.62-123.604-.905-.263-1.843-.396-2.785-.396h-1.069v-30c0-5.522-4.477-10-10-10h-48c-5.523 0-10 4.478-10 10v30.441c-57.981 16.869-101.691 64.834-113.474 123.559h-2.526c-16.542 0-30 13.458-30 30s13.458 30 30 30h4.618l26.643 243.439c2.78 25.403 24.148 44.561 49.703 44.561h142.071c25.555 0 46.923-19.157 49.703-44.561l7.804-71.306c.601-5.49-3.362-10.428-8.853-11.028-5.48-.609-10.427 3.362-11.028 8.853l-3.256 29.748c-2.96-15.75-16.809-27.706-33.405-27.706-9.359 0-17.846 3.802-24 9.941-4.342-4.331-9.848-7.491-16-8.981v-97.168c6.567-3.31 12.731-7.685 18.207-13.161 19.316-19.315 50.392-19.867 70.383-1.661l-2.137 19.523c-.601 5.49 3.362 10.428 8.853 11.028.37.041.736.061 1.1.061 5.035 0 9.368-3.793 9.928-8.913l9.048-82.669h4.618c16.542 0 30-13.458 30-30s-13.458-30-30-30zm-22.955 0h-97.045v-103.88c48.74 14.799 85.722 54.742 97.045 103.88zm-145.045 40v-20h28v20zm28 20v61.979c-9.224 2.218-18.947 1.828-28-1.147v-60.832zm-28-60v-104h28v104zm28-144v20h-28v-20zm-48 41.396v102.604h-93.045c11.012-47.786 46.287-86.877 93.045-102.604zm-126 132.604c0-5.514 4.486-10 10-10h10.916 105.084v20h-102.436c-.026 0-.052 0-.077 0h-13.487c-5.514 0-10-4.486-10-10zm126 30v48.551c-.021-.021-.044-.041-.065-.062-23.573-23.572-59.726-27.058-87.038-10.487l-4.16-38.002zm-84.59 60.97c19.991-18.205 51.068-17.654 70.382 1.661 4.352 4.352 9.133 8.017 14.208 11.001v58.658c-4.273-1.939-9.01-3.029-14-3.029-18.748 0-34 15.252-34 34 0 3.614.572 7.095 1.621 10.365-11.74 3.773-20.711 13.764-23.027 26.079zm70.59 116.291c-7.72 0-14-6.28-14-14s6.28-14 14-14 14 6.28 14 14-6.28 14-14 14zm-22 14.739c7.72 0 14 6.28 14 14s-6.28 14-14 14-14-6.28-14-14 6.28-14 14-14zm10 62c0-7.72 6.28-14 14-14s14 6.28 14 14-6.28 14-14 14-14-6.28-14-14zm48 0c0-7.72 6.28-14 14-14s14 6.28 14 14-6.28 14-14 14-14-6.28-14-14zm48 0c0-7.72 6.28-14 14-14s14 6.28 14 14-6.28 14-14 14-14-6.28-14-14zm-58-34c-7.72 0-14-6.28-14-14s6.28-14 14-14 14 6.28 14 14-6.28 14-14 14zm-76.858 21.264-2.395-21.886c4.357 10.139 13.506 17.748 24.581 19.961-2.132 4.442-3.328 9.414-3.328 14.661 0 4.523.895 8.839 2.506 12.79-11.369-3.326-20.014-13.199-21.364-25.526zm204.111-21.886-2.395 21.886c-1.349 12.328-9.995 22.2-21.364 25.527 1.61-3.951 2.506-8.267 2.506-12.79 0-5.247-1.196-10.219-3.328-14.661 11.076-2.214 20.225-9.823 24.581-19.962zm-31.253-27.378c7.72 0 14 6.28 14 14s-6.28 14-14 14-14-6.28-14-14 6.28-14 14-14zm-34 14c0 7.72-6.28 14-14 14s-14-6.28-14-14 6.28-14 14-14 14 6.28 14 14zm-26-31.807c-4.541 1.719-8.623 4.378-12 7.747-4.342-4.331-9.848-7.491-16-8.981v-91.393c5.259 1.208 10.628 1.827 16 1.827 4.016 0 8.03-.358 12-1.034zm111.104-136.192c-27.311-16.57-63.465-13.084-87.039 10.487-1.303 1.303-2.662 2.515-4.065 3.648v-52.136h95.263zm28.896-58.001h-13.504c-.011 0-.021 0-.032 0h-106.464v-20h109.084 10.916c5.514 0 10 4.486 10 10s-4.486 10-10 10z"/></svg>