<svg height="512" viewBox="0 0 256 256" width="512" xmlns="http://www.w3.org/2000/svg"><path d="m163.307 44.388-1.24 22.871h-111.119l-1.258-22.871z" fill="#ffe2e2"/><path d="m162.067 67.259-9.945 183.302h-91.102l-10.072-183.302z" fill="#f9d335"/><path d="m86.868 157.091a12.094 12.094 0 0 1 12.094 12.094v81.375a0 0 0 0 1 0 0h-24.188a0 0 0 0 1 0 0v-81.375a12.094 12.094 0 0 1 12.094-12.094z" fill="#f2c300"/><path d="m126.13 157.091a12.094 12.094 0 0 1 12.094 12.094v81.375a0 0 0 0 1 0 0h-24.188a0 0 0 0 1 0 0v-81.375a12.094 12.094 0 0 1 12.094-12.094z" fill="#f2c300"/><path d="m63.697 67.259h-12.749l-1.258-22.871h12.749z" fill="#ffefee"/><path d="m73.769 250.561h-12.749l-10.072-183.302h12.749z" fill="#f9e27d"/><path d="m163.307 44.388-1.24 22.871h-12.749l1.241-22.871z" fill="#ffcfcf"/><path d="m162.067 67.259-9.945 183.302h-12.748l9.944-183.302z" fill="#f2c300"/><circle cx="163.305" cy="48.555" fill="#f9d335" r="43.001"/><path d="m206.307 48.552a43.031 43.031 0 0 1 -49.447 42.523 43 43 0 0 0 0-85.037 43.031 43.031 0 0 1 49.447 42.514z" fill="#f2c300"/><path d="m169.746 91.075a43 43 0 1 1 0-85.037 43 43 0 0 0 0 85.037z" fill="#f9e27d"/><g fill="#5f266d"><path d="m69.526 112.62c.067 0 .137 0 .2-.005a4 4 0 0 0 3.793-4.2l-1.213-23.97a4 4 0 1 0 -7.99.4l1.213 23.97a4 4 0 0 0 3.997 3.805z"/><path d="m70.085 119.605a4 4 0 0 0 -3.793 4.2l.366 7.239a4 4 0 0 0 3.992 3.8h.2a4 4 0 0 0 3.793-4.2l-.366-7.238a3.982 3.982 0 0 0 -4.192-3.801z"/><path d="m210.306 48.539c-.015-44.034-54.806-61.929-80.384-33.031a46.937 46.937 0 0 0 -12.892 24.879h-67.33a4.006 4.006 0 0 0 -4 4.22l11.33 206.17a4 4 0 0 0 3.99 3.78h91.11a4 4 0 0 0 3.99-3.78l8.423-155.252a47.046 47.046 0 0 0 45.764-46.961v-.025zm-77.246-24.574 20.582 20.587h-29.134a38.82 38.82 0 0 1 8.552-20.587zm20.6 28.587-20.595 20.6a38.825 38.825 0 0 1 -8.554-20.6zm-99.741-4.165h62.389a46.645 46.645 0 0 0 2.366 14.87h-63.935zm41.04 198.17h-16.18v-77.37a8.09 8.09 0 1 1 16.18 0zm39.26 0h-16.18v-77.37a8.09 8.09 0 1 1 16.18 0zm14.12 0h-6.12v-77.37a16.09 16.09 0 1 0 -32.18 0v77.37h-7.08v-77.37a16.09 16.09 0 1 0 -32.18 0v77.37h-5.97l-9.63-175.3h67a47.052 47.052 0 0 0 34.377 23.808zm10.961-159.205a38.822 38.822 0 0 1 -20.585-8.55l20.585-20.585zm0-48.452-20.583-20.591a38.831 38.831 0 0 1 20.583-8.551zm42.8 5.652h-29.132l20.584-20.584a38.819 38.819 0 0 1 8.548 20.584zm-34.8-34.794a38.819 38.819 0 0 1 20.6 8.554l-20.6 20.588zm0 77.6v-29.14l20.594 20.582a38.829 38.829 0 0 1 -20.594 8.553zm26.248-14.209c-3.929-3.928-18.272-18.264-20.6-20.592h29.152a38.829 38.829 0 0 1 -8.549 20.587z"/></g></svg>