<svg id="Capa_1" enable-background="new 0 0 512 512" height="512" viewBox="0 0 512 512" width="512" xmlns="http://www.w3.org/2000/svg"><path d="m206.575 441.41c63.932-27.862 12.085-101.1 103.099-144.261 80.622-38.233 164.908-49.856 150.057-165.871-14.758-115.29-221.487-177.999-343.398-62.267-127.003 120.568-55.483 435.908 90.242 372.399z" fill="#ff7b8b"/><path d="m198.61 411.772c32.378-14.038 18.156-115.966 102.043-145.395 77.433-27.165 139.102-60.724 135.152-123.668-5.368-85.555-192.496-151.66-298.418-47.786-103.324 101.327-53.545 366.609 61.223 316.849z" fill="#ff4755"/><path d="m309.673 297.149c-91.013 43.161-39.167 116.399-103.098 144.261-92.872 40.475-155.598-72.927-156.01-191.719l-.009-.003.165 49.378.036-.008c1.463 107.847 57.623 215.901 154.573 204.683 68.459-7.922 64.801-125.966 104.344-150.029 70.786-43.076 152.3-49.16 151.68-142.72l.017-.002.003-49.616c-2.631 88.342-78.668 101.141-151.701 135.775z" fill="#994e37"/><path d="m300.673 335.712c-51.784 35.505-35.885 142.107-104.344 150.029-53.95 6.243-95.26-24.457-121.552-71.494 25.337 56.96 69.984 96.503 130.552 89.494 68.459-7.922 64.801-125.966 104.344-150.029 70.786-43.075 152.3-49.16 151.68-142.72l.017-.002.003-49.616c.072 124.709-92.358 127.481-160.7 174.338z" fill="#8c4534"/><ellipse cx="265.042" cy="149.78" fill="#f4e9d3" rx="41.794" ry="27.257"/><path d="m265.042 159.037c-18.245 0-33.749-7.627-39.451-18.257-1.512 2.818-2.343 5.845-2.343 9 0 15.054 18.712 27.257 41.794 27.257s41.794-12.203 41.794-27.257c0-3.155-.831-6.182-2.343-9-5.702 10.63-21.206 18.257-39.451 18.257z" fill="#e5d6be"/><path d="m467.179 130.322c-3.273-25.572-15.704-49.985-35.948-70.601-19.016-19.366-44.578-35.126-73.924-45.573-38.977-13.878-83.2-17.706-124.519-10.776-46.221 7.751-88.265 28.567-121.587 60.2-13.542 12.857-25.368 28.288-35.15 45.866-2.013 3.619-.713 8.186 2.907 10.2 3.617 2.015 8.186.713 10.199-2.907 9.041-16.247 19.931-30.473 32.37-42.281 31.146-29.568 70.477-49.032 113.74-56.285 38.843-6.514 80.398-2.923 117.009 10.114 27.217 9.69 50.818 24.197 68.253 41.952 17.931 18.261 28.917 39.699 31.771 61.996 4.909 38.345-.845 66.224-18.107 87.737-15.323 19.096-38.25 31.629-67.961 44.57-3.549 1.546-5.366 5.693-4.085 9.349 1.422 4.059 6.126 6.122 10.075 4.402 33.115-14.423 63.913-30.612 81.505-60.04-2.595 59.486-42.869 78.023-93.358 101.249-17.922 8.244-36.454 16.768-54.574 27.795-18.403 11.198-27.826 37.987-37.801 66.348-3.512 9.984-7.143 20.308-11.201 30.025-1.473 3.528.024 7.716 3.399 9.511 3.851 2.049 8.764.286 10.442-3.73 4.224-10.115 7.928-20.645 11.51-30.829 9.062-25.763 17.621-50.098 31.448-58.511 17.38-10.577 35.512-18.917 53.046-26.983 52.707-24.245 102.496-47.143 102.228-121.673.01-.153.015-.308.015-.464l.003-49.593c.265-9.507-.265-19.823-1.705-31.068z"/><path d="m254.126 466.984c-3.468-2.266-8.116-1.29-10.379 2.178-10.872 16.649-23.346 25.26-39.254 27.101-30.388 3.515-57.716-5.177-81.224-25.837-23.909-21.012-42.492-53.746-53.559-92.321 9.619 20.681 21.5 38.211 35.074 51.291 14.358 13.835 30.305 22.628 47.397 26.133 5.585 1.145 11.253 1.717 16.995 1.717 13.158-.001 26.694-3.003 40.419-8.986 32.706-14.253 38.507-39.883 44.117-64.67 6.434-28.424 13.087-57.816 59.193-79.681 10.641-5.047 21.477-9.675 31.603-13.926 3.819-1.602 5.616-5.998 4.012-9.817-1.603-3.82-6.003-5.617-9.817-4.012-10.289 4.318-21.314 9.028-32.225 14.203-52.698 24.991-60.847 60.993-67.395 89.921-5.439 24.031-9.735 43.011-35.48 54.232-16.828 7.333-33.112 9.462-48.409 6.325-14.265-2.926-27.724-10.408-40.003-22.241-26.337-25.376-45.854-69.712-53.549-121.638-7.995-53.955-2.604-108.632 15.179-153.96 1.514-3.856-.387-8.208-4.242-9.72-3.856-1.517-8.209.387-9.72 4.242-13.774 35.108-20.49 75.451-19.753 116.82l.15 44.738c.001.271.017.539.047.804 1.187 75.233 28.001 144.844 70.063 181.812 22.726 19.972 49.623 30.308 78.495 30.307 4.734 0 9.525-.277 14.355-.837 20.392-2.359 36.776-13.415 50.088-33.8 2.265-3.466 1.291-8.113-2.178-10.378z"/><path d="m265.064 184.529c27.64 0 49.291-15.266 49.291-34.755s-21.651-34.756-49.291-34.756-49.291 15.267-49.291 34.756 21.651 34.755 49.291 34.755zm0-54.511c18.267 0 34.292 9.232 34.292 19.757 0 10.524-16.024 19.756-34.292 19.756-18.267 0-34.292-9.232-34.292-19.756 0-10.525 16.025-19.757 34.292-19.757z"/></svg>