<svg enable-background="new 0 0 110 110" height="512" viewBox="0 0 110 110" width="512" xmlns="http://www.w3.org/2000/svg"><path d="m71.6187515 38.9130745c-.1349411-3.7110443-.6553497-6.4643745-2.6669006-10.6597233-2.7952805-5.8302021-10.7018776-10.7817593-10.7018776-10.7817593v-3.1147919h-8.0878334v3.140007l-5.1301689 4.2750225c-6.7993126 5.8360519-7.5260735 13.4435139-7.4210815 17.1412449h34.007862z" fill="#ededed"/><path d="m70.4708252 95.3398056c-3.6765518 8.386055-10.4927101 4.2342758-10.4927101 4.2342758l-1.2310295 1.0948792c-.594841.5286789-1.3632545.8219604-2.1605072.8219604h-.470993c-.9501495 0-1.8506813-.4171295-2.4661942-1.1360245l-1.2062225-1.3962326s-2.9825745 3.5732803-7.4110489 1.8629913c-4.4325562-1.7100906-7.1218452-7.464653-7.4316711-12.2028046-.3098221-4.7425842 1.1360283-9.1709061 1.9126587-12.7484207.5122414-2.3545532-.3924255-7.6877441-1.0699654-11.046196-.2065506-1.0204506-.3634796-2.0531998-.47089-3.0859528-.1115456-1.115448 5.4949188-3.0544853 5.4949188-4.1780052l-5.6643066-15.6037712v-.8318901s-.5040207-2.7388077.0867882-6.4774857h33.2875557c.4213715 2.1978226.4833984 4.3789024.4875336 7.2457962.0040359.6113815-5.3093872 2.6500969-5.3093872 3.3276367v11.8222427c0 1.5531616 5.201973 3.1588593 4.9788895 4.6954765-.0660629.4750252-.1446304.9460182-.2313614 1.4170074-.7063904 3.80867-1.7101898 10.5009842-.7146606 13.4959564 1.4375837 4.3127445 3.7551191 10.3027042.0826032 18.6885608z" fill="#293b44"/><g fill="#de594e"><path d="m58.461441 15.5217485h-8.7782516c-.6544838 0-1.185051-.5305653-1.185051-1.185051v-4.6425704c0-.6544857.5305672-1.185051 1.185051-1.185051h8.7782516c.6544838 0 1.185051.5305653 1.185051 1.185051v4.6425705c0 .6544857-.5305672 1.1850509-1.185051 1.1850509z"/><path d="m71.6687775 43.8263092v13.2688293c0 1.5531616-.1114502 3.1065254-.3345337 4.6431427h-33.3619919c-.1115456-1.115448-.1693878-2.2349358-.1693878-3.3584557v-16.4869002h33.8618774c.004036.6113815.004036 1.2558403.004036 1.9333839z"/></g></svg>