<svg height="512" viewBox="0 0 128 128" width="512" xmlns="http://www.w3.org/2000/svg"><g><path d="m34.829 48.228-13.848-21.081a9 9 0 0 0 -6.213-3.961l-5.7-.837a3 3 0 0 1 -2.532-3.4 3 3 0 0 1 3.4-2.532l5.705.837a15 15 0 0 1 10.359 6.6l13.844 21.079z" fill="#50c1b4"/><path d="m76.129 9.495v35.25h-42.38v-11.25a24.006 24.006 0 0 1 24-24z" fill="#fd637b"/><path d="m76.126 45.33a1.746 1.746 0 0 1 -1.339-.623l-27.249-32.382a1.75 1.75 0 1 1 2.678-2.254l27.248 32.382a1.75 1.75 0 0 1 -1.338 2.877z" fill="#da506a"/><path d="m76.125 45.33a1.752 1.752 0 0 1 -.71-.15l-40.968-18.193a1.75 1.75 0 0 1 1.421-3.2l40.968 18.193a1.75 1.75 0 0 1 -.711 3.35z" fill="#da506a"/><path d="m73.688 53.216h5.999v66.068h-5.999z" fill="#50c1b4" transform="matrix(.704 -.71 .71 .704 -38.557 80.022)"/><circle cx="100.154" cy="109.5" fill="#fd637b" r="12"/><circle cx="100.154" cy="109.5" fill="#62e0da" r="3"/><path d="m42.529 83.25h66.068v5.999h-66.068z" fill="#50c1b4" transform="matrix(.71 -.704 .704 .71 -38.82 78.166)"/><circle cx="52.097" cy="109.5" fill="#fd637b" r="12"/><circle cx="52.097" cy="109.5" fill="#62e0da" r="3"/><path d="m33.751 42.413h84.749a0 0 0 0 1 0 0v6a24 24 0 0 1 -24 24h-36.749a24 24 0 0 1 -24-24v-6a0 0 0 0 1 0 0z" fill="#fd637b"/><path d="m98.3 67.76a1.75 1.75 0 0 1 -.37-3.46 16.1 16.1 0 0 0 5.37-2.23 1.75 1.75 0 1 1 1.9 2.94 19.6 19.6 0 0 1 -6.528 2.711 1.8 1.8 0 0 1 -.372.039z" fill="#da506a"/><g fill="#62e0da"><rect height="6" rx="3" width="90.749" x="30.751" y="40.58"/><path d="m79.126 40.58h-6v-31.08a3 3 0 0 1 3-3 3 3 0 0 1 3 3z"/></g></g></svg>