<svg height="512" viewBox="0 0 42 58" width="512" xmlns="http://www.w3.org/2000/svg"><g id="Page-1" fill="none" fill-rule="evenodd"><g id="017---Bear" fill-rule="nonzero" transform="translate(-1 -1)"><path id="Shape" d="m41.32 45.22c-.7783016.3900021-1.686282.4283523-2.4946979.1053682s-1.4400035-.9764337-1.7353021-1.7953682c-.6683152-2.1028215-2.0108628-3.9268587-3.82-5.19-.01 0-.01-.01-.02-.01 1.357 6.311.99 11.729-2.35 18.89-.6211639 1.3073511-2.0643483 2.0108508-3.4768444 1.6948347s-2.4183105-1.5674274-2.4231556-3.0148347v-1.9c-.0032948-1.1032019-.8967981-1.9967052-2-2h-2c-1.1032019.0032948-1.9967052.8967981-2 2v1.9c-.0048451 1.4474073-1.0106595 2.6988186-2.4231556 3.0148347s-2.8556805-.3874836-3.4768444-1.6948347c-1.864412-3.8161772-2.9198284-7.9765605-3.1-12.22.04428-2.2335073.2852111-4.4587734.72-6.65-1.80275835 1.2630835-3.14123056 3.0828436-3.81 5.18-.3822481 1.0451918-1.30376161 1.7989671-2.40399072 1.966405-1.10022912.167438-2.20425677-.2780811-2.88012298-1.1622443-.67586621-.8841631-.81612015-2.0664038-.3658863-3.0841607 2.3670967-5.1352892 5.99669091-9.5871328 10.55-12.94h20.38c4.5534301 3.3527401 8.1830522 7.8046179 10.55 12.94.6577039 1.4903895.0337447 3.2348389-1.42 3.97z" fill="#a56a43"/><path id="Shape" d="m33.24 29.13c-3.3150107 2.2439602-7.2372309 3.4199284-11.24 3.37-4.0027691.0499284-7.9249893-1.1260398-11.24-3.37.43-.36.8-.63 1.05-.82h20.38c.25.19.62.46 1.05.82z" fill="#805333"/><path id="Shape" d="m7.36 9.85c-2.08173842-.54638052-3.48515519-2.49033185-3.34853076-4.63823787.13662444-2.14790603 1.77503646-3.8983721 3.90922579-4.17658503 2.13418937-.27821294 4.16660187.99372442 4.84930497 3.0348229z" fill="#a56a43"/><path id="Shape" d="m36.64 9.85c2.0817384-.54638052 3.4851552-2.49033185 3.3485308-4.63823787-.1366245-2.14790603-1.7750365-3.8983721-3.9092258-4.17658503-2.1341894-.27821294-4.1666019.99372442-4.849305 3.0348229z" fill="#a56a43"/><path id="Shape" d="m39 17.5c0 7.456-7.611 13.5-17 13.5s-17-6.044-17-13.5 7.611-16.5 17-16.5 17 9.044 17 16.5z" fill="#cb8252"/><path id="Shape" d="m24.81 15.69c2.4351241 1.2907559 3.6777371 4.0744663 3.0127084 6.749091-.6650286 2.6746247-3.0666459 4.5522202-5.8227084 4.5522202s-5.1576798-1.8775955-5.8227084-4.5522202c-.6650287-2.6746247.5775843-5.4583351 3.0127084-6.749091z" fill="#cf976a"/><ellipse id="Oval" cx="22" cy="15" fill="#35495e" rx="3" ry="2"/><path id="Shape" d="m23 23h-2c-.5522847 0-1-.4477153-1-1s.4477153-1 1-1h2c.5522847 0 1 .4477153 1 1s-.4477153 1-1 1z" fill="#805333"/><circle id="Oval" cx="14" cy="12" fill="#2c3e50" r="3"/><circle id="Oval" cx="14" cy="11.5" fill="#35495e" r="2.5"/><circle id="Oval" cx="30" cy="12" fill="#2c3e50" r="3"/><circle id="Oval" cx="30" cy="11.5" fill="#35495e" r="2.5"/><path id="Shape" d="m11.87 34.37c-.4825576 1.2959641-.8669748 2.626382-1.15 3.98-.83989701.5791006-1.58248162 1.2879313-2.2 2.1-.12057728-.2011479-.16326839-.4395066-.12-.67.33367333-2.0988701.87637273-4.1591178 1.62-6.15.1095062-.3617541.4136166-.6308572.786008-.6955277s.7494257.0861432.9744881.3897952c.2250624.3036521.2596919.7082511.0895039 1.0457325z" fill="#805333"/><path id="Shape" d="m35.54 40.52c-.6351803-.8434171-1.4015904-1.5794409-2.27-2.18-.2934388-1.3488097-.6810553-2.6753936-1.16-3.97-.2043454-.5136248.0463752-1.0956546.56-1.3s1.0956546.0463752 1.3.56c.756806 2.0471827 1.3094906 4.1641323 1.65 6.32.0297721.1937343.0019528.3919464-.08.57z" fill="#805333"/><ellipse id="Oval" cx="22" cy="41.5" fill="#cb8252" rx="7" ry="6.5"/><g fill="#ecf0f1"><circle id="Oval" cx="13" cy="11" r="1"/><circle id="Oval" cx="29" cy="11" r="1"/></g></g></g></svg>