<?xml version="1.0" encoding="iso-8859-1"?>
<!-- Generator: Adobe Illustrator 19.0.0, SVG Export Plug-In . SVG Version: 6.00 Build 0)  -->
<svg version="1.1" id="Capa_1" xmlns="http://www.w3.org/2000/svg" xmlns:xlink="http://www.w3.org/1999/xlink" x="0px" y="0px"
	 viewBox="0 0 464 464" style="enable-background:new 0 0 464 464;" xml:space="preserve">
<g>
	<ellipse style="fill:#FDBD40;" cx="168" cy="105.585" rx="56" ry="80"/>
	<ellipse style="fill:#FDBD40;" cx="296" cy="105.585" rx="56" ry="80"/>
	<path style="fill:#FDBD40;" d="M96,201.585c0,44.184-5.488,80-32,80s-64-35.816-64-80s21.488-80,48-80S96,157.401,96,201.585z"/>
	<path style="fill:#FDBD40;" d="M464,201.585c0,44.184-37.488,80-64,80s-32-35.816-32-80s21.488-80,48-80S464,157.401,464,201.585z"
		/>
	<path style="fill:#FDBD40;" d="M360,338.729c0,47.928-24.8,88.2-80,99.616c-10.224,2.112-36.952-44.76-48-44.76
		s-37.776,46.872-48,44.76c-55.2-11.416-80-51.688-80-99.616c0-56.808,57.304-137.144,128-137.144S360,281.921,360,338.729z"/>
</g>
<path style="fill:#FCF05A;" d="M136,345.585h-0.16c-4.417-0.087-7.928-3.739-7.84-8.157c0-0.001,0-0.002,0-0.003
	c0.888-44.168,47.832-111.84,104-111.84c4.418,0,8,3.582,8,8s-3.582,8-8,8c-46.68,0-87.248,59.064-88,96.16
	C143.913,342.101,140.357,345.586,136,345.585z"/>
<g>
</g>
<g>
</g>
<g>
</g>
<g>
</g>
<g>
</g>
<g>
</g>
<g>
</g>
<g>
</g>
<g>
</g>
<g>
</g>
<g>
</g>
<g>
</g>
<g>
</g>
<g>
</g>
<g>
</g>
</svg>
