<svg height="511pt" viewBox="0 0 511.99963 511" width="511pt" xmlns="http://www.w3.org/2000/svg"><path d="m442.5 13.339844-429.621094 429.621094c-7.25 7.25-7.25 19.007812 0 26.257812l30.363282 30.363281c7.25 7.25 19.007812 7.25 26.257812 0l429.621094-429.621093c7.25-7.25 7.25-19.007813 0-26.257813l-30.363282-30.363281c-7.25-7.25-19.007812-7.25-26.257812 0zm0 0" fill="#f29062"/><path d="m71.171875 384.660156 97.472656-97.46875 56.621094 56.621094-97.472656 97.46875zm0 0" fill="#ed8157"/><path d="m71.355469 342.410156c-10.824219-10.824218-28.375-10.824218-39.199219 0l-15.835938 15.832032c-10.824218 10.828124-10.824218 28.378906 0 39.203124l98.695313 98.691407c10.824219 10.828125 28.375 10.828125 39.199219 0l15.835937-15.832031c10.824219-10.824219 10.824219-28.378907 0-39.203126l-21.828125-76.863281zm0 0" fill="#7bcbd7"/><path d="m440.828125 128.257812-97.472656 97.46875-56.621094-56.621093 97.472656-97.46875zm0 0" fill="#ed8157"/><path d="m341.949219 71.820312c-10.824219-10.828124-10.824219-28.378906 0-39.203124l15.832031-15.832032c10.828125-10.828125 28.378906-10.828125 39.203125 0l98.691406 98.691406c10.828125 10.824219 10.828125 28.378907 0 39.203126l-15.832031 15.832031c-10.824219 10.824219-28.378906 10.824219-39.203125 0l-76.863281-21.828125zm0 0" fill="#7bcbd7"/><path d="m59.671875 259.855469-15.832031 15.835937c-10.824219 10.824219-10.824219 28.375 0 39.199219l153.726562 153.730469c10.828125 10.824218 28.378906 10.824218 39.203125 0l15.832031-15.835938c10.828126-10.824218 10.828126-28.375 0-39.199218l-153.726562-153.730469c-10.824219-10.824219-28.375-10.824219-39.203125 0zm0 0" fill="#a7e6ee"/><path d="m259.394531 60.136719 15.835938-15.835938c10.824219-10.824219 28.375-10.824219 39.199219 0l153.730468 153.730469c10.824219 10.824219 10.824219 28.375 0 39.199219l-15.835937 15.835937c-10.824219 10.824219-28.375 10.824219-39.199219 0l-153.730469-153.730468c-10.824219-10.824219-10.824219-28.375 0-39.199219zm0 0" fill="#a7e6ee"/><path d="m213.683594 310.027344c1.929687 0 3.859375-.722656 5.304687-2.167969 2.929688-2.929687 2.929688-7.679687 0-10.609375l-8.003906-8.003906c-2.929687-2.929688-7.679687-2.929688-10.609375 0-2.929688 2.929687-2.929688 7.679687 0 10.609375l8.003906 8.003906c1.449219 1.445313 3.378906 2.167969 5.304688 2.167969zm0 0"/><path d="m296.839844 219.398438c2.898437 2.894531 7.714844 2.894531 10.609375 0 2.929687-2.929688 2.929687-7.679688 0-10.609376l-8.003907-8.003906c-2.929687-2.929687-7.679687-2.929687-10.609374 0-2.929688 2.929688-2.929688 7.679688 0 10.605469zm0 0"/><path d="m245.9375 276.167969c7.992188.535156 15.914062-2.628907 21.554688-8.269531 5.785156-5.785157 8.796874-13.640626 8.265624-21.554688-.277343-4.132812-3.851562-7.257812-7.988281-6.980469-4.132812.277344-7.257812 3.855469-6.980469 7.988281.242188 3.59375-1.183593 7.214844-3.90625 9.9375-2.722656 2.726563-6.34375 4.148438-9.941406 3.90625-4.136718-.277343-7.707031 2.851563-7.984375 6.984376-.28125 4.132812 2.847657 7.710937 6.980469 7.988281zm0 0"/><path d="m7.621094 474.519531s30.332031 30.328125 30.363281 30.363281c10.058594 10.054688 26.824219 10.042969 36.871094 0l19.171875-19.175781s15.726562 15.726563 15.730468 15.730469c13.394532 13.398438 36.203126 13.613281 49.8125 0l15.832032-15.832031c5.191406-5.191407 8.554687-11.722657 9.785156-18.808594 0 0 7.117188 7.117187 7.125 7.125 13.570312 13.570313 36.253906 13.554687 49.8125 0 0 0 15.820312-15.824219 15.832031-15.835937 13.585938-13.585938 13.574219-36.238282 0-49.808594l-43.25-43.25 149.910157-149.910156s43.238281 43.234374 43.25 43.246093c13.402343 13.40625 36.183593 13.628907 49.8125 0 0 0 15.820312-15.820312 15.832031-15.832031 13.578125-13.582031 13.5625-36.25 0-49.8125l-7.140625-7.140625c6.898437-1.199219 13.507812-4.449219 18.828125-9.765625 0 0 15.816406-15.820312 15.832031-15.835938 13.578125-13.574218 13.558594-36.253906 0-49.8125l-15.730469-15.730468s19.144531-19.148438 19.171875-19.171875c10.042969-10.042969 10.027344-26.839844 0-36.867188 0 0-30.324218-30.328125-30.363281-30.363281-10.046875-10.050781-26.835937-10.03125-36.867187 0l-19.171876 19.175781s-15.726562-15.726562-15.734374-15.734375c-13.582032-13.578125-36.242188-13.566406-49.808594 0l-15.835938 15.835938c-5.316406 5.316406-8.566406 11.925781-9.765625 18.824218 0 0-7.136719-7.132812-7.140625-7.140624-13.566406-13.5625-36.273437-13.539063-49.8125 0 0 0-15.820312 15.816406-15.835937 15.832031-13.570313 13.574219-13.554688 36.257812 0 49.8125l43.25 43.25-149.910157 149.910156s-43.203124-43.207031-43.25-43.25c-13.582031-13.582031-36.242187-13.566406-49.808593 0 0 0-15.820313 15.820313-15.835938 15.835937-13.554687 13.550782-13.523437 36.285157 0 49.808594l7.125 7.125c-7.085937 1.230469-13.617187 4.59375-18.808593 9.785156 0 0-15.820313 15.820313-15.832032 15.832032-13.582031 13.582031-13.570312 36.246094 0 49.8125l15.730469 15.730468-19.175781 19.175782c-10.160156 10.164062-10.160156 26.703125 0 36.867187zm440.230468-455.878906c4.136719-4.132813 11.285157-4.363281 15.648438 0 0 0 30.289062 30.289063 30.363281 30.363281 4.285157 4.285156 4.273438 11.375 0 15.648438l-19.171875 19.175781-46.011718-46.011719s19.140624-19.144531 19.171874-19.175781zm-183.101562 46.792969 15.832031-15.832032c3.820313-3.820312 8.894531-5.921874 14.296875-5.921874 5.398438 0 10.476563 2.105468 14.296875 5.921874l46.574219 46.574219c2.929688 2.929688 7.679688 2.929688 10.609375 0 2.839844-2.84375 2.917969-7.691406 0-10.609375l-19.058594-19.058594c-7.882812-7.882812-7.882812-20.710937 0-28.589843l15.832031-15.835938c3.820313-3.816406 8.898438-5.921875 14.296876-5.921875 5.402343 0 10.480468 2.105469 14.296874 5.921875l98.691407 98.691407c3.820312 3.820312 5.921875 8.898437 5.921875 14.296874 0 5.402344-2.101563 10.480469-5.921875 14.296876l-15.832031 15.835937c-7.878907 7.878906-20.703126 7.882813-28.585938.003906l-58.5625-58.558593c-2.929688-2.929688-7.679688-2.929688-10.605469 0-2.878906 2.878906-2.875 7.738281 0 10.609374l86.070313 86.070313c7.882812 7.882813 7.882812 20.710937 0 28.59375l-15.832032 15.835937c-7.882812 7.882813-20.710937 7.882813-28.59375 0l-153.726562-153.730468c-7.882812-7.882813-7.882812-20.710938 0-28.59375zm43.246094 93.0625 46.011718 46.011718-149.910156 149.910157-46.011718-46.011719zm-292.074219 219.34375c-.007813-5.203125 1.882813-10.425782 5.753906-14.296875 0 0 15.8125-15.808594 15.832031-15.832031 7.804688-7.804688 20.800782-7.792969 28.59375 0 0 0 58.070313 58.070312 58.09375 58.09375 2.816407 2.816406 7.6875 2.925781 10.609376 0 2.929687-2.929688 2.929687-7.679688 0-10.609376l-85.613282-85.609374c-7.882812-7.886719-7.882812-20.710938 0-28.59375 0 0 15.816406-15.816407 15.835938-15.835938 7.800781-7.796875 20.796875-7.792969 28.589844 0 0 0 153.53125 153.53125 153.730468 153.730469 7.804688 7.804687 7.792969 20.800781 0 28.59375l-15.835937 15.832031c-7.882813 7.882812-20.707031 7.882812-28.589844 0 0 0-47.0625-47.0625-47.078125-47.078125-2.8125-2.8125-7.6875-2.917969-10.609375 0-2.929687 2.929687-2.929687 7.679687 0 10.609375 0 0 19.519531 19.523438 19.558594 19.5625 7.804687 7.800781 7.789062 20.800781 0 28.589844l-15.832031 15.835937c-7.882813 7.882813-20.710938 7.882813-28.59375 0 0 0-98.578126-98.578125-98.691407-98.695312-3.800781-3.800781-5.746093-9.039063-5.753906-14.296875zm2.308594 70.417968 19.175781-19.171874 46.011719 46.011718s-19.148438 19.152344-19.171875 19.175782c-4.09375 4.09375-11.277344 4.375-15.652344 0l-30.363281-30.363282c-4.3125-4.316406-4.3125-11.335937 0-15.652344zm0 0"/></svg>