<svg id="Capa_1" enable-background="new 0 0 487.22 487.22" height="512" viewBox="0 0 487.22 487.22" width="512" xmlns="http://www.w3.org/2000/svg"><g><path d="m399.793 225.265-19.49-18.91-23.496-5.197-139.651 161.96-69.362 77.25h-120.119l-12.352 14.367v13.73c0 9.88 8.01 17.89 17.89 17.89h123.99c7.77 0 15.27-2.85 21.06-8.03l220.36-196.65c16.69-14.9 17.23-40.83 1.17-56.41z" fill="#f9f7f8"/><g><path d="m304.593 147.397-115.81-145.15c-.704-.882-1.771-1.396-2.899-1.396h-182.168c-3.255 0-4.931 3.893-2.694 6.257l145.491 153.789c3.797 4.014 6.044 9.247 6.339 14.764l2.178 40.694 2.071 91.954 198.96-108.559z" fill="#ffe5c2"/></g><path d="m208.827 216.357-2.178-40.694c-.295-5.518-2.542-10.751-6.339-14.764l-145.49-153.79c-.182-.192-.329-.397-.46-.606l-5.383-5.651h-45.261c-3.255 0-4.931 3.893-2.694 6.257l145.49 153.789c3.797 4.014 6.044 9.247 6.339 14.764l2.178 40.694 2.071 91.954 53.145-28.997z" fill="#fed2a4"/><g><path d="m94.568 464.14c-9.88 0-19.905-6.876-19.905-16.756l1.838-7.002h-48.848l-12.352 14.367v13.73c0 9.88 8.01 17.89 17.89 17.89h123.99c7.77 0 15.27-2.85 21.06-8.03l15.911-14.199z" fill="#e5e1e5"/></g><path d="m252.813 191.915-34.72 26.71c-6.53 5.02-15.24 6.2-22.87 3.07l-7.49-3.06c-6.13-2.51-12.41-4.62-18.8-6.3-6.39-1.7-12.89-2.97-19.46-3.82-7.59-.98-14.65 4.09-16.14 11.6l-6.813 34.368h1.665v15h-4.638l-3.214 16.211h4.618v15h-7.592l-3.214 16.212h2.163v15h-5.136l-3.214 16.212h4.276v15h-7.25l-5.032 25.387c-1.37 6.88-6.67 12.3-13.51 13.82l-44.36 9.86c-15.63 3.47-26.76 17.34-26.76 33.35v9.2h134.98c4.12 0 8.05-1.74 10.8-4.81l28.76-31.95v-.01l25.342-35.127 9.648-75.609 39.719-119.854z" fill="#98bce5"/><g><path d="m76.7 432.506v-9.2c0-7.527 2.461-14.581 6.693-20.303l-41.31 9.182c-15.63 3.47-26.76 17.34-26.76 33.35v9.2h61.377z" fill="#7bacdf"/></g><path d="m309.153 137.325c-3.2-3.1-8.52-1.92-10.11 2.23l-9.12 23.8-2.55 1.96-13.58 27.627-9.22 140.414 17.3-17.632 98.43-109.37z" fill="#98bce5"/><g><path d="m321.593 321.488c-1.864 0-3.73-.69-5.185-2.081-2.992-2.864-3.097-7.611-.233-10.604l12.935-13.518c2.863-2.993 7.61-3.098 10.604-.234 2.992 2.864 3.097 7.611.233 10.604l-12.935 13.518c-1.471 1.54-3.444 2.315-5.419 2.315z" fill="#e5e1e5"/></g><g><path d="m356.805 284.688c-1.864 0-3.73-.69-5.185-2.081-2.992-2.864-3.097-7.611-.233-10.604l23.5-24.56c2.862-2.994 7.609-3.098 10.604-.234 2.992 2.864 3.097 7.611.233 10.604l-23.5 24.56c-1.471 1.539-3.444 2.315-5.419 2.315z" fill="#e5e1e5"/></g><g fill="#f9f7f8"><path d="m130.681 363.118c4.142 0 7.5-3.358 7.5-7.5s-3.358-7.5-7.5-7.5h-22.722l-2.974 15z"/><path d="m111.173 331.906h29.121c4.142 0 7.5-3.358 7.5-7.5s-3.358-7.5-7.5-7.5h-26.147z"/><path d="m120.333 285.694-2.974 15h16.934c4.142 0 7.5-3.358 7.5-7.5s-3.358-7.5-7.5-7.5z"/><path d="m123.547 269.483h35.059c4.142 0 7.5-3.358 7.5-7.5s-3.358-7.5-7.5-7.5h-32.086z"/></g><g><g><path d="m166.236 363.118h-7.63c-4.142 0-7.5-3.358-7.5-7.5s3.358-7.5 7.5-7.5h7.63c4.142 0 7.5 3.358 7.5 7.5s-3.358 7.5-7.5 7.5z" fill="#f9f7f8"/></g></g><g><g><path d="m167.98 300.694h-9.374c-4.142 0-7.5-3.358-7.5-7.5s3.358-7.5 7.5-7.5h9.374c4.142 0 7.5 3.358 7.5 7.5s-3.358 7.5-7.5 7.5z" fill="#f9f7f8"/></g></g><g id="XMLID_215_"><g><path d="m273.793 175.775-23.71 89.12c-8.09 30.43-10.3 62.12-6.51 93.39v.01l-53.71 59.67c5.27-60.26 19.54-119.37 42.34-175.4l20.61-50.65z" fill="#fef0ae"/><path d="m273.793 175.775 13.58-10.46-7.19 73.12c-2.52 25.74-1.96 51.68 1.69 77.29v.01l-38.3 42.55c-3.79-31.27-1.58-62.96 6.51-93.39z" fill="#fe99a0"/></g></g><g><path d="m313.63 45.76h-44.162c-4.143 0-7.5-3.358-7.5-7.5s3.357-7.5 7.5-7.5h44.162c4.143 0 7.5 3.358 7.5 7.5s-3.357 7.5-7.5 7.5z" fill="#e5e1e5"/></g><g><path d="m361.891 45.76h-11.383c-4.143 0-7.5-3.358-7.5-7.5s3.357-7.5 7.5-7.5h11.383c4.143 0 7.5 3.358 7.5 7.5s-3.357 7.5-7.5 7.5z" fill="#e5e1e5"/></g><g><path d="m426.542 103.923h-82.406c-4.143 0-7.5-3.358-7.5-7.5s3.357-7.5 7.5-7.5h82.406c4.143 0 7.5 3.358 7.5 7.5s-3.358 7.5-7.5 7.5z" fill="#e5e1e5"/></g><g><path d="m479.72 327.581h-45.073c-4.143 0-7.5-3.358-7.5-7.5s3.357-7.5 7.5-7.5h45.073c4.143 0 7.5 3.358 7.5 7.5s-3.357 7.5-7.5 7.5z" fill="#e5e1e5"/></g><g><path d="m373.273 410.443h-45.211c-4.143 0-7.5-3.358-7.5-7.5s3.357-7.5 7.5-7.5h45.211c4.143 0 7.5 3.358 7.5 7.5s-3.357 7.5-7.5 7.5z" fill="#e5e1e5"/></g><g><path d="m416.98 410.443h-10.471c-4.143 0-7.5-3.358-7.5-7.5s3.357-7.5 7.5-7.5h10.471c4.143 0 7.5 3.358 7.5 7.5s-3.357 7.5-7.5 7.5z" fill="#e5e1e5"/></g></g></svg>