<svg id="Capa_1" enable-background="new 0 0 497 497" height="512" viewBox="0 0 497 497" width="512" xmlns="http://www.w3.org/2000/svg"><g><path d="m430.95 407 66.05 30c0 16.57-13.43 30-30 30h-36.05z" fill="#9cbff0"/><path d="m0 437c0 16.57 13.43 30 30 30h180l38.5-19.25 38.5 19.25h144.624c16.57 0 30-13.43 30-30l-213.124-90z" fill="#c0d4ed"/><path d="m180 437 68.5-45 68.5 45c0 16.57-13.43 30-30 30h-77c-16.57 0-30-13.43-30-30z" fill="#69a7ff"/><path d="m430.81 331.1c-5.48-8.77-15.09-14.1-25.44-14.1l-156.87-45 213.124 165h35.376z" fill="#c0d4ed"/><path d="m395.434 331.1 9.938 15.9-21.315 22.5 49.441 22.5 28.126 45h-461.624l66.19-105.9c5.48-8.77 15.09-14.1 25.44-14.1l156.87-45 121.494 45c10.35 0 19.96 5.33 25.44 14.1z" fill="#deecff"/><path d="m405.373 347h-35.378l-15.938 22.5 44.063 22.5h35.378z" fill="#69a7ff"/><path d="m91.627 347-28.125 45h334.618l-28.125-45z" fill="#9cbff0"/><path d="m405.373 30h-30v287h30c16.568 0 30-13.431 30-30v-227c0-16.569-13.432-30-30-30z" fill="#404242"/><path d="m405.373 287v-15.017l-45-105.991 45-105.991c0-16.569-13.432-30-30-30h-283.745c-16.569 0-30 13.431-30 30v227c0 16.569 13.431 30 30 30h283.745c16.568-.001 30-13.432 30-30.001z" fill="#565959"/><circle cx="248.5" cy="60" fill="#404242" r="6"/><path d="m405.373 59.998-29.994-.019c-.001.005-188.506 106.011-188.506 106.011s188.501 106.008 188.5 106.01c0 0 29.999-.017 29.999-.017s-.002-211.981.001-211.985z" fill="#4b88d5"/><path d="m290.926 60-21.213 21.213c-5.452 5.426-12.947 8.787-21.213 8.787s-15.761-3.361-21.193-8.787c-.02 0-21.233-21.213-21.233-21.213h-114.447v212h283.745v-212z" fill="#69a7ff"/></g></svg>