<svg height="512" viewBox="0 0 48 58" width="512" xmlns="http://www.w3.org/2000/svg"><g id="Page-1" fill="none" fill-rule="evenodd"><g id="021---Watch-Face" fill-rule="nonzero"><path id="Shape" d="m43.146 28h3.64c.6089925.0513623 1.1477736-.3924442 1.214-1v-4c-.0662264-.6075558-.6050075-1.0513623-1.214-1h-3.786z" fill="#84b5cb"/><path id="Shape" d="m48 23v2c-.0667213-.6056042-.6026677-1.0485351-1.21-1h-3.74l-.05-2h3.79c.6073323-.0485351 1.1432787.3943958 1.21 1z" fill="#9fc9d3"/><path id="Shape" d="m44.0000442 24-.0000442 10c.011946 4.9190492-2.3960375 9.5293653-6.44 12.33-.7083775.4833592-1.4428216.9273641-2.2 1.33h-26.72c-.75717842-.4026359-1.49162248-.8466408-2.2-1.33-4.04396252-2.8006347-6.45194595-7.4109508-6.44-12.33l-.00004424-10z" fill="#393f4a"/><path id="Shape" d="m44.0000059 24-.0000059 10c.0033622 3.7892309-1.4254128 7.4397512-4 10.22v-20.22z" fill="#2c2f38"/><path id="Shape" d="m4 24v20.22c-2.57458716-2.7802488-4.00336221-6.4307691-4-10.22l-.00000592-10z" fill="#2c2f38"/><path id="Shape" d="m10.54 7.78 2.93-6.59c.3222974-.72254582 1.0388326-1.1884895 1.83-1.19h13.4c.7911674.0015105 1.5077026.46745418 1.83 1.19l2.93 6.59z" fill="#ff5364"/><path id="Shape" d="m22 0v7.78h-11.46l2.93-6.59c.3222974-.72254582 1.0388326-1.1884895 1.83-1.19z" fill="#df4d60"/><ellipse id="Oval" cx="22" cy="24" fill="#547580" rx="22" ry="19"/><path id="Shape" d="m8.329 45.312 1.442 10.949c.13098568.9951382.9792783 1.7390519 1.983 1.739h20.492c1.0037217.0000519 1.8520143-.7438618 1.983-1.739l1.442-10.949c.0448972-.3623173-.1112255-.720307-.4072939-.933926-.2960685-.213619-.6850225-.2489125-1.0147061-.092074-7.7657154 3.61908-16.7342846 3.61908-24.5 0-.32950627-.1558051-.71768644-.1199909-1.01312331.0934726-.29543687.2134636-.45133246.5707632-.40687669.9325274z" fill="#ff5364"/><path id="Shape" d="m22 47v11h-10.25c-1.0029136-.0015186-1.84962224-.7455959-1.98-1.74l-1.44-10.95c-.04977756-.3630299.10524289-.7238289.40284904-.9376023.29760614-.2137735.68901629-.2454809 1.01715096-.0823977 3.8321875 1.7995697 8.0163396 2.7252066 12.25 2.71z" fill="#df4d60"/><path id="Shape" d="m38.57 36.49c-4.4573353 4.2567556-10.4071518 6.5943117-16.57 6.51-12.15 0-22-8.51-22-19s9.85-19 22-19c2.0217054-.00264026 4.0363178.23911322 6 .72-1.01.33-2 .7-2.98 1.11-2.97 1.26-6 2.8-7.69 5.7-1.3540303 2.464613-1.6499408 5.3731964-.82 8.06 1.38 4.68 5.21 7.94 9.7 9.52 3.5 1.23 7.37 1.73 10.32 4.17.7709098.6472366 1.4564055 1.3898569 2.04 2.21z" fill="#3f5c6c"/><path id="Shape" d="m24.68 20.62c-1.690966-.8270073-3.669034-.8270073-5.36 0l.56-9.62c.0695319-1.12101532.9968381-1.99583253 2.12-2 1.1217898.00759523 2.0471261.88055398 2.12 2z" fill="#ff5364"/><path id="Shape" d="m27 24c-.0233438 1.059997-.5137912 2.0555321-1.34 2.72-1.028654.8488855-2.326502 1.3027778-3.66 1.28-2.76 0-5-1.79-5-4 .0701194-1.4729243.9691135-2.7787907 2.32-3.37v-.01c1.690966-.8270073 3.669034-.8270073 5.36 0v.01c.3522366.1753981.6814062.3937249.98.65.8262088.6644679 1.3166562 1.660003 1.34 2.72z" fill="#2c2f38"/><path id="Shape" d="m35 24c-.0017004.5454823-.2087775 1.0703156-.58 1.47-.3638409.4011969-.8695196.6450703-1.41.68l-7.35.57c.8447074-.649449 1.3397418-1.6544885 1.3397418-2.72s-.4950344-2.070551-1.3397418-2.72l7.35.57c1.124285.0843851 1.9926382 1.0225557 1.99 2.15z" fill="#4fba6f"/></g></g></svg>