<svg id="Capa_1" enable-background="new 0 0 510.603 510.603" height="512" viewBox="0 0 510.603 510.603" width="512" xmlns="http://www.w3.org/2000/svg"><g><g><g><g><path d="m384.72 258.982c-1.86 14.762-6.74 29.28-14.75 42.589l-55.678 92.513c-2.382 3.97-3.953 8.373-4.62 12.955l-5.989 59.442c-1.647 20.204-18.248 35.923-38.512 36.466-20.678.555-38.318-14.858-40.542-35.423l-9.655-75.262c-.469-3.289-1.945-6.351-4.225-8.768l-.197-.209c-6.476-6.865-17.443-6.707-23.72.341-2.081 2.337-3.436 5.23-3.898 8.325l-10.187 75.913c-2.326 20.532-20.01 35.848-40.663 35.219l-.376-.011c-20.207-.615-36.725-16.313-38.368-36.462l-5.999-59.571c-.667-4.582-2.238-8.985-4.62-12.955 0 0-8.9-14.83-21.289-35.418l-25.991-43.13c-2.386-3.953-4.776-7.908-7.144-11.827-24.835-41.084-20.796-93.412 10.273-130.461l1.217-1.451c26.163-31.198 67.537-45.202 107.27-36.312l51.449 11.512s24.164-5.241 50.488-10.968c.092-.02.184-.035.276-.055 0 0 82.49-19.221 124.888 32.156.001 0 29.272 41.683 10.562 90.852z" fill="#f9f7f8"/></g></g><g><g><path d="m158.017 466.611-5.999-59.571c-.667-4.582-2.238-8.985-4.62-12.955 0 0-8.9-14.83-21.289-35.418l-25.991-43.13c-2.386-3.953-4.776-7.908-7.144-11.827-24.835-41.085-20.796-93.413 10.273-130.462l1.217-1.451c13.85-16.516 31.965-28.21 51.841-34.242l-9.247-2.069c-39.734-8.89-81.107 5.114-107.27 36.312l-1.217 1.451c-31.07 37.048-35.109 89.376-10.274 130.461 2.369 3.919 4.758 7.874 7.144 11.827l25.991 43.13c12.388 20.588 21.289 35.418 21.289 35.418 2.383 3.97 3.953 8.373 4.62 12.955l5.999 59.571c1.643 20.149 18.162 35.847 38.368 36.462l.376.011c13.58.413 25.874-6.067 33.365-16.39-4.15-5.715-6.821-12.59-7.432-20.083z" fill="#efedef"/></g></g><path d="m81.858 334.73c-13.561-7.532-23.76-17.676-30.719-30.339-1.894-3.447-6.839-3.383-8.64.113-6.591 12.791-16.61 22.951-30.396 30.252-3.504 1.855-3.419 6.893.124 8.673 13.225 6.643 23.338 16.644 30.18 30.176 1.79 3.541 6.848 3.5 8.681-.019 6.874-13.194 17.013-23.345 30.614-30.268 3.456-1.76 3.545-6.706.156-8.588z" fill="#a7e6ef"/><path d="m249.271 135.974c-.092.02-.184.035-.276.055-8.659 1.884-17.078 3.714-24.487 5.323 4.623 79.091 70.422 142.021 150.651 142.021 1.201 0 2.399-.018 3.594-.046 2.944-7.927 4.928-16.098 5.967-24.346 18.71-49.169-10.561-90.852-10.561-90.852-42.397-51.376-124.888-32.155-124.888-32.155z" fill="#efedef"/><circle cx="375.159" cy="132.453" fill="#eaf9fa" r="125.92"/><path d="m286.955 132.453c0-63.134 46.464-115.413 107.062-124.514-6.152-.924-12.449-1.406-18.858-1.406-69.544 0-125.92 56.376-125.92 125.92s56.377 125.92 125.92 125.92c6.41 0 12.706-.482 18.858-1.406-60.597-9.1-107.062-61.379-107.062-124.514z" fill="#d4f2f6"/><path d="m444.797 105.409h-41.625v-41.626c0-4.372-3.544-7.916-7.916-7.916h-40.192c-4.372 0-7.916 3.544-7.916 7.916v41.625h-41.625c-4.372 0-7.916 3.544-7.916 7.916v40.192c0 4.372 3.544 7.916 7.916 7.916h41.625v41.625c0 4.372 3.544 7.916 7.916 7.916h40.192c4.372 0 7.916-3.544 7.916-7.916v-41.625h41.625c4.372 0 7.916-3.544 7.916-7.916v-40.192c0-4.371-3.545-7.915-7.916-7.915z" fill="#9df8d3"/></g><g><path d="m337.348 355.775c-3.546-2.134-8.157-.991-10.293 2.559l-19.193 31.891c-2.909 4.846-4.797 10.14-5.611 15.734-.016.109-.029.219-.04.329l-5.988 59.442c-.005.047-.01.095-.014.143-1.339 16.421-14.768 29.137-31.237 29.579-16.635.415-31.095-12.175-32.886-28.733-.005-.049-.011-.099-.017-.147l-9.654-75.261c-.005-.036-.01-.071-.015-.106-.692-4.849-2.835-9.294-6.184-12.842l-.208-.221c-4.525-4.797-10.903-7.519-17.497-7.399-6.595.094-12.893 2.973-17.281 7.9-3.059 3.437-5.034 7.656-5.713 12.204-.005.036-.011.073-.016.109l-10.187 75.913c-.007.051-.013.102-.019.153-1.872 16.525-16.394 29.095-32.978 28.567l-.381-.012c-16.408-.499-29.788-13.214-31.122-29.575-.004-.047-.009-.094-.014-.142l-.861-8.555c-.414-4.121-4.094-7.118-8.213-6.711-4.122.415-7.126 4.092-6.711 8.214l.854 8.487c1.99 23.945 21.585 42.544 45.604 43.274l.381.012c.477.015.949.021 1.423.021 23.736-.001 44.186-18.104 46.913-41.813l10.168-75.775c.254-1.639.971-3.159 2.073-4.398 1.621-1.82 3.856-2.842 6.293-2.876 2.416-.047 4.699.922 6.36 2.682l.209.222c1.213 1.285 1.989 2.887 2.248 4.635l9.638 75.13c2.617 23.815 23.092 42.055 46.937 42.053.417 0 .837-.006 1.256-.017 24.114-.646 43.782-19.247 45.779-43.279l5.964-59.2c.539-3.561 1.752-6.932 3.602-10.014l19.188-31.884c2.137-3.548.992-8.157-2.557-10.293z"/><path d="m508.58 133.421c0-73.568-59.852-133.421-133.42-133.421-72.398 0-131.513 57.964-133.375 129.922-20.084 4.368-37.923 8.239-43.252 9.395l-49.837-11.151c-42.645-9.541-86.577 5.331-114.655 38.812l-1.217 1.451c-33.043 39.401-37.442 95.326-10.945 139.16l4.361 7.22c-4.867 5.24-10.718 9.65-17.646 13.319-4.104 2.173-6.621 6.407-6.57 11.052.05 4.662 2.67 8.858 6.838 10.951 11.972 6.013 20.756 14.799 26.854 26.859 2.093 4.138 6.277 6.725 10.921 6.753h.076c4.654 0 8.876-2.559 11.028-6.691.919-1.765 1.904-3.453 2.942-5.083 9.338 15.527 15.608 25.975 15.609 25.977 1.854 3.09 3.067 6.46 3.606 10.021l1.901 18.878c.389 3.866 3.648 6.75 7.453 6.749.251 0 .505-.013.761-.038 4.121-.415 7.125-4.093 6.71-8.214l-1.919-19.054c-.011-.11-.024-.22-.04-.329-.814-5.594-2.702-10.887-5.611-15.733 0 0-7.494-12.486-18.296-30.446 4.157-3.805 8.891-7.052 14.249-9.779 4.075-2.075 6.658-6.211 6.741-10.796s-2.35-8.812-6.347-11.032c-12.162-6.755-21.511-15.972-27.788-27.396-2.215-4.03-6.473-6.506-11.029-6.434-4.587.062-8.745 2.638-10.851 6.725-.056.109-.117.213-.173.321l-.942-1.56c-23.179-38.344-19.32-87.277 9.602-121.763l1.217-1.451c24.461-29.168 62.738-42.124 99.886-33.812l51.449 11.512c1.063.238 2.164.242 3.228.011 0 0 19.309-4.188 42.17-9.159 2.04 23.446 10.163 45.76 23.833 65.121 2.39 3.383 7.069 4.19 10.453 1.8 3.384-2.389 4.189-7.069 1.801-10.453-13.644-19.323-21.06-41.965-21.566-65.629 0-.089-.002-.179-.005-.268-.015-.773-.044-1.543-.044-2.318-.002-65.296 53.121-118.42 118.419-118.42s118.42 53.124 118.42 118.421c0 62.267-48.306 113.462-109.412 118.08-.015.001-.03.002-.045.003-2.959.223-5.949.337-8.964.337-27.982 0-55.142-9.948-76.475-28.013-3.162-2.678-7.895-2.284-10.57.877-2.677 3.161-2.284 7.894.877 10.57 24.039 20.355 54.641 31.565 86.168 31.565.206 0 .41-.007.616-.008-2.345 10.892-6.438 21.245-12.231 30.871l-19.957 33.161c-2.136 3.549-.99 8.157 2.559 10.293 1.21.729 2.543 1.075 3.86 1.075 2.544 0 5.025-1.295 6.433-3.634l19.957-33.16c7.381-12.263 12.368-25.549 14.862-39.572 66.004-7.973 117.322-64.325 117.322-132.445zm-461.666 178.586c6.763 10.825 15.896 19.842 27.234 26.888-6.723 3.917-12.644 8.688-17.774 14.234-.246.224-.469.465-.679.715-3.327 3.693-6.311 7.721-8.924 12.093-6.618-11.344-15.657-20.375-26.953-26.929 8.357-5.023 15.448-11.208 21.221-18.479.173-.194.335-.395.485-.604 1.954-2.511 3.751-5.152 5.39-7.918z"/><path d="m395.255 48.368h-40.192c-8.5 0-15.415 6.916-15.415 15.416v34.125h-34.126c-8.5 0-15.416 6.916-15.416 15.416v40.192c0 8.5 6.916 15.416 15.416 15.416h34.126v34.125c0 8.5 6.915 15.416 15.415 15.416h40.192c8.5 0 15.416-6.916 15.416-15.416v-34.125h34.125c8.5 0 15.416-6.916 15.416-15.416v-40.192c0-8.5-6.916-15.416-15.416-15.416h-34.125v-34.126c0-8.5-6.916-15.415-15.416-15.415zm49.541 64.541c.229 0 .416.187.416.416v40.192c0 .229-.187.416-.416.416h-41.625c-4.143 0-7.5 3.358-7.5 7.5v41.625c0 .229-.187.416-.416.416h-40.192c-.229 0-.415-.187-.415-.416v-41.625c0-4.142-3.357-7.5-7.5-7.5h-41.626c-.229 0-.416-.187-.416-.416v-40.192c0-.229.187-.416.416-.416h41.626c4.143 0 7.5-3.358 7.5-7.5v-41.626c0-.229.187-.416.415-.416h40.192c.229 0 .416.187.416.416v41.625c0 4.142 3.357 7.5 7.5 7.5h41.625z"/></g></g></svg>