<svg id="Layer_1" enable-background="new 0 0 512 512" height="512" viewBox="0 0 512 512" width="512" xmlns="http://www.w3.org/2000/svg"><g><path d="m196.257 90.743h170v280h-170z" fill="#bbf7ff" transform="matrix(-.707 -.707 .707 -.707 316.976 592.782)"/><path d="m419.89 212.32-177.52 177.52-120.21-120.21 57.31-57.31z" fill="#f75632"/><path d="m190.755 265.24h280v30h-280z" fill="#8bf0ff" transform="matrix(.707 -.707 .707 .707 -101.284 315.959)"/><path d="m221.156 368.626 21.213 21.213 177.519-177.519h-42.426z" fill="#e33629"/><path d="m427.982 11.893 72.125 72.125c5.858 5.858 5.858 15.355 0 21.213-5.858 5.858-15.355 5.858-21.213 0l-72.125-72.125c-5.858-5.858-5.858-15.355 0-21.213 5.857-5.857 15.355-5.857 21.213 0z" fill="#f3f3f3"/><path d="m500.107 84.018-21.213-21.213c5.858 5.858 5.858 15.355 0 21.213s-15.355 5.858-21.213 0l21.213 21.213c5.858 5.858 15.355 5.858 21.213 0 5.857-5.857 5.857-15.355 0-21.213z" fill="#e4e4e4"/><path d="m407.148 60.602h30v58.5h-30z" fill="#e4e4e4" transform="matrix(-.707 -.707 .707 -.707 657.117 451.891)"/><path d="m122.158 269.634 120.208 120.208-18.385 18.385c-3.124 3.124-8.19 3.124-11.314 0l-54.447-54.447-54.447-54.447c-3.124-3.124-3.124-8.19 0-11.314z" fill="#4380a0"/><path d="m221.153 368.629-18.385 18.385c-3.124 3.124-8.19 3.124-11.314 0l21.213 21.213c3.124 3.124 8.19 3.124 11.314 0l18.385-18.385z" fill="#3a7190"/><path d="m137.046 332.528 42.426 42.426-15.556 15.556c-8.592 8.592-22.521 8.592-31.113 0l-5.657-5.657-5.657-5.657c-8.592-8.592-8.592-22.521 0-31.113z" fill="#3a7190"/><path d="m158.259 353.741-15.556 15.556c-6.86 6.86-17.122 8.236-25.354 4.141 1.034 2.077 2.41 4.027 4.141 5.759l11.314 11.314c8.592 8.592 22.521 8.592 31.113 0l15.556-15.556z" fill="#2b6181"/><path d="m447.427 198.923-134.35-134.35c-5.858-5.858-5.858-15.355 0-21.213 5.858-5.858 15.355-5.858 21.213 0l134.35 134.35c5.858 5.858 5.858 15.355 0 21.213-5.858 5.858-15.355 5.858-21.213 0z" fill="#f3f3f3"/><path d="m468.64 177.71-21.213-21.213c5.858 5.858 5.858 15.355 0 21.213s-15.355 5.858-21.213 0l21.213 21.213c5.858 5.858 15.355 5.858 21.213 0s5.858-15.355 0-21.213z" fill="#e4e4e4"/><g><path d="m505.42 78.706-7.001-7.001c-2.929-2.929-7.678-2.929-10.607 0s-2.929 7.678 0 10.607l7.001 7.001c2.924 2.924 2.924 7.683 0 10.607-2.925 2.924-7.682 2.924-10.607 0l-72.126-72.127c-2.924-2.924-2.924-7.682 0-10.607 2.925-2.923 7.682-2.924 10.607 0l42.514 42.514c2.929 2.929 7.678 2.929 10.607 0s2.929-7.678 0-10.607l-42.514-42.514c-8.773-8.773-23.048-8.773-31.82 0-8.773 8.773-8.773 23.047 0 31.82l20.153 20.153-30.76 30.76-51.267-51.266c-8.772-8.773-23.047-8.774-31.82 0-4.25 4.25-6.59 9.9-6.59 15.91s2.34 11.66 6.59 15.91l1.768 1.768-25.058 25.058c-2.929 2.929-2.929 7.678 0 10.607 2.929 2.93 7.678 2.929 10.607 0l25.058-25.057 109.604 109.604-12.987 12.987c-.126-.006-.25-.019-.378-.019h-153.64l-10.726-10.726c-2.929-2.929-7.678-2.929-10.607 0s-2.929 7.678 0 10.607l.12.12h-43.957l74.888-74.888c2.929-2.929 2.929-7.678 0-10.607s-7.678-2.929-10.607 0l-163.392 163.39c-2.928 2.928-4.541 6.82-4.541 10.961 0 4.14 1.612 8.033 4.54 10.961l27.931 27.931-10.215 10.215c-5.572 5.571-8.641 12.98-8.641 20.86s3.069 15.288 8.641 20.86l.354.354-114.345 114.345c-2.929 2.929-2.929 7.678 0 10.607 1.464 1.464 3.384 2.196 5.303 2.196s3.839-.732 5.303-2.197l114.346-114.346.354.354c5.572 5.572 12.98 8.641 20.86 8.641s15.288-3.069 20.86-8.641l10.215-10.215 27.931 27.931c2.928 2.928 6.82 4.54 10.961 4.54s8.033-1.612 10.96-4.54l36.773-36.773c2.929-2.929 2.929-7.678 0-10.607s-7.678-2.929-10.607 0l-13.084 13.084-109.605-109.602 49.815-49.815h73.958l15.993 15.994c1.464 1.464 3.384 2.197 5.303 2.197s3.839-.732 5.303-2.197c2.929-2.929 2.929-7.678 0-10.607l-5.387-5.387h124.038l-123.71 123.71c-2.929 2.929-2.929 7.678 0 10.607 1.464 1.464 3.384 2.197 5.303 2.197s3.839-.732 5.303-2.197l151.678-151.679 1.768 1.768c4.25 4.25 9.9 6.59 15.91 6.59s11.661-2.341 15.91-6.59c8.773-8.773 8.773-23.047 0-31.821l-51.266-51.266 30.76-30.76 20.153 20.153c4.386 4.386 10.148 6.58 15.91 6.58s11.524-2.193 15.91-6.58c8.774-8.773 8.774-23.047.001-31.82zm-346.804 306.498c-2.739 2.739-6.38 4.247-10.253 4.247s-7.515-1.508-10.254-4.247l-11.314-11.314c-2.739-2.739-4.247-6.381-4.247-10.254s1.508-7.514 4.247-10.253l10.215-10.215 31.82 31.821zm73.149 4.635-13.082 13.082c-.036.036-.146.146-.353.146s-.318-.11-.354-.146l-32.619-32.619c-.179-.226-.369-.446-.577-.654l-42.427-42.427c-.209-.209-.428-.398-.654-.577l-32.619-32.619c-.036-.036-.146-.147-.146-.354s.11-.317.146-.354l13.082-13.082zm231.581-196.226c-1.416 1.417-3.299 2.197-5.303 2.197-2.003 0-3.887-.78-5.303-2.197l-134.353-134.353c-1.417-1.417-2.197-3.3-2.197-5.303s.78-3.887 2.197-5.303c1.462-1.462 3.383-2.193 5.303-2.193 1.921 0 3.841.731 5.304 2.193l134.353 134.353c2.924 2.923 2.924 7.682-.001 10.606zm-51.266-83.086-10.607-10.607 30.76-30.76 10.607 10.607z"/><path d="m341.406 174.435c1.919 0 3.839-.732 5.303-2.197 2.929-2.929 2.929-7.678 0-10.607l-31.113-31.113c-2.929-2.929-7.678-2.929-10.607 0s-2.929 7.678 0 10.607l31.113 31.113c1.465 1.465 3.384 2.197 5.304 2.197z"/><path d="m273.205 172.909 15.556 15.557c1.464 1.465 3.384 2.197 5.303 2.197s3.839-.732 5.303-2.197c2.929-2.929 2.929-7.677 0-10.607l-15.556-15.557c-2.929-2.93-7.678-2.929-10.607 0-2.928 2.929-2.928 7.678.001 10.607z"/><path d="m230.497 254.231c1.919 0 3.839-.732 5.303-2.197 2.929-2.929 2.929-7.678 0-10.607l-15.557-15.556c-2.929-2.93-7.678-2.929-10.607 0s-2.929 7.678 0 10.607l15.557 15.556c1.465 1.465 3.384 2.197 5.304 2.197z"/><path d="m177.852 257.655c-2.929 2.929-2.929 7.678 0 10.607l31.113 31.113c1.464 1.465 3.384 2.197 5.303 2.197s3.839-.732 5.303-2.197c2.929-2.929 2.929-7.678 0-10.607l-31.113-31.113c-2.928-2.929-7.677-2.929-10.606 0z"/></g></g></svg>