<?xml version="1.0" encoding="iso-8859-1"?>
<!-- Generator: Adobe Illustrator 19.0.0, SVG Export Plug-In . SVG Version: 6.00 Build 0)  -->
<svg version="1.1" id="Layer_1" xmlns="http://www.w3.org/2000/svg" xmlns:xlink="http://www.w3.org/1999/xlink" x="0px" y="0px"
	 viewBox="0 0 511.999 511.999" style="enable-background:new 0 0 511.999 511.999;" xml:space="preserve">
<path style="fill:#EEBE43;" d="M385.334,172.525l-50.086-55.985c-10.129-11.353-29.161-4.23-29.161,11.13v72.681
	c0,9.238-7.456,16.695-16.695,16.695c-9.239,0-16.695-7.457-16.695-16.695v-38.733c0-25.377-5.899-49.864-16.695-71.679
	c-21.369-44.076-61.997-77.912-111.748-89.153c-6.678-2.115-14.024,0.11-18.364,5.788c-4.787,6.344-4.563,15.248,0.778,21.259
	c39.958,46.859,36.84,102.51,0,144.694c-51.199,57.655-48.082,135.233,0,189.215c28.381,31.833,69.23,50.086,111.858,50.086h34.95
	c42.629,0,83.477-18.254,111.858-50.086C436.533,304.085,433.416,226.507,385.334,172.525z"/>
<path style="fill:#E4A637;" d="M385.334,361.74c-28.381,31.833-69.23,50.086-111.858,50.086H256V89.939
	c10.796,21.815,16.695,46.302,16.695,71.679v38.733c0,9.238,7.456,16.695,16.695,16.695c9.239,0,16.695-7.457,16.695-16.695V127.67
	c0-15.36,19.033-22.483,29.161-11.13l50.086,55.985C433.416,226.507,436.533,304.085,385.334,361.74z"/>
<path style="fill:#F6DF5A;" d="M238.522,378.436c-33.195,0-64.88-14.184-86.933-38.918c-38.5-43.228-38.489-101.434,0.043-144.824
	c37.293-42.7,46.608-95.069,28.022-142.987c19.619,12.989,35.836,31.217,46.304,52.799c8.772,17.739,13.347,37.407,13.347,57.113
	v38.733c0,27.619,22.468,50.086,50.086,50.086c27.619,0,50.086-22.468,50.086-50.086v-29.006l20.967,23.44
	c38.467,43.19,38.456,101.396-0.076,144.786c-22.01,24.679-53.695,38.864-86.89,38.864L238.522,378.436L238.522,378.436z"/>
<path style="fill:#F0CA45;" d="M360.444,194.786l-20.967-23.44v29.006c0,27.619-22.468,50.086-50.086,50.086
	c-12.874,0-24.509-5.018-33.391-13.027v141.025h17.478c33.195,0,64.88-14.184,86.89-38.864
	C398.9,296.182,398.911,237.976,360.444,194.786z"/>
<path style="fill:#95673F;" d="M445.215,378.436H66.785v133.563h378.43c36.826,0,66.782-29.956,66.782-66.782
	S482.04,378.436,445.215,378.436z"/>
<path style="fill:#875334;" d="M445.215,378.436H256v133.563h189.215c36.826,0,66.782-29.956,66.782-66.782
	S482.04,378.436,445.215,378.436z"/>
<path style="fill:#F5DEB2;" d="M66.785,511.999c-36.826,0-66.782-29.956-66.782-66.782s29.956-66.782,66.782-66.782
	s66.782,29.956,66.782,66.782S103.61,511.999,66.785,511.999z"/>
<path style="fill:#72462C;" d="M445.215,461.913h-89.042c-9.217,0-16.695-7.473-16.695-16.695c0-9.223,7.478-16.695,16.695-16.695
	h89.042c9.217,0,16.695,7.473,16.695,16.695C461.91,454.44,454.432,461.913,445.215,461.913z"/>
<path style="fill:#875334;" d="M289.391,428.522h-72.347c-18.413,0-33.391-14.978-33.391-33.391v-16.695h-33.179l0.07,22.261
	c2.843,34.226,31.551,61.217,66.499,61.217h72.347c9.217,0,16.695-7.473,16.695-16.695
	C306.085,435.995,298.608,428.522,289.391,428.522z"/>
<path style="fill:#EFCB99;" d="M66.785,412.745c-18.413,0-33.391,14.978-33.391,33.391s14.978,33.391,33.391,33.391
	s33.391-14.978,33.391-33.391S85.198,412.745,66.785,412.745z"/>
<path style="fill:#72462C;" d="M289.391,428.522H256v33.391h33.391c9.217,0,16.695-7.473,16.695-16.695
	C306.086,435.995,298.608,428.522,289.391,428.522z"/>
<g>
</g>
<g>
</g>
<g>
</g>
<g>
</g>
<g>
</g>
<g>
</g>
<g>
</g>
<g>
</g>
<g>
</g>
<g>
</g>
<g>
</g>
<g>
</g>
<g>
</g>
<g>
</g>
<g>
</g>
</svg>
