<svg id="Capa_1" enable-background="new 0 0 512 512" height="512" viewBox="0 0 512 512" width="512" xmlns="http://www.w3.org/2000/svg"><g><g><path d="m382.969 252.623c.438-15.374-5.211-30.891-16.942-42.621-12.965-12.965-30.553-18.479-47.456-16.572l-5.745 5.745c-6.453 6.453-9.471 15.624-7.957 24.622 1.926 11.441 7.295 22.415 16.122 31.241 11.732 11.732 27.258 17.374 42.637 16.931 10.55-.304 19.041-8.797 19.341-19.346z" fill="#17998c"/><path d="m363.627 271.97c-15.383.442-30.9-5.203-42.631-16.934-3.202-3.202-5.962-6.695-8.254-10.389 9.822 6.103 21.061 8.988 32.234 8.671 10.547-.308 19.035-8.796 19.335-19.352.317-11.156-2.568-22.395-8.671-32.217 3.694 2.293 7.179 5.044 10.389 8.254 11.731 11.731 17.376 27.248 16.942 42.623-.309 10.547-8.797 19.035-19.344 19.344z" fill="#138b80"/></g><g><path d="m259.378 129.031c15.374-.438 30.891 5.211 42.621 16.942 12.965 12.964 18.479 30.553 16.573 47.456l-5.745 5.745c-6.453 6.453-15.624 9.471-24.622 7.957-11.441-1.926-22.415-7.295-31.241-16.122-11.732-11.732-17.374-27.258-16.931-42.637.303-10.55 8.795-19.041 19.345-19.341z" fill="#138b80"/><path d="m318.57 193.428-5.745 5.745c-6.453 6.453-15.625 9.472-24.622 7.963-11.439-1.934-22.412-7.304-31.233-16.125-3.852-3.852-7.045-8.113-9.588-12.64 5.861 3.277 12.157 5.453 18.602 6.545 8.996 1.509 18.168-1.509 24.622-7.963l5.745-5.745c1.342-11.881-.984-24.113-6.995-34.827 4.527 2.543 8.788 5.737 12.648 9.597 12.955 12.956 18.475 30.549 16.566 47.45z" fill="#127e73"/></g><g><g><g><path d="m212.281 203.703c-2.68-24.269-16.934-48.671-36.889-59.791-3.151-1.756-7.027-1.757-10.179-.001-19.956 11.113-34.217 35.523-36.899 59.792-.287 2.599-2.436 4.59-5.051 4.59h-3.016c-6.869 0-11.932 6.352-10.489 13.068 5.998 27.922 30.824 48.852 60.539 48.852s54.54-20.93 60.539-48.852c1.443-6.715-3.62-13.068-10.489-13.068h-3.016c-2.614.001-4.763-1.99-5.05-4.59z" fill="#17998c"/><path d="m170.297 270.217c-5.208 0-10.257-.647-15.086-1.862 22.748-5.689 40.509-23.971 45.448-46.995 1.444-6.715-3.614-13.066-10.478-13.066h-3.019c-2.615 0-4.763-1.992-5.051-4.591-2.211-19.985-12.265-40.069-26.892-52.732 3.132-2.722 6.47-5.097 9.997-7.062 3.156-1.752 7.022-1.752 10.178 0 19.96 11.127 34.208 35.536 36.891 59.806.287 2.595 2.436 4.58 5.047 4.58h3.022c6.865 0 11.922 6.352 10.478 13.066-5.99 27.923-30.82 48.856-60.535 48.856z" fill="#138b80"/></g><g><path d="m241.56 448.442c24.269-2.68 48.671-16.934 59.791-36.889 1.756-3.151 1.757-7.027.001-10.179-11.113-19.956-35.522-34.217-59.792-36.899-2.599-.287-4.59-2.436-4.59-5.051v-3.016c0-6.869-6.352-11.932-13.068-10.489-27.922 5.998-48.852 30.824-48.852 60.539s20.93 54.54 48.852 60.539c6.715 1.443 13.068-3.62 13.068-10.489v-3.016c0-2.614 1.991-4.763 4.59-5.05z" fill="#17998c"/><path d="m175.047 406.458c0-5.208.647-10.257 1.862-15.086 5.689 22.748 23.971 40.509 46.995 45.448 6.715 1.444 13.066-3.614 13.066-10.478v-3.019c0-2.615 1.992-4.763 4.591-5.051 19.985-2.211 40.069-12.265 52.732-26.892 2.722 3.132 5.097 6.47 7.062 9.997 1.752 3.156 1.752 7.022 0 10.178-11.127 19.96-35.536 34.208-59.806 36.891-2.595.287-4.58 2.436-4.58 5.047v3.022c0 6.865-6.352 11.922-13.066 10.478-27.923-5.99-48.856-30.821-48.856-60.535z" fill="#138b80"/></g></g><path d="m356.576 155.423c-2.972-2.971-7.792-2.971-10.764 0l-169.595 169.596c.927-5.094 1.423-10.301 1.423-15.583l.27-41.861c0-.009-.001-.017-.001-.026 0-.008.001-.015.001-.023v-68.553c0-4.204-3.408-7.611-7.611-7.611-4.204 0-7.611 3.407-7.611 7.611v68.504l-.27 41.91c0 18.98-7.391 36.824-20.812 50.244l-4.512 4.512-2.764-2.764c-2.972-2.973-7.791-2.972-10.764-.001-2.972 2.972-2.973 7.792 0 10.764l2.764 2.765-34.151 34.151c.93-5.109 1.427-10.333 1.427-15.636 0-4.204-3.408-7.611-7.611-7.611s-7.611 3.407-7.611 7.611c0 18.974-7.388 36.814-20.802 50.233l-55.352 55.351c-2.973 2.973-2.973 7.792 0 10.765 1.486 1.486 3.434 2.229 5.382 2.229s3.896-.743 5.382-2.229l28.318-28.318 2.764 2.764c1.487 1.486 3.434 2.229 5.382 2.229s3.896-.743 5.383-2.23c2.972-2.972 2.972-7.792 0-10.764l-2.764-2.764 23.041-23.041 2.764 2.764c1.486 1.487 3.434 2.23 5.382 2.23 1.947 0 3.896-.743 5.382-2.229 2.972-2.972 2.973-7.792 0-10.764l-2.764-2.765 1.742-1.742c13.42-13.421 31.264-20.812 50.293-20.812l39.872-.26h68.502c4.204 0 7.611-3.407 7.611-7.612s-3.408-7.611-7.611-7.611h-68.551-.001c-.017 0-.033 0-.05 0l-39.823.26c-5.303 0-10.528.497-15.636 1.427l92.334-92.334 2.763 2.764c1.487 1.487 3.435 2.23 5.383 2.23s3.896-.743 5.382-2.229c2.972-2.972 2.973-7.792.001-10.764l-2.754-2.754c13.372-13.155 31.034-20.402 49.814-20.402 4.204 0 7.612-3.407 7.612-7.611s-3.408-7.612-7.612-7.612c-5.303 0-10.528.497-15.637 1.428l97.061-97.061c2.972-2.973 2.972-7.792-.001-10.765z" fill="#138b80"/><g><g><path d="m345.453 144.972 23.955 23.955 45.115-45.115c30.513-30.513 30.513-79.985 0-110.498l-10.301-10.301c-4.017-4.017-10.53-4.017-14.547 0l-44.221 44.221c-26.99 26.99-26.99 70.748-.001 97.738z" fill="#cf0e50"/></g><g><path d="m367.028 166.547-23.955-23.955 45.115-45.115c30.513-30.513 79.985-30.513 110.498 0l10.302 10.302c4.017 4.017 4.017 10.53 0 14.547l-44.221 44.221c-26.99 26.989-70.749 26.989-97.739 0z" fill="#be0c4a"/></g><g><path d="m400.993 33.878-42.327 53.557 65.899 65.899 53.558-42.327z" fill="#fb1466"/><path d="m478.122 111-53.554 42.331-18.785-18.785 53.562-42.322z" fill="#e01058"/><ellipse cx="439.558" cy="72.442" fill="#fdc1dd" rx="13.846" ry="54.539" transform="matrix(.707 -.707 .707 .707 77.519 332.032)"/></g><g><path d="m296.585 176.383 32.684 32.684 45.115-45.115c30.513-30.513 30.513-79.985 0-110.498l-19.03-19.03c-4.017-4.017-10.53-4.017-14.547 0l-44.221 44.221c-26.99 26.99-26.99 70.749-.001 97.738z" fill="#fc5a95"/><g fill="#fb3a82"><path d="m374.384 163.952-45.111 45.111-32.689-32.679c-2.73-2.73-5.176-5.622-7.348-8.667l44.461-44.451c16.857-16.857 38.758-26.853 62.303-28.568 4.436 24.356-2.78 50.418-21.616 69.254z"/><path d="m374.383 163.945-45.116 45.116-26.614-26.614 45.116-45.116c28.615-28.615 30.391-73.931 5.328-104.614.8.45 1.567 1.017 2.259 1.709l19.027 19.027c30.516 30.516 30.508 79.984 0 110.492z"/></g></g><g><path d="m335.617 215.415-32.684-32.684 45.115-45.115c30.513-30.513 79.985-30.513 110.498 0l19.03 19.03c4.017 4.017 4.017 10.53 0 14.547l-44.221 44.221c-26.99 26.99-70.749 26.99-97.738.001z" fill="#fc78a8"/><path d="m477.58 171.191-44.224 44.224c-26.99 26.99-70.746 26.99-97.736 0l-19.46-19.46c26.99 26.989 70.746 26.989 97.736 0l44.224-44.224c3.96-3.96 4.01-10.364.141-14.399l19.319 19.319c4.01 4.009 4.01 10.529 0 14.54z" fill="#fc5a95"/></g></g></g></g></svg>