<svg id="Capa_1" enable-background="new 0 0 512 512" height="512" viewBox="0 0 512 512" width="512" xmlns="http://www.w3.org/2000/svg"><g><g><path d="m371 150.05v-66.305c0-9.737-7.893-17.63-17.63-17.63-9.737 0-17.63 7.893-17.63 17.63v92.48z" fill="#64b9fc"/><path d="m406.26 117.929v-67.24c0-9.736-7.893-17.63-17.63-17.63-9.737 0-17.63 7.893-17.63 17.63v90.277z" fill="#1c96f9"/><path d="m441.519 84.752v-67.118c0-9.737-7.893-17.63-17.63-17.63-9.737 0-17.63 7.893-17.63 17.63v88.073z" fill="#64b9fc"/></g><g><path d="m371.038 140.966h57.221c9.737 0 17.63 7.893 17.63 17.63 0 9.737-7.893 17.63-17.63 17.63h-92.48z" fill="#1c96f9"/><path d="m445.89 158.598c0 4.873-1.968 9.271-5.161 12.465-3.194 3.183-7.603 5.161-12.465 5.161h-29.504c4.862 0 9.271-1.978 12.465-5.161 3.194-3.194 5.161-7.592 5.161-12.465 0-9.735-7.891-17.636-17.626-17.636h29.504c9.735 0 17.626 7.901 17.626 17.636z" fill="#1785f8"/><path d="m406.298 105.707h55.017c9.736 0 17.63 7.893 17.63 17.63 0 9.737-7.893 17.63-17.63 17.63h-90.277z" fill="#1785f8"/><g><path d="m478.948 123.335c0 4.862-1.978 9.271-5.171 12.465-3.194 3.193-7.603 5.161-12.465 5.161h-29.504c4.873 0 9.282-1.968 12.475-5.161 3.183-3.194 5.161-7.603 5.161-12.465 0-9.735-7.891-17.626-17.636-17.626h29.504c9.735 0 17.636 7.891 17.636 17.626z" fill="#1576f7"/></g><path d="m441.557 70.447h52.813c9.737 0 17.63 7.893 17.63 17.63 0 9.737-7.893 17.63-17.63 17.63h-88.073z" fill="#1c96f9"/><path d="m511.996 88.073c0 4.873-1.978 9.282-5.161 12.475-3.193 3.193-7.592 5.161-12.465 5.161h-29.504c4.873 0 9.282-1.968 12.465-5.161 3.194-3.193 5.171-7.603 5.171-12.475 0-9.735-7.901-17.626-17.636-17.626h29.504c9.735 0 17.626 7.891 17.626 17.626z" fill="#1785f8"/></g><g><path d="m296.535 137.938c-27.571 0-52.472 12.173-70.254 31.747-2.021 2.225-5.539 2.225-7.56 0-17.78-19.574-42.671-31.747-70.242-31.747-54.046 0-97.867 46.752-97.867 104.434 0 50.41 46.058 136.046 148.078 188.483 6.203 3.184 12.605 6.258 19.227 9.178 2.92 1.289 6.259 1.289 9.178 0 6.611-2.92 13.024-5.994 19.227-9.178 102-52.437 148.068-138.073 148.068-188.483 0-57.682-43.809-104.434-97.855-104.434zm-74.034 198.907c-26.163 0-47.38-21.217-47.38-47.38s21.217-47.38 47.38-47.38 47.38 21.217 47.38 47.38-21.218 47.38-47.38 47.38z" fill="#fca5cd"/><g><path d="m225.734 336.734-68.794 68.794c-9.354-6.624-18.048-13.536-26.115-20.634l60.11-60.11c8.385 7.51 19.439 12.063 31.564 12.063 1.082 0 2.163-.041 3.235-.113z" fill="#fc7cb6"/></g><path d="m394.389 242.369c0 50.409-46.062 136.048-148.06 188.48-6.207 3.188-12.62 6.254-19.24 9.178-2.918 1.289-6.26 1.288-9.177-.002-6.612-2.924-13.024-5.989-19.229-9.176-1.908-.983-3.792-1.965-5.654-2.983 98.044-52.641 142.395-136.036 142.395-185.497 0-46.721-28.731-86.262-68.376-99.605 9.307-3.145 19.204-4.833 29.483-4.833 54.05 0 97.858 46.756 97.858 104.438z" fill="#fc7cb6"/></g><g><path d="m124.085 472.187-11.108-64.19c-.794-4.59-4.389-8.184-8.978-8.978l-64.19-11.108c-5.635-.975-11.079 2.523-12.534 8.053l-26.9 102.198c-2.148 8.161 5.299 15.608 13.46 13.46l102.198-26.9c5.53-1.456 9.027-6.9 8.052-12.535z" fill="#64b9fc"/><path d="m116.029 484.725-102.191 26.896c-8.165 2.15-15.614-5.298-13.463-13.463l4.285-16.268 85.915-22.618c5.532-1.465 9.038-6.903 8.056-12.544l-8.672-50.137 14.04 2.431c4.589.787 8.189 4.386 8.976 8.976l11.11 64.185c.982 5.639-2.524 11.078-8.056 12.542z" fill="#31a7fb"/></g><g><path d="m265.594 269.753-191.816 191.805c-3.228 3.228-7.449 4.837-11.68 4.837s-8.462-1.609-11.691-4.837c-6.457-6.457-6.457-16.913 0-23.37l191.805-191.816c10.326 4.727 18.656 13.057 23.382 23.381z" fill="#eaf6ff"/></g><path d="m265.594 269.753-17.828 17.828c-.915-12.473-10.908-22.467-23.381-23.381l17.828-17.828c10.325 4.727 18.655 13.057 23.381 23.381z" fill="#c5e2ff"/></g></svg>