<svg id="Layer_1" enable-background="new 0 0 512 512" height="512" viewBox="0 0 512 512" width="512" xmlns="http://www.w3.org/2000/svg"><g><path d="m188.487 307.628c0 49.98-40.516 90.5-90.5 90.5-6.519 0-12.869-.69-18.998-2.01-40.855-8.72-71.492-45.03-71.492-88.49 0-43.47 30.637-79.78 71.492-88.5 6.129-1.32 12.479-2.01 18.998-2.01 49.985 0 90.5 40.52 90.5 90.51z" fill="#eef7ff"/><path d="m188.487 307.628c0 49.98-40.516 90.5-90.5 90.5-6.519 0-12.869-.69-18.998-2.01 40.866-8.72 71.502-45.03 71.502-88.49 0-43.47-30.636-79.78-71.502-88.5 6.129-1.32 12.479-2.01 18.998-2.01 49.985 0 90.5 40.52 90.5 90.51z" fill="#d8e5ef"/><g><g><path d="m97.991 209.623c-54.032 0-97.991 43.964-97.991 98.002s43.959 98.002 97.991 98.002 97.991-43.964 97.991-98.002-43.959-98.002-97.991-98.002zm0 181.004c-45.762 0-82.993-37.234-82.993-83.002s37.23-83.002 82.993-83.002 82.993 37.234 82.993 83.002-37.23 83.002-82.993 83.002z" fill="#46637f"/><path d="m504.502 307.628c0 49.98-40.516 90.5-90.49 90.5-6.339 0-12.529-.65-18.498-1.9-41.116-8.53-72.002-44.96-72.002-88.6 0-43.65 30.886-80.08 72.002-88.61 5.969-1.25 12.159-1.9 18.498-1.9 49.975 0 90.49 40.52 90.49 90.51z" fill="#eef7ff"/><path d="m504.502 307.628c0 49.98-40.516 90.5-90.49 90.5-6.339 0-12.529-.65-18.498-1.9 41.106-8.53 71.992-44.96 71.992-88.6 0-43.65-30.886-80.08-71.992-88.61 5.969-1.25 12.159-1.9 18.498-1.9 49.975 0 90.49 40.52 90.49 90.51z" fill="#d8e5ef"/><path d="m414.009 209.623c-54.032 0-97.991 43.964-97.991 98.002s43.959 98.002 97.991 98.002 97.991-43.964 97.991-98.002-43.959-98.002-97.991-98.002zm0 181.004c-45.762 0-82.993-37.234-82.993-83.002s37.23-83.002 82.993-83.002 82.993 37.234 82.993 83.002-37.231 83.002-82.993 83.002z" fill="#46637f"/></g><path d="m250.673 276.612-65.225-150.918-13.75 5.99 22.226 52.191-101.201 99.519 10.515 10.695 97.1-95.485 36.584 83.999z" fill="#33e279"/><ellipse cx="256.028" cy="307.625" fill="#eef7ff" rx="30.556" ry="30.559"/><g><g><g><g><path d="m256.156 269.566-158.718 11.696c-4.13.305-7.232 3.901-6.926 8.032.291 3.942 3.58 6.947 7.471 6.947.186 0 .372-.007.56-.021l125.551-9.276c-3.871 5.958-6.121 13.061-6.121 20.68s2.251 14.722 6.121 20.679l-125.551-9.275c-4.141-.291-7.727 2.797-8.031 6.927-.306 4.131 2.796 7.728 6.926 8.032l158.59 11.695h.007.009c20.976-.009 38.039-17.079 38.039-38.059.001-20.942-17.001-37.988-37.927-38.057zm.125 61.116-3.914-.289c-10.98-1.759-19.396-11.299-19.396-22.768s8.416-21.01 19.396-22.769l3.914-.289c12.597.136 22.804 10.428 22.804 23.058s-10.206 22.921-22.804 23.057z" fill="#46637f"/></g></g></g></g></g><g><path d="m153.27 106.373c-5.4 0-9.778 4.357-9.778 9.731 0 11.168 9.097 20.222 20.319 20.222h32.345c11.222 0 20.319-9.054 20.319-20.222 0-5.374-4.378-9.731-9.778-9.731z" fill="#f7904b"/><g><path d="m413.497 287.55-64.744-166.177h42.457c1.257 0 2.279 1.001 2.279 2.23 0 7.015-5.751 12.722-12.82 12.722-4.142 0-7.499 3.357-7.499 7.5s3.358 7.5 7.499 7.5c15.339 0 27.819-12.436 27.819-27.722 0-9.501-7.751-17.23-17.277-17.23h-53.427c-2.477 0-4.793 1.223-6.191 3.268s-1.696 4.647-.797 6.955l24.53 62.96-105.033 123.203c-2.687 3.152-2.311 7.886.841 10.573 1.412 1.204 3.141 1.793 4.862 1.793 2.12 0 4.227-.895 5.71-2.634l99.801-117.068 38.015 97.572c1.155 2.966 3.988 4.779 6.989 4.779.905 0 1.826-.165 2.721-.514 3.859-1.503 5.769-5.851 4.265-9.71z" fill="#33e279"/></g></g><g fill="#46637f"><ellipse cx="97.991" cy="307.625" rx="26.381" ry="26.384"/><ellipse cx="414.009" cy="307.625" rx="26.381" ry="26.384"/></g></g></svg>