<svg id="Capa_1" enable-background="new 0 0 511.999 511.999" height="512" viewBox="0 0 511.999 511.999" width="512" xmlns="http://www.w3.org/2000/svg"><path d="m252.914 252.248c-18.418-12.636-31.656-35.868-36.926-65.443-7.48-41.977 1.64-100.923 36.926-146.02v-40.426c-.399.073-.798.161-1.196.268-36.322 9.747-68.742 25.121-96.357 45.695-24.985 18.614-46.168 41.555-62.963 68.186-28.32 44.908-43.918 100.484-43.918 156.49 0 8.284 6.716 15 15 15h189.434z" fill="#ff7c48"/><path d="m252.914 252.248c-18.418-12.636-31.656-35.868-36.926-65.443-7.48-41.977 1.64-100.923 36.926-146.02v-40.426c-.399.073-.798.161-1.196.268-36.322 9.747-68.742 25.121-96.357 45.695-24.985 18.614-46.168 41.555-62.963 68.186-28.32 44.908-43.918 100.484-43.918 156.49 0 8.284 6.716 15 15 15h189.434z" fill="#ff7c48"/><path d="m424.954 258.24c-60.728-37.554-135.524-147.704-153.908-226.654-1.267-5.442-5.385-9.54-10.472-11.005v265.417h156.49c6.705 0 12.595-4.45 14.429-10.899 1.833-6.449-.837-13.332-6.539-16.859z" fill="#ff415b"/><path d="m255.999 346.19c-8.284 0-15-6.716-15-15v-316.19c0-8.284 6.716-15 15-15s15 6.716 15 15v316.19c0 8.284-6.715 15-15 15z" fill="#ffd222"/><path d="m256.056.003v346.184c8.258-.031 14.943-6.732 14.943-14.997v-316.19c0-8.265-6.685-14.966-14.943-14.997z" fill="#fdbf00"/><path d="m99.566 503.106c-4.999 0-9.677-2.492-12.465-6.657l-17.202-25.703c-.231-.345-.447-.7-.649-1.063l-5.809-10.464c-9.304-16.759-50.366-90.799-61.57-111.073-2.568-4.646-2.488-10.304.209-14.876 2.697-4.573 7.611-7.379 12.919-7.379h481.999c5.315 0 10.233 2.813 12.928 7.394s2.765 10.247.184 14.893c-19.241 34.624-66.917 120.549-66.917 120.549l-6.641 18.372c-2.112 5.844-7.61 9.78-13.823 9.897l-322.879 6.107c-.094.002-.19.003-.284.003zm322.88-21.107h.01z" fill="#f6efea"/><path d="m509.927 333.285c-2.695-4.581-7.613-7.394-12.928-7.394h-240.943v174.257l166.674-3.152c6.213-.117 11.71-4.054 13.823-9.897l6.641-18.372s47.676-85.925 66.917-120.549c2.581-4.647 2.511-10.312-.184-14.893z" fill="#eee1dc"/><g clip-rule="evenodd" fill-rule="evenodd"><path d="m255.999 412.998c8.262 0 15-6.738 15-15s-6.738-15-15-15-15 6.738-15 15c.001 8.261 6.739 15 15 15z" fill="#00429d"/><path d="m315.999 412.998c8.262 0 15-6.738 15-15s-6.738-15-15-15-15 6.738-15 15c0 8.261 6.739 15 15 15z" fill="#00429d"/><path d="m375.999 412.998c8.262 0 15-6.738 15-15s-6.738-15-15-15-15 6.738-15 15c0 8.261 6.738 15 15 15z" fill="#00429d"/><path d="m136 412.998c8.262 0 15-6.738 15-15s-6.738-15-15-15-15 6.738-15 15c0 8.261 6.738 15 15 15z" fill="#00429d"/><path d="m196 412.998c8.262 0 15-6.738 15-15s-6.738-15-15-15-15 6.738-15 15c0 8.261 6.738 15 15 15z" fill="#00429d"/></g><path d="m496.996 511.999h-481.99c-7.332 0-13.589-5.3-14.795-12.531s2.991-14.276 9.925-16.656c5.839-2.004 11.727-4.085 17.421-6.097 35.968-12.71 69.942-24.715 107.946-24.715 23.445 0 44.859 8.121 65.568 15.975 19.019 7.213 36.982 14.025 54.93 14.025 17.947 0 35.911-6.813 54.929-14.025 20.709-7.854 42.124-15.975 65.568-15.975 38.444 0 78.689 14.288 111.027 25.768 5.014 1.78 9.75 3.461 14.362 5.053 6.927 2.39 11.113 9.434 9.901 16.66-1.21 7.224-7.465 12.518-14.792 12.518z" fill="#bce9f8"/><path clip-rule="evenodd" d="m315.999 412.998c8.262 0 15-6.738 15-15s-6.738-15-15-15-15 6.738-15 15c0 8.261 6.739 15 15 15z" fill="#00347b" fill-rule="evenodd"/><path clip-rule="evenodd" d="m375.999 412.998c8.262 0 15-6.738 15-15s-6.738-15-15-15-15 6.738-15 15c0 8.261 6.738 15 15 15z" fill="#00347b" fill-rule="evenodd"/><path clip-rule="evenodd" d="m136 412.998c8.262 0 15-6.738 15-15s-6.738-15-15-15-15 6.738-15 15c0 8.261 6.738 15 15 15z" fill="#00429d" fill-rule="evenodd"/><path clip-rule="evenodd" d="m196 412.998c8.262 0 15-6.738 15-15s-6.738-15-15-15-15 6.738-15 15c0 8.261 6.738 15 15 15z" fill="#00429d" fill-rule="evenodd"/><path clip-rule="evenodd" d="m256.056 383.001v29.994c8.235-.031 14.943-6.755 14.943-14.997 0-8.243-6.708-14.966-14.943-14.997z" fill="#00347b" fill-rule="evenodd"/><path d="m501.888 482.819c-4.613-1.592-9.349-3.273-14.362-5.053-32.337-11.48-72.583-25.768-111.027-25.768-23.445 0-44.859 8.121-65.568 15.975-18.999 7.205-36.946 14.01-54.874 14.024v30.001h240.94c7.327 0 13.582-5.293 14.793-12.52 1.21-7.225-2.976-14.269-9.902-16.659z" fill="#27d8f6"/></svg>