<svg height="512" viewBox="0 0 128 128" width="512" xmlns="http://www.w3.org/2000/svg"><g><path d="m104.225 105.558a8.438 8.438 0 0 1 -8.425-8.428v-15.589a2.43 2.43 0 0 0 -2.427-2.429h-7.443v-6h7.44a8.438 8.438 0 0 1 8.427 8.429v15.589a2.429 2.429 0 0 0 4.857 0v-42.13h6v42.13a8.438 8.438 0 0 1 -8.429 8.428z" fill="#eaeaf0"/><path d="m109.307 48.75h-6.833a4.755 4.755 0 0 1 -4.75-4.75v-7.5a1.75 1.75 0 1 1 3.5 0v7.5a1.251 1.251 0 0 0 1.25 1.25h6.833a1.75 1.75 0 1 1 0 3.5z" fill="#eaeaf0"/><path d="m99.984 26.75h-13.359v6h9.639v6.862h10.329l.061.048v13.59h6v-16.5z" fill="#f7502f"/><path d="m85.93 26.75h10.337v6h-10.337z" fill="#d93922"/><path d="m106.654 51.093h6v6h-6z" fill="#d8d8d8"/><path d="m9.451 38.518h91.407v68.557h-91.407z" fill="#f7502f" transform="matrix(0 1 -1 0 127.951 17.643)"/><path d="m26.875 87.707a1.75 1.75 0 0 1 -1.75-1.75v-7a1.75 1.75 0 0 1 3.5 0v7a1.749 1.749 0 0 1 -1.75 1.75z" fill="#d93922"/><rect fill="#fdd82e" height="44.593" rx="6" width="68.558" x="20.875" y="6.5"/><path d="m44.857 6.518h20.593v44.558h-20.593z" fill="#eaeaf0" transform="matrix(0 1 -1 0 83.95 -26.357)"/><path d="m15.346 115.5h79.615v6h-79.615z" fill="#d93922"/><circle cx="55.154" cy="85.748" fill="#eaeaf0" r="13.904"/><path d="m61.154 88.133a6 6 0 0 1 -12 0c0-4.6 6-10.77 6-10.77s6 6.17 6 10.77z" fill="#fdd82e"/></g></svg>