<svg height="512" viewBox="0 0 64 64" width="512" xmlns="http://www.w3.org/2000/svg"><g id="flat"><path d="m52 34a9 9 0 1 0 9 9 9 9 0 0 0 -9-9zm0 14a5 5 0 1 1 5-5 5 5 0 0 1 -5 5z" fill="#394d5c"/><path d="m41 37.069a1 1 0 0 1 -.845-1.534 14 14 0 0 1 20.792-3.3 1 1 0 0 1 -1.279 1.538 12 12 0 0 0 -17.822 2.827 1 1 0 0 1 -.846.469z" fill="#2d75bb"/><path d="m7 26 12 3v4l-12-3z" fill="#87cee9"/><path d="m19 29h6v4h-6z" fill="#32b1cc"/><path d="m15 24-12-4v-4l12 4z" fill="#2d75bb"/><path d="m46 20v4l-2.33 3-1.56 2-3.11 4h-14v-7l-10-2v-4l17 2 7-2z" fill="#2d75bb"/><path d="m15 20v4l10 2 9 2 5-8-7 2z" fill="#d3843d"/><path d="m52 22-6 2v-4l6-2z" fill="#ffd782"/><path d="m56 24s-3 0-4-2v-4c1-2 4-2 4-2z" fill="#87cee9"/><path d="m51.01 43.137-3.881-28.137h-3.129v-2h4a1 1 0 0 1 .99.863l4 29z" fill="#32b1cc"/><path d="m36 12h8v4h-8z" fill="#394d5c"/><path d="m40 23h6v2h-6z" fill="#fcf05a"/><path d="m43.67 27-1.56 2h-4.11v-2z" fill="#fcf05a"/><path d="m12 34a9 9 0 1 0 9 9 9 9 0 0 0 -9-9zm0 14a5 5 0 1 1 5-5 5 5 0 0 1 -5 5z" fill="#394d5c"/><path d="m52 45a2 2 0 1 1 2-2 2 2 0 0 1 -2 2z" fill="#f9bb4b"/><path d="m12.336 43.941-.672-1.882 15.011-5.361.448 1.962z" fill="#32b1cc"/><path d="m12 45a2 2 0 1 1 2-2 2 2 0 0 1 -2 2z" fill="#f9bb4b"/><path d="m37 41h-10l-2-8h14z" fill="#195c85"/><g fill="#87cee9"><path d="m29 36h2v2h-2z"/><path d="m33 36h2v2h-2z"/></g></g></svg>