<svg id="Capa_1" enable-background="new 0 0 512 512" height="512" viewBox="0 0 512 512" width="512" xmlns="http://www.w3.org/2000/svg"><path d="m395.996 222.159h29.293v258.082h-29.293z" fill="#acacac"/><path d="m410.642 222.159h14.647v258.082h-14.647z" fill="#9c9c9c"/><path d="m374.155 472.266h72.974c4.559 0 8.255 3.696 8.255 8.255v30.765h-89.484v-30.765c0-4.559 3.696-8.255 8.255-8.255z" fill="#5a5a5a"/><path d="m437.611 232.898h-53.936c-5.198 0-9.411-4.214-9.411-9.411v-35.074h72.759v35.074c-.001 5.197-4.215 9.411-9.412 9.411z" fill="#5a5a5a"/><path d="m511.999 102.07c0 55.978-45.379 101.356-101.356 101.356-55.977 0-101.356-45.379-101.356-101.356 0-55.977 45.379-101.356 101.356-101.356 55.977 0 101.356 45.379 101.356 101.356z" fill="#0593fc"/><path d="m512 102.067c0 55.981-45.384 101.355-101.355 101.355-26.874 0-51.32-10.464-69.459-27.543 14.034 7.367 30.012 11.523 46.958 11.523 55.981 0 101.365-45.384 101.365-101.355 0-27.996-11.348-53.327-29.693-71.671-.731-.731-1.471-1.451-2.233-2.15 9.157 4.784 17.491 10.927 24.734 18.17 18.334 18.345 29.683 43.686 29.683 71.671z" fill="#0182fc"/><path d="m397.753 144.62v-25.822c4.632-.023 9.611-.044 12.495-.044 19.672 0 35.677-15.793 35.677-35.207 0-19.413-16.004-35.206-35.677-35.206 0 0-24.43-.037-24.796 0-5.179.51-9.521 4.959-10.035 10.11-.019.186-.055 86.169-.055 86.169 0 6.174 5.022 11.196 11.196 11.196s11.195-5.022 11.195-11.196zm12.494-73.887c7.201 0 13.285 5.868 13.285 12.814s-6.083 12.815-13.285 12.815c-2.424 0-6.656.015-12.391.044-.023-4.591-.044-9.816-.044-12.858 0-2.532-.012-7.832-.026-12.814h12.461z" fill="#ebebeb"/><path d="m198.117 257.884h-64.819c-3.782 0-7.227 2.173-8.857 5.586l-14.04 29.407h55.307 55.307l-14.04-29.407c-1.631-3.413-5.076-5.586-8.858-5.586z" fill="#fac600"/><path d="m221.012 292.877h-13.783l-14.044-29.407c-1.627-3.416-5.076-5.585-8.854-5.585h13.783c3.784 0 7.233 2.17 8.86 5.585z" fill="#e0ae10"/><path d="m47.183 367.621h-39.067c-4.446 0-8.05-3.604-8.05-8.05v-11.197c0-4.446 3.604-8.05 8.05-8.05h39.067z" fill="#5a5a5a"/><path d="m285.571 367.621h39.067c4.446 0 8.05-3.604 8.05-8.05v-11.197c0-4.446-3.604-8.05-8.05-8.05h-39.067z" fill="#5a5a5a"/><path d="m272.669 306.126c-4.776-9.36-14.397-15.252-24.905-15.252h-81.387-81.387c-10.508 0-20.129 5.892-24.905 15.252l-31.379 61.495h137.671 137.671z" fill="#8ac9fe"/><path d="m304.05 367.619h-17.848l-31.376-61.493c-4.775-9.363-14.399-15.249-24.907-15.249h17.848c10.508 0 20.125 5.887 24.9 15.249z" fill="#60b7ff"/><path d="m40.055 511.286h-27.405c-6.987 0-12.65-5.664-12.65-12.65v-74.664h52.705v74.664c0 6.986-5.664 12.65-12.65 12.65z" fill="#5a5a5a"/><path d="m320.104 511.286h-27.404c-6.987 0-12.65-5.664-12.65-12.65v-74.664h52.705v74.664c-.001 6.986-5.665 12.65-12.651 12.65z" fill="#5a5a5a"/><path d="m52.705 423.97v74.665c0 6.988-5.661 12.649-12.649 12.649h-14.081c6.988 0 12.649-5.661 12.649-12.649v-74.665z" fill="#444"/><path d="m332.754 423.97v74.665c0 6.988-5.661 12.649-12.649 12.649h-14.081c6.988 0 12.656-5.661 12.656-12.649v-74.665z" fill="#444"/><path d="m303.958 367.621h-137.581-137.581l-10.358 4.604c-11.212 4.983-18.438 16.101-18.438 28.371v24.121c0 6.489 2.449 12.74 6.858 17.501l40.509 43.75c3.799 4.103 9.137 6.435 14.728 6.435h104.281 104.281c5.591 0 10.929-2.332 14.728-6.435l40.509-43.75c4.409-4.762 6.858-11.012 6.858-17.501v-24.121c0-12.27-7.226-23.388-18.438-28.371z" fill="#fac600"/><g fill="#5a5a5a"><path d="m111.443 423.844c4.143 0 7.5-3.357 7.5-7.5v-13.813c0-4.143-3.357-7.5-7.5-7.5s-7.5 3.357-7.5 7.5v13.813c0 4.142 3.358 7.5 7.5 7.5z"/><path d="m138.91 423.844c4.143 0 7.5-3.357 7.5-7.5v-13.813c0-4.143-3.357-7.5-7.5-7.5s-7.5 3.357-7.5 7.5v13.813c0 4.142 3.358 7.5 7.5 7.5z"/><path d="m166.377 423.844c4.143 0 7.5-3.357 7.5-7.5v-13.813c0-4.143-3.357-7.5-7.5-7.5s-7.5 3.357-7.5 7.5v13.813c0 4.142 3.357 7.5 7.5 7.5z"/><path d="m193.844 423.844c4.143 0 7.5-3.357 7.5-7.5v-13.813c0-4.143-3.357-7.5-7.5-7.5s-7.5 3.357-7.5 7.5v13.813c0 4.142 3.357 7.5 7.5 7.5z"/><path d="m221.311 423.844c4.143 0 7.5-3.357 7.5-7.5v-13.813c0-4.143-3.357-7.5-7.5-7.5s-7.5 3.357-7.5 7.5v13.813c0 4.142 3.357 7.5 7.5 7.5z"/></g><path d="m319.602 375.226c8.143 5.743 13.151 15.157 13.151 25.369v24.126c0 6.487-2.449 12.733-6.861 17.498l-40.508 43.748c-3.797 4.108-9.134 6.437-14.724 6.437h-208.567c-5.59 0-10.926-2.329-14.724-6.437l-9.741-10.517c2.986 1.659 6.381 2.555 9.868 2.555h216.167c5.668 0 11.082-2.364 14.928-6.522 11.668-12.599 23.152-25.001 34.812-37.593 5.28-5.703 6.896-10.065 6.811-18.253z" fill="#e0ae10"/><path d="m111.662 441.402c-3.151 0-5.366 3.101-4.344 6.082l7.007 20.438c.636 1.856 2.382 3.103 4.344 3.103h95.415c1.962 0 3.708-1.247 4.344-3.103l7.007-20.438c1.022-2.981-1.193-6.082-4.344-6.082z" fill="#5a5a5a"/><path d="m225.438 447.484-7.009 20.441c-.635 1.856-2.386 3.099-4.348 3.099h-95.408c-1.969 0-3.713-1.242-4.348-3.099l-2.725-7.955c.085.014.176.014.268.014h92.804c1.913 0 3.607-1.214 4.228-3.021l5.336-15.564h6.854c3.155 0 5.365 3.106 4.348 6.085z" fill="#444"/><circle cx="58.793" cy="416.089" fill="#ebebeb" r="21.177"/><circle cx="273.961" cy="416.089" fill="#ebebeb" r="21.177"/></svg>