<svg height="512pt" viewBox="-106 0 512 512" width="512pt" xmlns="http://www.w3.org/2000/svg"><path d="m148 502v-152h26v152" fill="#4dbaf6"/><path d="m253.265625 10h-90.53125c-20.289063 0-36.734375 16.445312-36.734375 36.734375v266.53125c0 20.289063 16.445312 36.734375 36.734375 36.734375h90.53125c20.289063 0 36.734375-16.445312 36.734375-36.734375v-266.53125c0-20.289063-16.445312-36.734375-36.734375-36.734375zm0 0" fill="#ffc66c"/><g fill="#fff"><path d="m222 163.726562h20v-81.015624c0-10.332032-8.378906-18.710938-18.710938-18.710938h-146.578124c-10.332032 0-18.710938 8.378906-18.710938 18.710938v81.015624zm0 0"/><path d="m117.667969 163.726562c0 11.042969-8.957031 20-20 20-11.046875 0-20-8.957031-20-20 0-11.046874 8.953125-20 20-20 11.042969 0 20 8.953126 20 20zm0 0"/><path d="m222 163.726562c0 11.042969-8.953125 20-20 20s-20-8.957031-20-20c0-11.046874 8.953125-20 20-20s20 8.953126 20 20zm0 0"/></g><path d="m126 406c-2.628906 0-5.210938 1.070312-7.070312 2.929688-1.859376 1.859374-2.929688 4.441406-2.929688 7.070312s1.070312 5.210938 2.929688 7.070312c1.859374 1.859376 4.441406 2.929688 7.070312 2.929688s5.210938-1.070312 7.070312-2.929688c1.859376-1.859374 2.929688-4.441406 2.929688-7.070312s-1.070312-5.210938-2.929688-7.070312c-1.859374-1.859376-4.441406-2.929688-7.070312-2.929688zm0 0"/><path d="m126 445c-5.523438 0-10 4.476562-10 10v47c0 5.523438 4.476562 10 10 10s10-4.476562 10-10v-47c0-5.523438-4.476562-10-10-10zm0 0"/><path d="m242 0h-184c-31.980469 0-58 26.019531-58 58v244c0 31.980469 26.019531 58 58 58h58v17c0 5.523438 4.476562 10 10 10s10-4.476562 10-10v-17h28v142c0 5.523438 4.476562 10 10 10s10-4.476562 10-10v-142h58c31.980469 0 58-26.019531 58-58v-84c0-5.523438-4.476562-10-10-10s-10 4.476562-10 10v84c0 20.953125-17.046875 38-38 38h-184c-20.953125 0-38-17.046875-38-38v-244c0-20.953125 17.046875-38 38-38h184c20.953125 0 38 17.046875 38 38v85.726562c0 5.519532 4.476562 10 10 10s10-4.480468 10-10v-85.726562c0-31.980469-26.019531-58-58-58zm0 0"/><path d="m290 173.070312c-2.628906 0-5.210938 1.070313-7.070312 2.929688-1.859376 1.859375-2.929688 4.4375-2.929688 7.070312 0 2.628907 1.070312 5.210938 2.929688 7.070313 1.859374 1.859375 4.441406 2.929687 7.070312 2.929687 2.640625 0 5.210938-1.070312 7.070312-2.929687 1.859376-1.859375 2.929688-4.441406 2.929688-7.070313 0-2.632812-1.070312-5.210937-2.929688-7.070312-1.859374-1.859375-4.441406-2.929688-7.070312-2.929688zm0 0"/><path d="m230.28125 173.726562h11.71875c5.523438 0 10-4.480468 10-10v-81.015624c0-15.832032-12.878906-28.710938-28.710938-28.710938h-146.578124c-15.832032 0-28.710938 12.878906-28.710938 28.710938v81.015624c0 5.519532 4.476562 10 10 10h11.386719c4.128906 11.636719 15.246093 20 28.28125 20 13.035156 0 24.152343-8.363281 28.277343-20h47.773438c4.128906 11.636719 15.246094 20 28.28125 20s24.152344-8.363281 28.28125-20zm0-20c-4.128906-11.640624-15.246094-20-28.28125-20s-24.152344 8.359376-28.28125 20h-47.773438c-4.125-11.640624-15.242187-20-28.277343-20-13.035157 0-24.152344 8.359376-28.28125 20h-1.386719v-29.863281h164v29.863281zm-98.53125-49.863281v-29.863281h36.5v29.863281zm100.25-21.152343v21.152343h-43.75v-29.863281h35.039062c4.804688 0 8.710938 3.90625 8.710938 8.710938zm-155.289062-8.710938h35.039062v29.863281h-43.75v-21.152343c0-4.804688 3.90625-8.710938 8.710938-8.710938zm20.957031 99.726562c-5.515625 0-10-4.488281-10-10 0-5.515624 4.484375-10 10-10 5.132812 0 9.371093 3.890626 9.933593 8.878907-.042968.367187-.070312.742187-.070312 1.121093 0 .378907.027344.753907.070312 1.121094-.5625 4.988282-4.800781 8.878906-9.933593 8.878906zm94.332031-10c0-5.515624 4.484375-10 10-10s10 4.484376 10 10c0 5.511719-4.484375 10-10 10s-10-4.488281-10-10zm0 0"/><path d="m82.351562 219.921875h-24.351562c-5.523438 0-10 4.476563-10 10v72c0 5.519531 4.476562 10 10 10h24.351562c15.441407 0 28-12.5625 28-28 0-6.851563-2.472656-13.128906-6.574218-18 4.101562-4.871094 6.574218-11.152344 6.574218-18 0-15.441406-12.558593-28-28-28zm-14.351562 20h14.351562c4.414063 0 8 3.589844 8 8s-3.585937 8-8 8h-14.351562zm14.351562 52h-14.351562v-16h14.351562c4.414063 0 8 3.589844 8 8s-3.585937 8-8 8zm0 0"/><path d="m131.101562 219.921875c-5.523437 0-10 4.476563-10 10v52c0 16.542969 13.457032 30 30 30 16.539063 0 30-13.457031 30-30v-52c0-5.523437-4.480468-10-10-10-5.523437 0-10 4.476563-10 10v52c0 5.511719-4.488281 10-10 10-5.515624 0-10-4.488281-10-10v-52c0-5.523437-4.480468-10-10-10zm0 0"/><path d="m225.175781 291.921875h-16.648437c-5.523438 0-10 4.476563-10 10 0 5.519531 4.476562 10 10 10h16.648437c15.441407 0 28-12.5625 28-28 0-15.441406-12.558593-28-28-28h-6.351562c-4.414063 0-8-3.589844-8-8s3.585937-8 8-8h12.652343c5.519532 0 10-4.480469 10-10 0-5.523437-4.480468-10-10-10h-12.652343c-15.441407 0-28 12.558594-28 28 0 15.4375 12.558593 28 28 28h6.351562c4.414063 0 8 3.589844 8 8s-3.585937 8-8 8zm0 0"/></svg>