<svg id="flat" height="512" viewBox="0 0 512 512" width="512" xmlns="http://www.w3.org/2000/svg"><path d="m488 248v96h-432l-32-32v-24l16-8 13.71-24 11.38013-19.91016a23.99539 23.99539 0 0 1 20.8398-12.08984h34.07007l40.97-40.97a24.01064 24.01064 0 0 1 16.97-7.03h138.82a23.98661 23.98661 0 0 1 18.44 8.64014l32.8 39.35986z" fill="#ffc431"/><path d="m96 256-16 24h-40l13.71-24z" fill="#ef5e3b"/><circle cx="120" cy="328" fill="#d1e4ff" r="40"/><path d="m120 376a48 48 0 1 1 48-48 48.05375 48.05375 0 0 1 -48 48zm0-80a32 32 0 1 0 32 32 32.03667 32.03667 0 0 0 -32-32z" fill="#718799"/><circle cx="120" cy="328" fill="#bdd1f2" r="8"/><circle cx="408" cy="328" fill="#d1e4ff" r="40"/><path d="m408 376a48 48 0 1 1 48-48 48.05375 48.05375 0 0 1 -48 48zm0-80a32 32 0 1 0 32 32 32.03667 32.03667 0 0 0 -32-32z" fill="#718799"/><circle cx="408" cy="328" fill="#bdd1f2" r="8"/><path d="m488 248-32 16v16h32z" fill="#ffe28f"/><path d="m368 224h-248l40.97-40.97a24.01064 24.01064 0 0 1 16.97-7.03h138.82a23.98661 23.98661 0 0 1 18.44 8.64014z" fill="#8be0e8"/><path d="m240 224h16v120h-16z" fill="#ffb401"/><path d="m240 176h16v48h-16z" fill="#5bd2de"/><path d="m280 248h24v16h-24z" fill="#ffb401"/><path d="m160 248h24v16h-24z" fill="#ffb401"/><path d="m224 176 16-32h32l16 32z" fill="#ffc431"/></svg>