<?xml version="1.0" encoding="iso-8859-1"?>
<!-- Generator: Adobe Illustrator 19.0.0, SVG Export Plug-In . SVG Version: 6.00 Build 0)  -->
<svg version="1.1" id="Layer_1" xmlns="http://www.w3.org/2000/svg" xmlns:xlink="http://www.w3.org/1999/xlink" x="0px" y="0px"
	 viewBox="0 0 512.001 512.001" style="enable-background:new 0 0 512.001 512.001;" xml:space="preserve">
<path style="fill:#57565C;" d="M310.03,220.146l-18.191-18.191L116.091,377.702c-4.49,4.49-9.686,8.221-15.29,11.204l-23.104,12.298
	c-5.604,2.983-10.735,6.781-15.225,11.271L3.958,470.988c-5.277,5.277-5.277,13.832,0,19.109l17.914,17.916
	c5.277,5.277,13.832,5.278,19.109,0.001l58.514-58.512c4.49-4.49,8.288-9.62,11.271-15.225l12.299-23.103
	c2.983-5.604,6.726-10.792,11.215-15.28l25.078-25.078l0,0L310.03,220.146z"/>
<path style="fill:#3E3D42;" d="M12.729,479.326l58.514-58.512c4.49-4.49,9.62-8.288,15.225-11.271l23.104-12.298
	c5.604-2.983,10.802-6.714,15.29-11.204L300.394,210.51l-8.555-8.555L116.091,377.702c-4.49,4.49-9.686,8.221-15.29,11.204
	l-23.104,12.298c-5.604,2.983-10.735,6.781-15.225,11.271L3.958,470.988c-5.277,5.277-5.277,13.832,0,19.109l9.219,9.219
	C7.9,494.039,7.452,484.603,12.729,479.326z"/>
<path style="fill:#FF0C38;" d="M141.168,352.625l-25.078,25.078c-4.49,4.49-9.686,8.221-15.291,11.204L80.955,399.47l31.547,31.547
	l10.563-19.843c2.983-5.604,6.726-10.792,11.215-15.28l25.078-25.078L141.168,352.625z"/>
<path style="fill:#D80027;" d="M124.862,386.041l24.86-24.86l-8.555-8.555l-25.078,25.078c-4.49,4.49-9.686,8.221-15.291,11.204
	L80.954,399.47l8.49,8.49l20.126-10.713C115.176,394.262,120.374,390.531,124.862,386.041z"/>
<rect x="29.966" y="437.64" transform="matrix(0.7071 0.7071 -0.7071 0.7071 338.764 93.807)" style="fill:#3E3D42;" width="52.361" height="36.376"/>
<g>
	
		<rect x="23.728" y="435.531" transform="matrix(-0.7071 0.7071 -0.7071 -0.7071 383.8005 724.1857)" style="fill:#2D2D30;" width="36.376" height="12.099"/>
	<path style="fill:#2D2D30;" d="M286.427,196.543c-8.012,8.012-8.012,21.003,0,29.015s21.003,8.012,29.015,0
		C316.321,224.679,287.306,195.663,286.427,196.543z"/>
</g>
<path style="fill:#C6C5CA;" d="M504.274,85.372l-6.908-6.908l6.309-6.309c-0.675-6.457-1.914-12.512-3.699-18.129L486.452,67.55
	l-15.689-15.688l18.582-18.582c-1.541-2.003-8.846-9.25-10.973-10.856l-18.525,18.524L444.161,25.26l13.309-13.309
	c-5.636-1.745-11.725-2.953-18.22-3.609l-6.002,6.002l-6.586-6.586c-19.533,0.118-41.397,4.79-62.12,12.61l4.739,4.739
	l-15.689,15.688L342.766,29.97c-4.829,2.458-9.504,5.082-13.984,7.845l13.895,13.895L326.99,67.398l-16.526-16.526
	c-2.993,2.487-10.325,9.597-11.243,10.586l16.855,16.855L300.386,94l-14.609-14.61c-2.806,4.707-5.224,9.582-7.245,14.583
	l10.941,10.941l-15.689,15.689v21.829l15.688,15.688l-12.437,12.437c1.849,5.152,4.105,10.188,6.767,15.062l16.585-16.585
	l15.689,15.689l-19.427,19.427c1.711,1.982,9.008,9.293,10.894,10.935l19.447-19.447l15.688,15.688l-16.69,16.69
	c4.819,2.668,9.828,4.954,14.992,6.837l12.612-12.612l15.688,15.688h21.829l15.689-15.689l11.248,11.248
	c5.026-2.041,9.895-4.462,14.568-7.261l-14.902-14.902l15.688-15.688l17.123,17.123c0.99-0.919,8.089-8.234,10.586-11.243
	l-16.794-16.794L460,169.035l14.159,14.159c2.754-4.463,5.378-9.139,7.847-13.982l-11.092-11.091l15.688-15.688l5.014,5.014
	c3.366-8.911,6.174-18.09,8.283-27.292C502.734,107.796,504.176,96.147,504.274,85.372z M475.537,78.465l-15.536,15.536
	l-15.688-15.688l15.536-15.536L475.537,78.465z M395.881,104.915l-15.688,15.688l-15.688-15.688l15.688-15.688L395.881,104.915z
	 M391.108,78.313l15.688-15.689l15.688,15.688l-15.688,15.688L391.108,78.313z M369.279,131.517l-15.688,15.688l-15.689-15.688
	l15.688-15.688L369.279,131.517z M380.194,142.432l15.688,15.688l-15.688,15.688l-15.688-15.688L380.194,142.432z M391.108,131.517
	l15.688-15.688l15.688,15.688l-15.688,15.688L391.108,131.517z M417.71,104.915l15.688-15.688l15.688,15.688l-15.688,15.688
	L417.71,104.915z M448.934,51.862l-15.536,15.536L417.71,51.711l15.535-15.535L448.934,51.862z M406.644,9.571l15.688,15.689
	l-15.535,15.535l-15.688-15.688L406.644,9.571z M380.194,36.022l15.688,15.688l-15.689,15.689L364.505,51.71L380.194,36.022z
	 M353.591,62.624l15.688,15.688l-15.688,15.688l-15.688-15.688L353.591,62.624z M326.989,89.227l15.688,15.688l-15.688,15.689
	l-15.688-15.688L326.989,89.227z M284.698,131.517l15.688-15.688l15.688,15.688l-15.688,15.688L284.698,131.517z M311.301,158.12
	l15.688-15.688l15.689,15.688l-15.688,15.688L311.301,158.12z M337.904,184.722l15.688-15.688l15.688,15.688l-15.688,15.688
	L337.904,184.722z M380.194,227.013l-15.688-15.688l15.689-15.689l15.688,15.688L380.194,227.013z M406.796,200.41l-15.688-15.688
	l15.688-15.688l15.688,15.688L406.796,200.41z M433.398,173.808l-15.688-15.688l15.688-15.688l15.688,15.688L433.398,173.808z
	 M460.001,147.206l-15.688-15.688l15.688-15.688l15.688,15.688L460.001,147.206z M470.916,104.915l15.536-15.536l15.688,15.688
	l-15.536,15.536L470.916,104.915z"/>
<path style="fill:#57565C;" d="M377.742,249.025c-30.661,0-59.488-11.94-81.167-33.621c-44.756-44.756-44.756-117.579,0-162.335
	c30.733-30.733,85.764-53.04,130.852-53.04c26.353,0,47.93,7.649,62.402,22.121c20.935,20.934,27.32,55.84,17.981,98.285
	c-8.016,36.432-26.753,72.822-48.9,94.969C437.228,237.085,408.403,249.025,377.742,249.025z M427.426,15.464
	c-40.715,0-92.277,20.859-119.937,48.518c-38.737,38.738-38.737,101.769,0,140.507c18.765,18.764,43.714,29.099,70.253,29.099
	c26.538,0,51.488-10.335,70.253-29.099c39.029-39.029,69.021-133.323,30.918-171.425C467.399,21.55,449.595,15.464,427.426,15.464z"
	/>
<g>
	<path style="fill:#FF0C38;" d="M488.397,133.094c-8.779,28.084-23.767,54.761-40.402,71.396
		c-6.66,6.66-14.103,12.252-22.115,16.703l11.295,11.295c7.81-4.744,15.108-10.456,21.735-17.083
		c17.058-17.058,32.088-42.569,41.759-70.038L488.397,133.094z"/>
	<path style="fill:#FF0C38;" d="M279.516,74.83l11.311,11.311c4.393-7.946,9.927-15.424,16.66-22.158
		c17.28-17.28,43.887-31.904,71.35-40.447l-12.264-12.264c-27.004,9.47-52.461,24.256-70.001,41.796
		C289.886,59.757,284.205,67.075,279.516,74.83z"/>
</g>
<g>
</g>
<g>
</g>
<g>
</g>
<g>
</g>
<g>
</g>
<g>
</g>
<g>
</g>
<g>
</g>
<g>
</g>
<g>
</g>
<g>
</g>
<g>
</g>
<g>
</g>
<g>
</g>
<g>
</g>
</svg>
