<?xml version="1.0" encoding="iso-8859-1"?>
<!-- Generator: Adobe Illustrator 19.0.0, SVG Export Plug-In . SVG Version: 6.00 Build 0)  -->
<svg version="1.1" id="Capa_1" xmlns="http://www.w3.org/2000/svg" xmlns:xlink="http://www.w3.org/1999/xlink" x="0px" y="0px"
	 viewBox="0 0 512 512" style="enable-background:new 0 0 512 512;" xml:space="preserve">
<path style="fill:#5C5E70;" d="M512,256c0,13.145-0.993,26.049-2.905,38.661c-4.033,26.645-12.173,51.952-23.761,75.233
	c-24.628,49.486-64.784,89.872-114.103,114.772C336.593,502.147,297.451,512,256,512c-41.472,0-80.624-9.853-115.273-27.355
	C87.082,457.54,44.262,412.108,20.522,356.582c-9.697-22.674-16.217-47.02-18.996-72.495C0.512,274.86,0,265.488,0,256
	C0,114.615,114.615,0,256,0c108.586,0,201.383,67.605,238.592,163.015c9.195,23.583,14.994,48.859,16.802,75.233
	C511.791,244.109,512,250.034,512,256z"/>
<g>
	<path style="fill:#797B89;" d="M511.394,238.247h-61.283c-3.459,0-6.593-1.4-8.861-3.668c-2.267-2.267-3.678-5.402-3.678-8.871
		c0-6.928,5.622-12.539,12.539-12.539h3.49c3.459,0,6.593-1.4,8.861-3.668s3.678-5.402,3.678-8.871
		c0-6.928-5.622-12.539-12.539-12.539h-34.179c-3.469,0-6.604-1.4-8.871-3.668c-2.267-2.267-3.668-5.402-3.668-8.871
		c0-6.928,5.611-12.539,12.539-12.539h75.17C503.787,186.598,509.586,211.874,511.394,238.247z"/>
	<path style="fill:#797B89;" d="M509.095,294.661c-4.033,26.645-12.173,51.952-23.761,75.233h-3.218
		c-6.928,0-12.539-5.611-12.539-12.539c0-6.928-5.611-12.539-12.539-12.539h-29.78c-3.469,0-6.604-1.4-8.871-3.668
		c-2.267-2.278-3.668-5.413-3.668-8.871c0-6.917,5.611-12.539,12.539-12.539h3.479c3.459,0,6.593-1.4,8.871-3.668
		c2.267-2.278,3.668-5.413,3.668-8.871c0-6.917,5.622-12.539,12.539-12.539H509.095z"/>
	<path style="fill:#797B89;" d="M159.659,188.683L159.659,188.683c0-6.673,5.409-12.082,12.082-12.082h38.934
		c6.673,0,12.082-5.409,12.082-12.082l0,0c0-6.673-5.409-12.082-12.082-12.082H95.897c-6.673,0-12.082,5.409-12.082,12.082l0,0
		c0,6.673-5.409,12.082-12.082,12.082H32.797c-6.673,0-12.082,5.409-12.082,12.082l0,0c0,6.673,5.409,12.082,12.082,12.082h57.73
		c6.673,0,12.082,5.409,12.082,12.082l0,0c0,6.673,5.409,12.082,12.082,12.082h114.78c6.673,0,12.082-5.409,12.082-12.082l0,0
		c0-6.673-5.409-12.082-12.082-12.082h-57.73C165.069,200.765,159.659,195.356,159.659,188.683z"/>
	<path style="fill:#797B89;" d="M91.094,344.503c0,6.666-5.413,12.079-12.079,12.079H20.522
		c-9.697-22.674-16.217-47.02-18.996-72.495h58.692c3.333,0,6.363,1.348,8.547,3.542c2.184,2.184,3.532,5.204,3.532,8.537
		c0,6.677-5.402,12.089-12.079,12.089H21.285c-6.677,0-12.079,5.402-12.079,12.079c0,6.677,5.402,12.079,12.079,12.079h57.731
		c3.333,0,6.353,1.358,8.537,3.542C89.736,338.139,91.094,341.17,91.094,344.503z"/>
</g>
<path style="fill:#F9EED7;" d="M230.423,263.125c0,23.071-3.051,44.722-8.391,63.457c-5.339,18.725-12.967,34.523-22.12,45.892
	c-11.201,2.988-22.695,4.483-34.189,4.483c-11.494,0-22.988-1.494-34.189-4.483c-18.328-22.737-30.521-63.206-30.521-109.349
	c0-39.006,8.714-73.958,22.476-97.573c3.051-5.245,5.622-10.752,7.471-16.53l0.564-1.766c2.999-9.028,5.193-18.254,6.552-27.585
	c1.024-6.928,1.599-13.908,1.703-20.898c0.084-4.315-0.021-8.631-0.293-12.936c-0.439-7.001-1.327-13.981-2.675-20.898
	c-0.46-2.341-0.972-4.681-1.536-7.011l-1.233-5.11c-0.585-2.414-1.275-4.807-2.006-7.189c-1.003-3.271-1.557-6.74-1.557-10.334
	c0-20.156,16.927-36.362,37.334-35.182c17.533,1.014,31.859,15.193,33.061,32.726c0.293,4.326-0.199,8.495-1.348,12.392
	c-0.742,2.508-1.494,5.016-2.111,7.555l-1.264,5.298c-0.543,2.278-1.045,4.566-1.484,6.855c-1.358,6.917-2.257,13.897-2.696,20.898
	c-0.272,4.305-0.366,8.62-0.293,12.936c0.105,6.99,0.679,13.97,1.703,20.898c1.358,9.279,3.532,18.463,6.499,27.439l0.596,1.87
	c1.849,5.81,4.43,11.337,7.492,16.603C221.719,189.199,230.423,224.13,230.423,263.125z"/>
<path style="fill:#E8DBC4;" d="M165.723,376.956c-11.494,0-22.988-1.494-34.189-4.483c-18.328-22.737-30.521-63.206-30.521-109.349
	c0-39.006,8.714-73.958,22.476-97.573c3.051-5.245,5.622-10.752,7.471-16.53l0.564-1.766c2.999-9.028,5.193-18.254,6.552-27.585
	c1.024-6.928,1.599-13.908,1.703-20.898c0.084-4.315-0.021-8.631-0.293-12.936c-0.439-7.001-1.327-13.981-2.675-20.898
	c-0.46-2.341-0.972-4.681-1.536-7.011l-1.233-5.11c-0.585-2.414-1.275-4.807-2.006-7.189c-1.003-3.271-1.557-6.74-1.557-10.334
	c0-19.278,15.464-34.931,34.67-35.234c-11.985,0.481-21.619,16.071-21.619,35.234c0,3.594,0.345,7.064,0.982,10.334
	c0.46,2.382,0.888,4.775,1.264,7.189l0.773,5.11c0.355,2.33,0.679,4.671,0.961,7.011c0.857,6.917,1.411,13.897,1.693,20.898
	c0.167,4.305,0.23,8.62,0.178,12.936c-0.063,6.99-0.428,13.97-1.066,20.898c-0.857,9.331-2.247,18.557-4.127,27.585l-0.355,1.766
	c-1.17,5.778-2.79,11.285-4.702,16.53c-8.673,23.615-14.158,58.567-14.158,97.573c0,46.143,7.68,86.612,19.216,109.349
	C151.241,375.462,158.482,376.956,165.723,376.956z"/>
<g>
	<path style="fill:#FF525D;" d="M194.667,64.939c-1.358,6.917-2.257,13.897-2.696,20.898h-52.485
		c-0.439-7.001-1.327-13.981-2.675-20.898C136.811,64.939,194.667,64.939,194.667,64.939z"/>
	<path style="fill:#FF525D;" d="M193.381,119.671h-55.306c1.024-6.928,1.599-13.908,1.703-20.898h51.9
		C191.783,105.764,192.357,112.743,193.381,119.671z"/>
</g>
<g>
	<circle style="fill:#FCF8F2;" cx="179.555" cy="29.973" r="15.151"/>
	<path style="fill:#FCF8F2;" d="M208.041,278.496L208.041,278.496c-5.483,0-9.927-4.444-9.927-9.927v-50.155
		c0-5.483,4.444-9.927,9.927-9.927l0,0c5.483,0,9.927,4.444,9.927,9.927v50.155C217.968,274.052,213.523,278.496,208.041,278.496z"
		/>
	<path style="fill:#FCF8F2;" d="M208.041,313.5L208.041,313.5c-5.483,0-9.927-4.444-9.927-9.927l0,0
		c0-5.483,4.444-9.927,9.927-9.927l0,0c5.483,0,9.927,4.444,9.927,9.927l0,0C217.968,309.056,213.523,313.5,208.041,313.5z"/>
</g>
<g>
	<path style="fill:#EF4152;" d="M139.486,85.837c-0.439-7.001-1.327-13.981-2.675-20.898h10.7
		c0.857,6.917,1.411,13.897,1.693,20.898H139.486z"/>
	<path style="fill:#EF4152;" d="M149.381,98.773c-0.063,6.99-0.428,13.97-1.066,20.898h-10.24
		c1.024-6.928,1.599-13.908,1.703-20.898H149.381z"/>
</g>
<path style="fill:#F9EED7;" d="M413.643,263.125c0,23.071-3.051,44.722-8.391,63.457c-5.339,18.725-12.967,34.523-22.12,45.892
	c-11.201,2.988-22.695,4.483-34.189,4.483c-11.494,0-22.988-1.494-34.189-4.483c-18.328-22.737-30.521-63.206-30.521-109.349
	c0-39.006,8.714-73.958,22.476-97.573c3.051-5.245,5.622-10.752,7.471-16.53l0.564-1.766c2.999-9.028,5.193-18.254,6.551-27.585
	c1.024-6.928,1.599-13.908,1.703-20.898c0.084-4.315-0.021-8.631-0.293-12.936c-0.439-7.001-1.327-13.981-2.675-20.898
	c-0.46-2.341-0.972-4.681-1.536-7.011l-1.233-5.11c-0.585-2.414-1.275-4.807-2.006-7.189c-1.003-3.271-1.557-6.74-1.557-10.334
	c0-20.156,16.927-36.362,37.334-35.182c17.533,1.014,31.859,15.193,33.061,32.726c0.293,4.326-0.199,8.495-1.348,12.392
	c-0.742,2.508-1.494,5.016-2.111,7.555l-1.264,5.298c-0.543,2.278-1.045,4.566-1.484,6.855c-1.358,6.917-2.257,13.897-2.696,20.898
	c-0.272,4.305-0.366,8.62-0.293,12.936c0.104,6.99,0.679,13.97,1.703,20.898c1.358,9.279,3.532,18.463,6.499,27.439l0.596,1.87
	c1.849,5.81,4.43,11.337,7.492,16.603C404.939,189.199,413.643,224.13,413.643,263.125z"/>
<path style="fill:#E8DBC4;" d="M348.943,376.956c-11.494,0-22.988-1.494-34.189-4.483c-18.328-22.737-30.521-63.206-30.521-109.349
	c0-39.006,8.714-73.958,22.476-97.573c3.051-5.245,5.622-10.752,7.471-16.53l0.564-1.766c2.999-9.028,5.193-18.254,6.551-27.585
	c1.024-6.928,1.599-13.908,1.703-20.898c0.084-4.315-0.021-8.631-0.293-12.936c-0.439-7.001-1.327-13.981-2.675-20.898
	c-0.46-2.341-0.972-4.681-1.536-7.011l-1.233-5.11c-0.585-2.414-1.275-4.807-2.006-7.189c-1.003-3.271-1.557-6.74-1.557-10.334
	c0-19.278,15.464-34.931,34.67-35.234c-11.985,0.481-21.619,16.071-21.619,35.234c0,3.594,0.345,7.064,0.982,10.334
	c0.46,2.382,0.888,4.775,1.264,7.189l0.773,5.11c0.355,2.33,0.679,4.671,0.961,7.011c0.857,6.917,1.411,13.897,1.693,20.898
	c0.167,4.305,0.23,8.62,0.178,12.936c-0.063,6.99-0.428,13.97-1.066,20.898c-0.857,9.331-2.247,18.557-4.127,27.585l-0.355,1.766
	c-1.17,5.778-2.79,11.285-4.702,16.53c-8.673,23.615-14.158,58.567-14.158,97.573c0,46.143,7.68,86.612,19.216,109.349
	C334.46,375.462,341.701,376.956,348.943,376.956z"/>
<g>
	<path style="fill:#FF525D;" d="M377.886,64.939c-1.358,6.917-2.257,13.897-2.696,20.898h-52.485
		c-0.439-7.001-1.327-13.981-2.675-20.898C320.03,64.939,377.886,64.939,377.886,64.939z"/>
	<path style="fill:#FF525D;" d="M376.601,119.671h-55.306c1.024-6.928,1.599-13.908,1.703-20.898h51.9
		C375.002,105.764,375.577,112.743,376.601,119.671z"/>
</g>
<g>
	<circle style="fill:#FCF8F2;" cx="362.778" cy="29.973" r="15.151"/>
	<path style="fill:#FCF8F2;" d="M391.261,278.496L391.261,278.496c-5.483,0-9.927-4.444-9.927-9.927v-50.155
		c0-5.483,4.444-9.927,9.927-9.927l0,0c5.483,0,9.927,4.444,9.927,9.927v50.155C401.188,274.052,396.743,278.496,391.261,278.496z"
		/>
	<path style="fill:#FCF8F2;" d="M380.84,195.075L380.84,195.075c-5.483,0-9.927-4.444-9.927-9.927l0,0
		c0-5.483,4.444-9.927,9.927-9.927l0,0c5.483,0,9.927,4.444,9.927,9.927l0,0C390.767,190.631,386.323,195.075,380.84,195.075z"/>
	<path style="fill:#FCF8F2;" d="M193.951,195.075L193.951,195.075c-5.483,0-9.927-4.444-9.927-9.927l0,0
		c0-5.483,4.444-9.927,9.927-9.927l0,0c5.483,0,9.927,4.444,9.927,9.927l0,0C203.877,190.631,199.432,195.075,193.951,195.075z"/>
</g>
<g>
	<path style="fill:#EF4152;" d="M322.705,85.837c-0.439-7.001-1.327-13.981-2.675-20.898h10.7
		c0.857,6.917,1.411,13.897,1.693,20.898H322.705z"/>
	<path style="fill:#EF4152;" d="M332.6,98.773c-0.063,6.99-0.428,13.97-1.066,20.898h-10.24c1.024-6.928,1.599-13.908,1.703-20.898
		H332.6z"/>
</g>
<path style="fill:#F9EED7;" d="M320.7,276.438c0,23.071-3.051,44.722-8.391,63.457c-5.339,18.725-12.967,34.523-22.12,45.892
	c-11.201,2.988-22.695,4.483-34.189,4.483c-11.494,0-22.988-1.494-34.189-4.483c-18.328-22.737-30.521-63.206-30.521-109.349
	c0-39.006,8.714-73.958,22.476-97.573c3.051-5.245,5.622-10.752,7.471-16.53l0.564-1.766c2.999-9.028,5.193-18.254,6.552-27.585
	c1.024-6.928,1.599-13.908,1.703-20.898c0.084-4.315-0.021-8.631-0.293-12.936c-0.439-7.001-1.327-13.981-2.675-20.898
	c-0.46-2.341-0.972-4.681-1.536-7.011l-1.233-5.11c-0.585-2.414-1.275-4.807-2.006-7.189c-1.003-3.271-1.557-6.74-1.557-10.334
	c0-20.156,16.927-36.362,37.334-35.182c17.533,1.014,31.859,15.193,33.061,32.726c0.293,4.326-0.199,8.495-1.348,12.392
	c-0.742,2.508-1.494,5.016-2.111,7.555l-1.264,5.298c-0.543,2.278-1.045,4.566-1.484,6.855c-1.358,6.917-2.257,13.897-2.696,20.898
	c-0.272,4.305-0.366,8.62-0.293,12.936c0.104,6.99,0.679,13.97,1.703,20.898c1.358,9.279,3.532,18.463,6.499,27.439l0.596,1.87
	c1.849,5.81,4.43,11.337,7.492,16.603C311.996,202.512,320.7,237.443,320.7,276.438z"/>
<path style="fill:#E8DBC4;" d="M256,390.269c-11.494,0-22.988-1.494-34.189-4.483c-18.328-22.737-30.521-63.206-30.521-109.349
	c0-39.006,8.714-73.958,22.476-97.573c3.051-5.245,5.622-10.752,7.471-16.53l0.564-1.766c2.999-9.028,5.193-18.254,6.552-27.585
	c1.024-6.928,1.599-13.908,1.703-20.898c0.084-4.315-0.021-8.631-0.293-12.936c-0.439-7.001-1.327-13.981-2.675-20.898
	c-0.46-2.341-0.972-4.681-1.536-7.011l-1.233-5.11c-0.585-2.414-1.275-4.807-2.006-7.189c-1.003-3.271-1.557-6.74-1.557-10.334
	c0-19.278,15.464-34.931,34.67-35.234c-11.985,0.481-21.619,16.071-21.619,35.234c0,3.594,0.345,7.064,0.982,10.334
	c0.46,2.382,0.888,4.775,1.264,7.189l0.773,5.11c0.355,2.33,0.679,4.671,0.961,7.011c0.857,6.917,1.411,13.897,1.693,20.898
	c0.167,4.305,0.23,8.62,0.178,12.936c-0.063,6.99-0.428,13.97-1.066,20.898c-0.857,9.331-2.247,18.557-4.127,27.585l-0.355,1.766
	c-1.17,5.778-2.79,11.285-4.702,16.53c-8.673,23.615-14.158,58.567-14.158,97.573c0,46.143,7.68,86.612,19.216,109.349
	C241.518,388.775,248.759,390.269,256,390.269z"/>
<g>
	<path style="fill:#FF525D;" d="M284.944,78.252c-1.358,6.917-2.257,13.897-2.696,20.898h-52.485
		c-0.439-7.001-1.327-13.981-2.675-20.898H284.944z"/>
	<path style="fill:#FF525D;" d="M283.658,132.984h-55.306c1.024-6.928,1.599-13.908,1.703-20.898h51.9
		C282.06,119.077,282.634,126.056,283.658,132.984z"/>
</g>
<g>
	<circle style="fill:#FCF8F2;" cx="269.834" cy="43.29" r="15.151"/>
	<path style="fill:#FCF8F2;" d="M298.318,291.809L298.318,291.809c-5.483,0-9.927-4.444-9.927-9.927v-50.155
		c0-5.483,4.444-9.927,9.927-9.927l0,0c5.483,0,9.927,4.444,9.927,9.927v50.155C308.245,287.365,303.801,291.809,298.318,291.809z"
		/>
	<path style="fill:#FCF8F2;" d="M285.257,212.396L285.257,212.396c-5.483,0-9.927-4.444-9.927-9.927l0,0
		c0-5.483,4.444-9.927,9.927-9.927l0,0c5.483,0,9.927,4.444,9.927,9.927l0,0C295.184,207.952,290.74,212.396,285.257,212.396z"/>
</g>
<g>
	<path style="fill:#EF4152;" d="M229.763,99.15c-0.439-7.001-1.327-13.981-2.675-20.898h10.7c0.857,6.917,1.411,13.897,1.693,20.898
		H229.763z"/>
	<path style="fill:#EF4152;" d="M239.658,112.086c-0.063,6.99-0.428,13.97-1.066,20.898h-10.24
		c1.024-6.928,1.599-13.908,1.703-20.898H239.658z"/>
</g>
<path style="fill:#EDBB4C;" d="M391.523,437.049c-3.741,17.189-10.7,33.311-20.292,47.616C336.593,502.147,297.451,512,256,512
	c-41.472,0-80.624-9.853-115.273-27.355c-11.912-17.763-19.874-38.557-22.486-61.262c-8.777-76.089,45.798-144.875,121.877-153.642
	c29.372-3.385,57.657,2.675,81.815,15.757c38.442,20.814,66.445,59.423,71.826,106.141
	C395.567,407.238,394.689,422.536,391.523,437.049z"/>
<path style="fill:#FFD15C;" d="M341.295,472.127c-51.148,35.328-121.25,22.497-156.568-28.662
	c-35.328-51.148-22.497-121.25,28.662-156.568c13.479-9.31,28.285-15.276,43.416-18.077c43.708,0.293,86.58,21.191,113.309,59.894
	c8.923,12.915,15.35,26.823,19.383,41.127C392.819,408.764,375.756,448.334,341.295,472.127z"/>
<g>
	<circle style="fill:#5C5E70;" cx="224.611" cy="315.434" r="15.952"/>
	<circle style="fill:#5C5E70;" cx="199.565" cy="362.423" r="15.952"/>
	<circle style="fill:#5C5E70;" cx="267.933" cy="341.598" r="15.952"/>
</g>
<g>
	<circle style="fill:#FFDC8D;" cx="337.241" cy="355.286" r="25.861"/>
	<circle style="fill:#FFDC8D;" cx="312.184" cy="316.646" r="15.175"/>
</g>
<g>
</g>
<g>
</g>
<g>
</g>
<g>
</g>
<g>
</g>
<g>
</g>
<g>
</g>
<g>
</g>
<g>
</g>
<g>
</g>
<g>
</g>
<g>
</g>
<g>
</g>
<g>
</g>
<g>
</g>
</svg>
