<?xml version="1.0" encoding="iso-8859-1"?>
<!-- Generator: Adobe Illustrator 19.0.0, SVG Export Plug-In . SVG Version: 6.00 Build 0)  -->
<svg version="1.1" id="Capa_1" xmlns="http://www.w3.org/2000/svg" xmlns:xlink="http://www.w3.org/1999/xlink" x="0px" y="0px"
	 viewBox="0 0 409.598 409.598" style="enable-background:new 0 0 409.598 409.598;" xml:space="preserve">
<path style="fill:#3A556A;" d="M400.415,165.821c-20.374-71.449-67.412-102.258-111.051-89.816
	c-11.316,3.227-21.248,9.096-29.444,17.214c-4.699,4.655-10.905,7.467-17.519,7.467h-75.206c-6.615,0-12.822-2.815-17.522-7.469
	c-8.195-8.116-18.125-13.985-29.441-17.213C76.595,63.563,29.557,94.372,9.184,165.821c-20.375,71.449-6.37,156.479,37.269,168.923
	c32.913,9.385,73.267-25.216,99.862-73.44c2.823-5.12,8.295-8.211,14.14-8.211h88.691c5.845,0,11.317,3.091,14.14,8.211
	c26.594,48.223,66.948,82.825,99.861,73.44C406.784,322.301,420.789,237.27,400.415,165.821z"/>
<circle style="fill:#FCD462;" cx="309.913" cy="133.273" r="20.48"/>
<circle style="fill:#44C4A1;" cx="309.913" cy="207.206" r="20.48"/>
<circle style="fill:#27A2DB;" cx="346.879" cy="170.239" r="20.48"/>
<circle style="fill:#E56353;" cx="272.998" cy="170.239" r="20.48"/>
<path style="fill:#EBF0F3;" d="M136.262,158.227h-30.367v-30.369c0-3.178-2.577-5.756-5.756-5.756H75.13
	c-3.179,0-5.756,2.578-5.756,5.756v30.369H39.006c-3.179,0-5.756,2.576-5.756,5.756v25.009c0,3.178,2.577,5.756,5.756,5.756h30.367
	v30.367c0,3.178,2.577,5.756,5.756,5.756h25.009c3.179,0,5.756-2.578,5.756-5.756v-30.367h30.367c3.179,0,5.756-2.578,5.756-5.756
	v-25.009C142.018,160.803,139.441,158.227,136.262,158.227z"/>
<g>
	<polygon style="fill:#E1E6E9;" points="87.633,127.543 78.746,136.43 96.522,136.432 	"/>
	<polygon style="fill:#E1E6E9;" points="87.635,225.43 96.522,216.543 78.746,216.541 	"/>
	<polygon style="fill:#E1E6E9;" points="136.578,176.485 127.69,167.599 127.689,185.374 	"/>
	<polygon style="fill:#E1E6E9;" points="38.69,176.488 47.578,185.374 47.58,167.599 	"/>
</g>
<rect x="162.892" y="118.886" style="fill:#FCD462;" width="34.632" height="14.413"/>
<rect x="212.07" y="118.886" style="fill:#44C4A1;" width="34.632" height="14.413"/>
<g>
</g>
<g>
</g>
<g>
</g>
<g>
</g>
<g>
</g>
<g>
</g>
<g>
</g>
<g>
</g>
<g>
</g>
<g>
</g>
<g>
</g>
<g>
</g>
<g>
</g>
<g>
</g>
<g>
</g>
</svg>
